<svg width="21" height="20" viewBox="0 0 21 20" fill="none" xmlns="http://www.w3.org/2000/svg">
<path d="M10.6084 1.83333C13.2751 1.83333 13.6084 1.83333 14.6917 1.91667C17.4417 2 18.6917 3.33333 18.7751 6C18.8584 7.08333 18.8584 7.33333 18.8584 10C18.8584 12.6667 18.8584 13 18.7751 14C18.6917 16.6667 17.3584 18 14.6917 18.0833C13.6084 18.1667 13.3584 18.1667 10.6084 18.1667C7.94173 18.1667 7.6084 18.1667 6.6084 18.0833C3.8584 18 2.6084 16.6667 2.52507 14C2.44173 12.9167 2.44173 12.6667 2.44173 10C2.44173 7.33333 2.44173 7 2.52507 6C2.6084 3.33333 3.94173 2 6.6084 1.91667C7.6084 1.83333 7.94173 1.83333 10.6084 1.83333ZM10.6084 0C7.8584 0 7.52506 0 6.52506 0.0833333C2.8584 0.25 0.858398 2.25 0.691732 5.91667C0.608398 6.91667 0.608398 7.25 0.608398 10C0.608398 12.75 0.608398 13.0833 0.691732 14.0833C0.858398 17.75 2.8584 19.75 6.52506 19.9167C7.52506 20 7.8584 20 10.6084 20C13.3584 20 13.6917 20 14.6917 19.9167C18.3584 19.75 20.3584 17.75 20.5251 14.0833C20.6084 13.0833 20.6084 12.75 20.6084 10C20.6084 7.25 20.6084 6.91667 20.5251 5.91667C20.3584 2.25 18.3584 0.25 14.6917 0.0833333C13.6917 0 13.3584 0 10.6084 0ZM10.6084 4.83333C7.77506 4.83333 5.44173 7.16667 5.44173 10C5.44173 12.8333 7.77506 15.1667 10.6084 15.1667C13.4417 15.1667 15.7751 12.8333 15.7751 10C15.7751 7.16667 13.4417 4.83333 10.6084 4.83333ZM10.6084 13.3333C8.77506 13.3333 7.27506 11.8333 7.27506 10C7.27506 8.16667 8.77506 6.66667 10.6084 6.66667C12.4417 6.66667 13.9417 8.16667 13.9417 10C13.9417 11.8333 12.4417 13.3333 10.6084 13.3333ZM15.9417 3.5C15.2751 3.5 14.7751 4 14.7751 4.66667C14.7751 5.33333 15.2751 5.83333 15.9417 5.83333C16.6084 5.83333 17.1084 5.33333 17.1084 4.66667C17.1084 4 16.6084 3.5 15.9417 3.5Z" fill="#8794BA"/>
</svg>
