<svg width="601" height="410" viewBox="0 0 601 410" fill="none" xmlns="http://www.w3.org/2000/svg">
<rect x="0.870605" width="600" height="410" rx="30" fill="white"/>
<rect x="70.8706" y="102" width="66" height="52" fill="white"/>
<rect x="136.871" y="102" width="66" height="52" fill="white"/>
<path d="M169.981 123.422V132H168.897V124.775L166.712 125.572V124.594L169.812 123.422H169.981Z" fill="#172755"/>
<rect x="202.871" y="102" width="66" height="52" fill="white"/>
<path d="M238.009 131.109V132H232.425V131.221L235.22 128.109C235.563 127.727 235.829 127.402 236.017 127.137C236.208 126.867 236.341 126.627 236.415 126.416C236.493 126.201 236.532 125.982 236.532 125.76C236.532 125.479 236.474 125.225 236.356 124.998C236.243 124.768 236.075 124.584 235.853 124.447C235.63 124.311 235.36 124.242 235.044 124.242C234.665 124.242 234.349 124.316 234.095 124.465C233.845 124.609 233.657 124.812 233.532 125.074C233.407 125.336 233.345 125.637 233.345 125.977H232.261C232.261 125.496 232.366 125.057 232.577 124.658C232.788 124.26 233.101 123.943 233.515 123.709C233.929 123.471 234.438 123.352 235.044 123.352C235.583 123.352 236.044 123.447 236.427 123.639C236.81 123.826 237.103 124.092 237.306 124.436C237.513 124.775 237.616 125.174 237.616 125.631C237.616 125.881 237.573 126.135 237.487 126.393C237.405 126.646 237.29 126.9 237.142 127.154C236.997 127.408 236.827 127.658 236.632 127.904C236.44 128.15 236.235 128.393 236.017 128.631L233.731 131.109H238.009Z" fill="#172755"/>
<rect x="268.871" y="102" width="66" height="52" fill="white"/>
<path d="M300.001 127.201H300.774C301.153 127.201 301.466 127.139 301.712 127.014C301.962 126.885 302.147 126.711 302.269 126.492C302.394 126.27 302.456 126.02 302.456 125.742C302.456 125.414 302.401 125.139 302.292 124.916C302.183 124.693 302.019 124.525 301.8 124.412C301.581 124.299 301.304 124.242 300.968 124.242C300.663 124.242 300.394 124.303 300.159 124.424C299.929 124.541 299.747 124.709 299.614 124.928C299.485 125.146 299.421 125.404 299.421 125.701H298.337C298.337 125.268 298.446 124.873 298.665 124.518C298.884 124.162 299.19 123.879 299.585 123.668C299.983 123.457 300.444 123.352 300.968 123.352C301.483 123.352 301.935 123.443 302.321 123.627C302.708 123.807 303.009 124.076 303.224 124.436C303.438 124.791 303.546 125.234 303.546 125.766C303.546 125.98 303.495 126.211 303.394 126.457C303.296 126.699 303.142 126.926 302.931 127.137C302.724 127.348 302.454 127.521 302.122 127.658C301.79 127.791 301.392 127.857 300.927 127.857H300.001V127.201ZM300.001 128.092V127.441H300.927C301.47 127.441 301.919 127.506 302.274 127.635C302.63 127.764 302.909 127.936 303.112 128.15C303.319 128.365 303.464 128.602 303.546 128.859C303.632 129.113 303.675 129.367 303.675 129.621C303.675 130.02 303.606 130.373 303.47 130.682C303.337 130.99 303.147 131.252 302.901 131.467C302.659 131.682 302.374 131.844 302.046 131.953C301.718 132.062 301.36 132.117 300.974 132.117C300.603 132.117 300.253 132.064 299.925 131.959C299.601 131.854 299.313 131.701 299.063 131.502C298.813 131.299 298.618 131.051 298.478 130.758C298.337 130.461 298.267 130.123 298.267 129.744H299.351C299.351 130.041 299.415 130.301 299.544 130.523C299.677 130.746 299.864 130.92 300.106 131.045C300.353 131.166 300.642 131.227 300.974 131.227C301.306 131.227 301.591 131.17 301.829 131.057C302.071 130.939 302.257 130.764 302.386 130.529C302.519 130.295 302.585 130 302.585 129.645C302.585 129.289 302.511 128.998 302.362 128.771C302.214 128.541 302.003 128.371 301.729 128.262C301.46 128.148 301.142 128.092 300.774 128.092H300.001Z" fill="#172755"/>
<rect x="334.871" y="102" width="66" height="52" fill="white"/>
<path d="M370.185 129.129V130.02H364.021V129.381L367.841 123.469H368.726L367.776 125.18L365.251 129.129H370.185ZM368.995 123.469V132H367.911V123.469H368.995Z" fill="#172755"/>
<rect x="400.871" y="102" width="66" height="52" fill="white"/>
<path d="M431.79 127.939L430.923 127.717L431.351 123.469H435.728V124.471H432.271L432.013 126.791C432.169 126.701 432.366 126.617 432.604 126.539C432.847 126.461 433.124 126.422 433.437 126.422C433.831 126.422 434.185 126.49 434.497 126.627C434.81 126.76 435.075 126.951 435.294 127.201C435.517 127.451 435.687 127.752 435.804 128.104C435.921 128.455 435.979 128.848 435.979 129.281C435.979 129.691 435.923 130.068 435.81 130.412C435.7 130.756 435.534 131.057 435.312 131.314C435.089 131.568 434.808 131.766 434.468 131.906C434.132 132.047 433.735 132.117 433.278 132.117C432.935 132.117 432.608 132.07 432.3 131.977C431.995 131.879 431.722 131.732 431.479 131.537C431.241 131.338 431.046 131.092 430.894 130.799C430.745 130.502 430.651 130.154 430.612 129.756H431.644C431.69 130.076 431.784 130.346 431.925 130.564C432.065 130.783 432.249 130.949 432.476 131.062C432.706 131.172 432.974 131.227 433.278 131.227C433.536 131.227 433.765 131.182 433.964 131.092C434.163 131.002 434.331 130.873 434.468 130.705C434.604 130.537 434.708 130.334 434.778 130.096C434.853 129.857 434.89 129.59 434.89 129.293C434.89 129.023 434.853 128.773 434.778 128.543C434.704 128.312 434.593 128.111 434.444 127.939C434.3 127.768 434.122 127.635 433.911 127.541C433.7 127.443 433.458 127.395 433.185 127.395C432.821 127.395 432.546 127.443 432.358 127.541C432.175 127.639 431.985 127.771 431.79 127.939Z" fill="#172755"/>
<rect x="466.871" y="102" width="66" height="52" fill="white"/>
<path d="M500.579 123.457H500.673V124.377H500.579C500.005 124.377 499.524 124.471 499.138 124.658C498.751 124.842 498.444 125.09 498.218 125.402C497.991 125.711 497.827 126.059 497.726 126.445C497.628 126.832 497.579 127.225 497.579 127.623V128.877C497.579 129.256 497.624 129.592 497.714 129.885C497.804 130.174 497.927 130.418 498.083 130.617C498.239 130.816 498.415 130.967 498.61 131.068C498.81 131.17 499.017 131.221 499.231 131.221C499.481 131.221 499.704 131.174 499.899 131.08C500.095 130.982 500.259 130.848 500.392 130.676C500.528 130.5 500.632 130.293 500.702 130.055C500.772 129.816 500.808 129.555 500.808 129.27C500.808 129.016 500.776 128.771 500.714 128.537C500.651 128.299 500.556 128.088 500.427 127.904C500.298 127.717 500.136 127.57 499.94 127.465C499.749 127.355 499.521 127.301 499.255 127.301C498.954 127.301 498.673 127.375 498.411 127.523C498.153 127.668 497.94 127.859 497.772 128.098C497.608 128.332 497.515 128.588 497.491 128.865L496.917 128.859C496.972 128.422 497.073 128.049 497.222 127.74C497.374 127.428 497.562 127.174 497.784 126.979C498.011 126.779 498.263 126.635 498.54 126.545C498.821 126.451 499.118 126.404 499.431 126.404C499.856 126.404 500.224 126.484 500.532 126.645C500.841 126.805 501.095 127.02 501.294 127.289C501.493 127.555 501.64 127.855 501.733 128.191C501.831 128.523 501.88 128.865 501.88 129.217C501.88 129.619 501.823 129.996 501.71 130.348C501.597 130.699 501.427 131.008 501.2 131.273C500.978 131.539 500.702 131.746 500.374 131.895C500.046 132.043 499.665 132.117 499.231 132.117C498.771 132.117 498.368 132.023 498.024 131.836C497.681 131.645 497.396 131.391 497.169 131.074C496.942 130.758 496.772 130.406 496.659 130.02C496.546 129.633 496.489 129.24 496.489 128.842V128.332C496.489 127.73 496.55 127.141 496.671 126.562C496.792 125.984 497.001 125.461 497.298 124.992C497.599 124.523 498.015 124.15 498.546 123.873C499.077 123.596 499.755 123.457 500.579 123.457Z" fill="#172755"/>
<rect x="70.8706" y="154" width="66" height="52" fill="white"/>
<path d="M105.933 175.469V176.078L102.399 184H101.257L104.784 176.359H100.167V175.469H105.933Z" fill="#172755"/>
<rect x="136.871" y="154" width="66" height="52" fill="white"/>
<circle cx="169.371" cy="179.5" r="19.5" fill="#0088F0"/>
<path d="M171.798 181.691C171.798 182.211 171.677 182.652 171.435 183.016C171.196 183.375 170.872 183.648 170.462 183.836C170.056 184.023 169.597 184.117 169.085 184.117C168.573 184.117 168.112 184.023 167.702 183.836C167.292 183.648 166.968 183.375 166.729 183.016C166.491 182.652 166.372 182.211 166.372 181.691C166.372 181.352 166.437 181.041 166.565 180.76C166.698 180.475 166.884 180.227 167.122 180.016C167.364 179.805 167.649 179.643 167.978 179.529C168.31 179.412 168.675 179.354 169.073 179.354C169.597 179.354 170.063 179.455 170.474 179.658C170.884 179.857 171.206 180.133 171.44 180.484C171.679 180.836 171.798 181.238 171.798 181.691ZM170.708 181.668C170.708 181.352 170.64 181.072 170.503 180.83C170.366 180.584 170.175 180.393 169.929 180.256C169.683 180.119 169.397 180.051 169.073 180.051C168.741 180.051 168.454 180.119 168.212 180.256C167.974 180.393 167.788 180.584 167.655 180.83C167.522 181.072 167.456 181.352 167.456 181.668C167.456 181.996 167.521 182.277 167.649 182.512C167.782 182.742 167.97 182.92 168.212 183.045C168.458 183.166 168.749 183.227 169.085 183.227C169.421 183.227 169.71 183.166 169.952 183.045C170.194 182.92 170.38 182.742 170.509 182.512C170.642 182.277 170.708 181.996 170.708 181.668ZM171.599 177.689C171.599 178.104 171.489 178.477 171.271 178.809C171.052 179.141 170.753 179.402 170.374 179.594C169.995 179.785 169.565 179.881 169.085 179.881C168.597 179.881 168.161 179.785 167.778 179.594C167.399 179.402 167.103 179.141 166.888 178.809C166.673 178.477 166.565 178.104 166.565 177.689C166.565 177.193 166.673 176.771 166.888 176.424C167.106 176.076 167.405 175.811 167.784 175.627C168.163 175.443 168.595 175.352 169.079 175.352C169.567 175.352 170.001 175.443 170.38 175.627C170.759 175.811 171.056 176.076 171.271 176.424C171.489 176.771 171.599 177.193 171.599 177.689ZM170.515 177.707C170.515 177.422 170.454 177.17 170.333 176.951C170.212 176.732 170.044 176.561 169.829 176.436C169.614 176.307 169.364 176.242 169.079 176.242C168.794 176.242 168.544 176.303 168.329 176.424C168.118 176.541 167.952 176.709 167.831 176.928C167.714 177.146 167.655 177.406 167.655 177.707C167.655 178 167.714 178.256 167.831 178.475C167.952 178.693 168.12 178.863 168.335 178.984C168.55 179.105 168.8 179.166 169.085 179.166C169.37 179.166 169.618 179.105 169.829 178.984C170.044 178.863 170.212 178.693 170.333 178.475C170.454 178.256 170.515 178 170.515 177.707Z" fill="#EEEEF7"/>
<rect x="202.871" y="154" width="66" height="52" fill="white"/>
<circle cx="235.371" cy="179.5" r="19.5" fill="#0088F0"/>
<path d="M233.497 183.092H233.608C234.233 183.092 234.741 183.004 235.132 182.828C235.522 182.652 235.823 182.416 236.034 182.119C236.245 181.822 236.39 181.488 236.468 181.117C236.546 180.742 236.585 180.357 236.585 179.963V178.656C236.585 178.27 236.54 177.926 236.45 177.625C236.364 177.324 236.243 177.072 236.087 176.869C235.935 176.666 235.761 176.512 235.565 176.406C235.37 176.301 235.163 176.248 234.944 176.248C234.694 176.248 234.47 176.299 234.271 176.4C234.075 176.498 233.909 176.637 233.772 176.816C233.64 176.996 233.538 177.207 233.468 177.449C233.397 177.691 233.362 177.955 233.362 178.24C233.362 178.494 233.394 178.74 233.456 178.979C233.519 179.217 233.614 179.432 233.743 179.623C233.872 179.814 234.032 179.967 234.224 180.08C234.419 180.189 234.647 180.244 234.909 180.244C235.151 180.244 235.378 180.197 235.589 180.104C235.804 180.006 235.993 179.875 236.157 179.711C236.325 179.543 236.458 179.354 236.556 179.143C236.657 178.932 236.716 178.711 236.731 178.48H237.247C237.247 178.805 237.183 179.125 237.054 179.441C236.929 179.754 236.753 180.039 236.526 180.297C236.3 180.555 236.034 180.762 235.729 180.918C235.425 181.07 235.093 181.146 234.733 181.146C234.312 181.146 233.946 181.064 233.638 180.9C233.329 180.736 233.075 180.518 232.876 180.244C232.681 179.971 232.534 179.666 232.437 179.33C232.343 178.99 232.296 178.646 232.296 178.299C232.296 177.893 232.353 177.512 232.466 177.156C232.579 176.801 232.747 176.488 232.97 176.219C233.192 175.945 233.468 175.732 233.796 175.58C234.128 175.428 234.511 175.352 234.944 175.352C235.433 175.352 235.849 175.449 236.192 175.645C236.536 175.84 236.815 176.102 237.03 176.43C237.249 176.758 237.409 177.127 237.511 177.537C237.612 177.947 237.663 178.369 237.663 178.803V179.195C237.663 179.637 237.634 180.086 237.575 180.543C237.521 180.996 237.413 181.43 237.253 181.844C237.097 182.258 236.868 182.629 236.567 182.957C236.267 183.281 235.874 183.539 235.39 183.73C234.909 183.918 234.315 184.012 233.608 184.012H233.497V183.092Z" fill="#EEEEF7"/>
<rect x="268.871" y="154" width="66" height="52" fill="white"/>
<circle cx="301.371" cy="179.5" r="19.5" fill="#0088F0"/>
<path d="M298.106 175.422V184H297.022V176.775L294.837 177.572V176.594L297.937 175.422H298.106ZM306.649 179.055V180.355C306.649 181.055 306.587 181.645 306.462 182.125C306.337 182.605 306.157 182.992 305.923 183.285C305.688 183.578 305.405 183.791 305.073 183.924C304.745 184.053 304.374 184.117 303.96 184.117C303.632 184.117 303.329 184.076 303.052 183.994C302.774 183.912 302.524 183.781 302.302 183.602C302.083 183.418 301.896 183.18 301.739 182.887C301.583 182.594 301.464 182.238 301.382 181.82C301.3 181.402 301.259 180.914 301.259 180.355V179.055C301.259 178.355 301.321 177.77 301.446 177.297C301.575 176.824 301.757 176.445 301.991 176.16C302.226 175.871 302.507 175.664 302.835 175.539C303.167 175.414 303.538 175.352 303.948 175.352C304.28 175.352 304.585 175.393 304.862 175.475C305.144 175.553 305.394 175.68 305.612 175.855C305.831 176.027 306.017 176.258 306.169 176.547C306.325 176.832 306.444 177.182 306.526 177.596C306.608 178.01 306.649 178.496 306.649 179.055ZM305.56 180.531V178.873C305.56 178.49 305.536 178.154 305.489 177.865C305.446 177.572 305.382 177.322 305.296 177.115C305.21 176.908 305.101 176.74 304.968 176.611C304.839 176.482 304.688 176.389 304.517 176.33C304.349 176.268 304.159 176.236 303.948 176.236C303.69 176.236 303.462 176.285 303.263 176.383C303.063 176.477 302.896 176.627 302.759 176.834C302.626 177.041 302.524 177.312 302.454 177.648C302.384 177.984 302.349 178.393 302.349 178.873V180.531C302.349 180.914 302.37 181.252 302.413 181.545C302.46 181.838 302.528 182.092 302.618 182.307C302.708 182.518 302.817 182.691 302.946 182.828C303.075 182.965 303.224 183.066 303.392 183.133C303.563 183.195 303.753 183.227 303.96 183.227C304.226 183.227 304.458 183.176 304.657 183.074C304.856 182.973 305.022 182.814 305.155 182.6C305.292 182.381 305.394 182.102 305.46 181.762C305.526 181.418 305.56 181.008 305.56 180.531Z" fill="#EEEEF7"/>
<rect x="334.871" y="154" width="66" height="52" fill="white"/>
<path d="M364.106 175.422V184H363.022V176.775L360.837 177.572V176.594L363.937 175.422H364.106ZM370.856 175.422V184H369.772V176.775L367.587 177.572V176.594L370.687 175.422H370.856Z" fill="#172755"/>
<rect x="400.871" y="154" width="66" height="52" fill="white"/>
<path d="M430.106 175.422V184H429.022V176.775L426.837 177.572V176.594L429.937 175.422H430.106ZM438.884 183.109V184H433.3V183.221L436.095 180.109C436.438 179.727 436.704 179.402 436.892 179.137C437.083 178.867 437.216 178.627 437.29 178.416C437.368 178.201 437.407 177.982 437.407 177.76C437.407 177.479 437.349 177.225 437.231 176.998C437.118 176.768 436.95 176.584 436.728 176.447C436.505 176.311 436.235 176.242 435.919 176.242C435.54 176.242 435.224 176.316 434.97 176.465C434.72 176.609 434.532 176.812 434.407 177.074C434.282 177.336 434.22 177.637 434.22 177.977H433.136C433.136 177.496 433.241 177.057 433.452 176.658C433.663 176.26 433.976 175.943 434.39 175.709C434.804 175.471 435.313 175.352 435.919 175.352C436.458 175.352 436.919 175.447 437.302 175.639C437.685 175.826 437.978 176.092 438.181 176.436C438.388 176.775 438.491 177.174 438.491 177.631C438.491 177.881 438.448 178.135 438.362 178.393C438.28 178.646 438.165 178.9 438.017 179.154C437.872 179.408 437.702 179.658 437.507 179.904C437.315 180.15 437.11 180.393 436.892 180.631L434.606 183.109H438.884Z" fill="#172755"/>
<rect x="466.871" y="154" width="66" height="52" fill="white"/>
<path d="M496.106 175.422V184H495.022V176.775L492.837 177.572V176.594L495.937 175.422H496.106ZM500.876 179.201H501.649C502.028 179.201 502.341 179.139 502.587 179.014C502.837 178.885 503.022 178.711 503.144 178.492C503.269 178.27 503.331 178.02 503.331 177.742C503.331 177.414 503.276 177.139 503.167 176.916C503.058 176.693 502.894 176.525 502.675 176.412C502.456 176.299 502.179 176.242 501.843 176.242C501.538 176.242 501.269 176.303 501.034 176.424C500.804 176.541 500.622 176.709 500.489 176.928C500.36 177.146 500.296 177.404 500.296 177.701H499.212C499.212 177.268 499.321 176.873 499.54 176.518C499.759 176.162 500.065 175.879 500.46 175.668C500.858 175.457 501.319 175.352 501.843 175.352C502.358 175.352 502.81 175.443 503.196 175.627C503.583 175.807 503.884 176.076 504.099 176.436C504.313 176.791 504.421 177.234 504.421 177.766C504.421 177.98 504.37 178.211 504.269 178.457C504.171 178.699 504.017 178.926 503.806 179.137C503.599 179.348 503.329 179.521 502.997 179.658C502.665 179.791 502.267 179.857 501.802 179.857H500.876V179.201ZM500.876 180.092V179.441H501.802C502.345 179.441 502.794 179.506 503.149 179.635C503.505 179.764 503.784 179.936 503.987 180.15C504.194 180.365 504.339 180.602 504.421 180.859C504.507 181.113 504.55 181.367 504.55 181.621C504.55 182.02 504.481 182.373 504.345 182.682C504.212 182.99 504.022 183.252 503.776 183.467C503.534 183.682 503.249 183.844 502.921 183.953C502.593 184.062 502.235 184.117 501.849 184.117C501.478 184.117 501.128 184.064 500.8 183.959C500.476 183.854 500.188 183.701 499.938 183.502C499.688 183.299 499.493 183.051 499.353 182.758C499.212 182.461 499.142 182.123 499.142 181.744H500.226C500.226 182.041 500.29 182.301 500.419 182.523C500.552 182.746 500.739 182.92 500.981 183.045C501.228 183.166 501.517 183.227 501.849 183.227C502.181 183.227 502.466 183.17 502.704 183.057C502.946 182.939 503.132 182.764 503.261 182.529C503.394 182.295 503.46 182 503.46 181.645C503.46 181.289 503.386 180.998 503.237 180.771C503.089 180.541 502.878 180.371 502.604 180.262C502.335 180.148 502.017 180.092 501.649 180.092H500.876Z" fill="#172755"/>
<rect x="70.8706" y="206" width="66" height="52" fill="white"/>
<path d="M100.106 227.422V236H99.0225V228.775L96.8369 229.572V228.594L99.9365 227.422H100.106ZM109.06 233.129V234.02H102.896V233.381L106.716 227.469H107.601L106.651 229.18L104.126 233.129H109.06ZM107.87 227.469V236H106.786V227.469H107.87Z" fill="#172755"/>
<rect x="136.871" y="206" width="66" height="52" fill="white"/>
<path d="M166.106 227.422V236H165.022V228.775L162.837 229.572V228.594L165.937 227.422H166.106ZM170.665 231.939L169.798 231.717L170.226 227.469H174.603V228.471H171.146L170.888 230.791C171.044 230.701 171.241 230.617 171.479 230.539C171.722 230.461 171.999 230.422 172.312 230.422C172.706 230.422 173.06 230.49 173.372 230.627C173.685 230.76 173.95 230.951 174.169 231.201C174.392 231.451 174.562 231.752 174.679 232.104C174.796 232.455 174.854 232.848 174.854 233.281C174.854 233.691 174.798 234.068 174.685 234.412C174.575 234.756 174.409 235.057 174.187 235.314C173.964 235.568 173.683 235.766 173.343 235.906C173.007 236.047 172.61 236.117 172.153 236.117C171.81 236.117 171.483 236.07 171.175 235.977C170.87 235.879 170.597 235.732 170.354 235.537C170.116 235.338 169.921 235.092 169.769 234.799C169.62 234.502 169.526 234.154 169.487 233.756H170.519C170.565 234.076 170.659 234.346 170.8 234.564C170.94 234.783 171.124 234.949 171.351 235.062C171.581 235.172 171.849 235.227 172.153 235.227C172.411 235.227 172.64 235.182 172.839 235.092C173.038 235.002 173.206 234.873 173.343 234.705C173.479 234.537 173.583 234.334 173.653 234.096C173.728 233.857 173.765 233.59 173.765 233.293C173.765 233.023 173.728 232.773 173.653 232.543C173.579 232.312 173.468 232.111 173.319 231.939C173.175 231.768 172.997 231.635 172.786 231.541C172.575 231.443 172.333 231.395 172.06 231.395C171.696 231.395 171.421 231.443 171.233 231.541C171.05 231.639 170.86 231.771 170.665 231.939Z" fill="#172755"/>
<rect x="202.871" y="206" width="66" height="52" fill="white"/>
<path d="M232.106 227.422V236H231.022V228.775L228.837 229.572V228.594L231.937 227.422H232.106ZM239.454 227.457H239.548V228.377H239.454C238.88 228.377 238.399 228.471 238.013 228.658C237.626 228.842 237.319 229.09 237.093 229.402C236.866 229.711 236.702 230.059 236.601 230.445C236.503 230.832 236.454 231.225 236.454 231.623V232.877C236.454 233.256 236.499 233.592 236.589 233.885C236.679 234.174 236.802 234.418 236.958 234.617C237.114 234.816 237.29 234.967 237.485 235.068C237.685 235.17 237.892 235.221 238.106 235.221C238.356 235.221 238.579 235.174 238.774 235.08C238.97 234.982 239.134 234.848 239.267 234.676C239.403 234.5 239.507 234.293 239.577 234.055C239.647 233.816 239.683 233.555 239.683 233.27C239.683 233.016 239.651 232.771 239.589 232.537C239.526 232.299 239.431 232.088 239.302 231.904C239.173 231.717 239.011 231.57 238.815 231.465C238.624 231.355 238.396 231.301 238.13 231.301C237.829 231.301 237.548 231.375 237.286 231.523C237.028 231.668 236.815 231.859 236.647 232.098C236.483 232.332 236.39 232.588 236.366 232.865L235.792 232.859C235.847 232.422 235.948 232.049 236.097 231.74C236.249 231.428 236.437 231.174 236.659 230.979C236.886 230.779 237.138 230.635 237.415 230.545C237.696 230.451 237.993 230.404 238.306 230.404C238.731 230.404 239.099 230.484 239.407 230.645C239.716 230.805 239.97 231.02 240.169 231.289C240.368 231.555 240.515 231.855 240.608 232.191C240.706 232.523 240.755 232.865 240.755 233.217C240.755 233.619 240.698 233.996 240.585 234.348C240.472 234.699 240.302 235.008 240.075 235.273C239.853 235.539 239.577 235.746 239.249 235.895C238.921 236.043 238.54 236.117 238.106 236.117C237.646 236.117 237.243 236.023 236.899 235.836C236.556 235.645 236.271 235.391 236.044 235.074C235.817 234.758 235.647 234.406 235.534 234.02C235.421 233.633 235.364 233.24 235.364 232.842V232.332C235.364 231.73 235.425 231.141 235.546 230.562C235.667 229.984 235.876 229.461 236.173 228.992C236.474 228.523 236.89 228.15 237.421 227.873C237.952 227.596 238.63 227.457 239.454 227.457Z" fill="#172755"/>
<rect x="268.871" y="206" width="66" height="52" fill="white"/>
<path d="M298.106 227.422V236H297.022V228.775L294.837 229.572V228.594L297.937 227.422H298.106ZM306.808 227.469V228.078L303.274 236H302.132L305.659 228.359H301.042V227.469H306.808Z" fill="#172755"/>
<rect x="334.871" y="206" width="66" height="52" fill="white"/>
<circle cx="367.371" cy="231.5" r="19.5" fill="#EF2A82"/>
<path d="M364.106 227.422V236H363.022V228.775L360.837 229.572V228.594L363.937 227.422H364.106ZM372.673 233.691C372.673 234.211 372.552 234.652 372.31 235.016C372.071 235.375 371.747 235.648 371.337 235.836C370.931 236.023 370.472 236.117 369.96 236.117C369.448 236.117 368.987 236.023 368.577 235.836C368.167 235.648 367.843 235.375 367.604 235.016C367.366 234.652 367.247 234.211 367.247 233.691C367.247 233.352 367.312 233.041 367.44 232.76C367.573 232.475 367.759 232.227 367.997 232.016C368.239 231.805 368.524 231.643 368.853 231.529C369.185 231.412 369.55 231.354 369.948 231.354C370.472 231.354 370.938 231.455 371.349 231.658C371.759 231.857 372.081 232.133 372.315 232.484C372.554 232.836 372.673 233.238 372.673 233.691ZM371.583 233.668C371.583 233.352 371.515 233.072 371.378 232.83C371.241 232.584 371.05 232.393 370.804 232.256C370.558 232.119 370.272 232.051 369.948 232.051C369.616 232.051 369.329 232.119 369.087 232.256C368.849 232.393 368.663 232.584 368.53 232.83C368.397 233.072 368.331 233.352 368.331 233.668C368.331 233.996 368.396 234.277 368.524 234.512C368.657 234.742 368.845 234.92 369.087 235.045C369.333 235.166 369.624 235.227 369.96 235.227C370.296 235.227 370.585 235.166 370.827 235.045C371.069 234.92 371.255 234.742 371.384 234.512C371.517 234.277 371.583 233.996 371.583 233.668ZM372.474 229.689C372.474 230.104 372.364 230.477 372.146 230.809C371.927 231.141 371.628 231.402 371.249 231.594C370.87 231.785 370.44 231.881 369.96 231.881C369.472 231.881 369.036 231.785 368.653 231.594C368.274 231.402 367.978 231.141 367.763 230.809C367.548 230.477 367.44 230.104 367.44 229.689C367.44 229.193 367.548 228.771 367.763 228.424C367.981 228.076 368.28 227.811 368.659 227.627C369.038 227.443 369.47 227.352 369.954 227.352C370.442 227.352 370.876 227.443 371.255 227.627C371.634 227.811 371.931 228.076 372.146 228.424C372.364 228.771 372.474 229.193 372.474 229.689ZM371.39 229.707C371.39 229.422 371.329 229.17 371.208 228.951C371.087 228.732 370.919 228.561 370.704 228.436C370.489 228.307 370.239 228.242 369.954 228.242C369.669 228.242 369.419 228.303 369.204 228.424C368.993 228.541 368.827 228.709 368.706 228.928C368.589 229.146 368.53 229.406 368.53 229.707C368.53 230 368.589 230.256 368.706 230.475C368.827 230.693 368.995 230.863 369.21 230.984C369.425 231.105 369.675 231.166 369.96 231.166C370.245 231.166 370.493 231.105 370.704 230.984C370.919 230.863 371.087 230.693 371.208 230.475C371.329 230.256 371.39 230 371.39 229.707Z" fill="#EEEEF7"/>
<rect x="400.871" y="206" width="66" height="52" fill="white"/>
<path d="M430.106 227.422V236H429.022V228.775L426.837 229.572V228.594L429.937 227.422H430.106ZM434.372 235.092H434.483C435.108 235.092 435.616 235.004 436.007 234.828C436.397 234.652 436.698 234.416 436.909 234.119C437.12 233.822 437.265 233.488 437.343 233.117C437.421 232.742 437.46 232.357 437.46 231.963V230.656C437.46 230.27 437.415 229.926 437.325 229.625C437.239 229.324 437.118 229.072 436.962 228.869C436.81 228.666 436.636 228.512 436.44 228.406C436.245 228.301 436.038 228.248 435.819 228.248C435.569 228.248 435.345 228.299 435.146 228.4C434.95 228.498 434.784 228.637 434.647 228.816C434.515 228.996 434.413 229.207 434.343 229.449C434.272 229.691 434.237 229.955 434.237 230.24C434.237 230.494 434.269 230.74 434.331 230.979C434.394 231.217 434.489 231.432 434.618 231.623C434.747 231.814 434.907 231.967 435.099 232.08C435.294 232.189 435.522 232.244 435.784 232.244C436.026 232.244 436.253 232.197 436.464 232.104C436.679 232.006 436.868 231.875 437.032 231.711C437.2 231.543 437.333 231.354 437.431 231.143C437.532 230.932 437.591 230.711 437.606 230.48H438.122C438.122 230.805 438.058 231.125 437.929 231.441C437.804 231.754 437.628 232.039 437.401 232.297C437.175 232.555 436.909 232.762 436.604 232.918C436.3 233.07 435.968 233.146 435.608 233.146C435.187 233.146 434.821 233.064 434.513 232.9C434.204 232.736 433.95 232.518 433.751 232.244C433.556 231.971 433.409 231.666 433.312 231.33C433.218 230.99 433.171 230.646 433.171 230.299C433.171 229.893 433.228 229.512 433.341 229.156C433.454 228.801 433.622 228.488 433.845 228.219C434.067 227.945 434.343 227.732 434.671 227.58C435.003 227.428 435.386 227.352 435.819 227.352C436.308 227.352 436.724 227.449 437.067 227.645C437.411 227.84 437.69 228.102 437.905 228.43C438.124 228.758 438.284 229.127 438.386 229.537C438.487 229.947 438.538 230.369 438.538 230.803V231.195C438.538 231.637 438.509 232.086 438.45 232.543C438.396 232.996 438.288 233.43 438.128 233.844C437.972 234.258 437.743 234.629 437.442 234.957C437.142 235.281 436.749 235.539 436.265 235.73C435.784 235.918 435.19 236.012 434.483 236.012H434.372V235.092Z" fill="#172755"/>
<rect x="466.871" y="206" width="66" height="52" fill="white"/>
<path d="M498.134 235.109V236H492.55V235.221L495.345 232.109C495.688 231.727 495.954 231.402 496.142 231.137C496.333 230.867 496.466 230.627 496.54 230.416C496.618 230.201 496.657 229.982 496.657 229.76C496.657 229.479 496.599 229.225 496.481 228.998C496.368 228.768 496.2 228.584 495.978 228.447C495.755 228.311 495.485 228.242 495.169 228.242C494.79 228.242 494.474 228.316 494.22 228.465C493.97 228.609 493.782 228.812 493.657 229.074C493.532 229.336 493.47 229.637 493.47 229.977H492.386C492.386 229.496 492.491 229.057 492.702 228.658C492.913 228.26 493.226 227.943 493.64 227.709C494.054 227.471 494.563 227.352 495.169 227.352C495.708 227.352 496.169 227.447 496.552 227.639C496.935 227.826 497.228 228.092 497.431 228.436C497.638 228.775 497.741 229.174 497.741 229.631C497.741 229.881 497.698 230.135 497.612 230.393C497.53 230.646 497.415 230.9 497.267 231.154C497.122 231.408 496.952 231.658 496.757 231.904C496.565 232.15 496.36 232.393 496.142 232.631L493.856 235.109H498.134ZM504.649 231.055V232.355C504.649 233.055 504.587 233.645 504.462 234.125C504.337 234.605 504.157 234.992 503.923 235.285C503.688 235.578 503.405 235.791 503.073 235.924C502.745 236.053 502.374 236.117 501.96 236.117C501.632 236.117 501.329 236.076 501.052 235.994C500.774 235.912 500.524 235.781 500.302 235.602C500.083 235.418 499.896 235.18 499.739 234.887C499.583 234.594 499.464 234.238 499.382 233.82C499.3 233.402 499.259 232.914 499.259 232.355V231.055C499.259 230.355 499.321 229.77 499.446 229.297C499.575 228.824 499.757 228.445 499.991 228.16C500.226 227.871 500.507 227.664 500.835 227.539C501.167 227.414 501.538 227.352 501.948 227.352C502.28 227.352 502.585 227.393 502.862 227.475C503.144 227.553 503.394 227.68 503.612 227.855C503.831 228.027 504.017 228.258 504.169 228.547C504.325 228.832 504.444 229.182 504.526 229.596C504.608 230.01 504.649 230.496 504.649 231.055ZM503.56 232.531V230.873C503.56 230.49 503.536 230.154 503.489 229.865C503.446 229.572 503.382 229.322 503.296 229.115C503.21 228.908 503.101 228.74 502.968 228.611C502.839 228.482 502.688 228.389 502.517 228.33C502.349 228.268 502.159 228.236 501.948 228.236C501.69 228.236 501.462 228.285 501.263 228.383C501.063 228.477 500.896 228.627 500.759 228.834C500.626 229.041 500.524 229.312 500.454 229.648C500.384 229.984 500.349 230.393 500.349 230.873V232.531C500.349 232.914 500.37 233.252 500.413 233.545C500.46 233.838 500.528 234.092 500.618 234.307C500.708 234.518 500.817 234.691 500.946 234.828C501.075 234.965 501.224 235.066 501.392 235.133C501.563 235.195 501.753 235.227 501.96 235.227C502.226 235.227 502.458 235.176 502.657 235.074C502.856 234.973 503.022 234.814 503.155 234.6C503.292 234.381 503.394 234.102 503.46 233.762C503.526 233.418 503.56 233.008 503.56 232.531Z" fill="#172755"/>
<rect x="70.8706" y="258" width="66" height="52" fill="white"/>
<path d="M102.134 287.109V288H96.5498V287.221L99.3447 284.109C99.6885 283.727 99.9541 283.402 100.142 283.137C100.333 282.867 100.466 282.627 100.54 282.416C100.618 282.201 100.657 281.982 100.657 281.76C100.657 281.479 100.599 281.225 100.481 280.998C100.368 280.768 100.2 280.584 99.9775 280.447C99.7549 280.311 99.4854 280.242 99.1689 280.242C98.79 280.242 98.4736 280.316 98.2197 280.465C97.9697 280.609 97.7822 280.812 97.6572 281.074C97.5322 281.336 97.4697 281.637 97.4697 281.977H96.3857C96.3857 281.496 96.4912 281.057 96.7021 280.658C96.9131 280.26 97.2256 279.943 97.6396 279.709C98.0537 279.471 98.5635 279.352 99.1689 279.352C99.708 279.352 100.169 279.447 100.552 279.639C100.935 279.826 101.228 280.092 101.431 280.436C101.638 280.775 101.741 281.174 101.741 281.631C101.741 281.881 101.698 282.135 101.612 282.393C101.53 282.646 101.415 282.9 101.267 283.154C101.122 283.408 100.952 283.658 100.757 283.904C100.565 284.15 100.36 284.393 100.142 284.631L97.8564 287.109H102.134ZM106.856 279.422V288H105.772V280.775L103.587 281.572V280.594L106.687 279.422H106.856Z" fill="#172755"/>
<rect x="136.871" y="258" width="66" height="52" fill="white"/>
<path d="M168.134 287.109V288H162.55V287.221L165.345 284.109C165.688 283.727 165.954 283.402 166.142 283.137C166.333 282.867 166.466 282.627 166.54 282.416C166.618 282.201 166.657 281.982 166.657 281.76C166.657 281.479 166.599 281.225 166.481 280.998C166.368 280.768 166.2 280.584 165.978 280.447C165.755 280.311 165.485 280.242 165.169 280.242C164.79 280.242 164.474 280.316 164.22 280.465C163.97 280.609 163.782 280.812 163.657 281.074C163.532 281.336 163.47 281.637 163.47 281.977H162.386C162.386 281.496 162.491 281.057 162.702 280.658C162.913 280.26 163.226 279.943 163.64 279.709C164.054 279.471 164.563 279.352 165.169 279.352C165.708 279.352 166.169 279.447 166.552 279.639C166.935 279.826 167.228 280.092 167.431 280.436C167.638 280.775 167.741 281.174 167.741 281.631C167.741 281.881 167.698 282.135 167.612 282.393C167.53 282.646 167.415 282.9 167.267 283.154C167.122 283.408 166.952 283.658 166.757 283.904C166.565 284.15 166.36 284.393 166.142 284.631L163.856 287.109H168.134ZM174.884 287.109V288H169.3V287.221L172.095 284.109C172.438 283.727 172.704 283.402 172.892 283.137C173.083 282.867 173.216 282.627 173.29 282.416C173.368 282.201 173.407 281.982 173.407 281.76C173.407 281.479 173.349 281.225 173.231 280.998C173.118 280.768 172.95 280.584 172.728 280.447C172.505 280.311 172.235 280.242 171.919 280.242C171.54 280.242 171.224 280.316 170.97 280.465C170.72 280.609 170.532 280.812 170.407 281.074C170.282 281.336 170.22 281.637 170.22 281.977H169.136C169.136 281.496 169.241 281.057 169.452 280.658C169.663 280.26 169.976 279.943 170.39 279.709C170.804 279.471 171.313 279.352 171.919 279.352C172.458 279.352 172.919 279.447 173.302 279.639C173.685 279.826 173.978 280.092 174.181 280.436C174.388 280.775 174.491 281.174 174.491 281.631C174.491 281.881 174.448 282.135 174.362 282.393C174.28 282.646 174.165 282.9 174.017 283.154C173.872 283.408 173.702 283.658 173.507 283.904C173.315 284.15 173.11 284.393 172.892 284.631L170.606 287.109H174.884Z" fill="#172755"/>
<rect x="202.871" y="258" width="66" height="52" fill="white"/>
<path d="M234.134 287.109V288H228.55V287.221L231.345 284.109C231.688 283.727 231.954 283.402 232.142 283.137C232.333 282.867 232.466 282.627 232.54 282.416C232.618 282.201 232.657 281.982 232.657 281.76C232.657 281.479 232.599 281.225 232.481 280.998C232.368 280.768 232.2 280.584 231.978 280.447C231.755 280.311 231.485 280.242 231.169 280.242C230.79 280.242 230.474 280.316 230.22 280.465C229.97 280.609 229.782 280.812 229.657 281.074C229.532 281.336 229.47 281.637 229.47 281.977H228.386C228.386 281.496 228.491 281.057 228.702 280.658C228.913 280.26 229.226 279.943 229.64 279.709C230.054 279.471 230.563 279.352 231.169 279.352C231.708 279.352 232.169 279.447 232.552 279.639C232.935 279.826 233.228 280.092 233.431 280.436C233.638 280.775 233.741 281.174 233.741 281.631C233.741 281.881 233.698 282.135 233.612 282.393C233.53 282.646 233.415 282.9 233.267 283.154C233.122 283.408 232.952 283.658 232.757 283.904C232.565 284.15 232.36 284.393 232.142 284.631L229.856 287.109H234.134ZM236.876 283.201H237.649C238.028 283.201 238.341 283.139 238.587 283.014C238.837 282.885 239.022 282.711 239.144 282.492C239.269 282.27 239.331 282.02 239.331 281.742C239.331 281.414 239.276 281.139 239.167 280.916C239.058 280.693 238.894 280.525 238.675 280.412C238.456 280.299 238.179 280.242 237.843 280.242C237.538 280.242 237.269 280.303 237.034 280.424C236.804 280.541 236.622 280.709 236.489 280.928C236.36 281.146 236.296 281.404 236.296 281.701H235.212C235.212 281.268 235.321 280.873 235.54 280.518C235.759 280.162 236.065 279.879 236.46 279.668C236.858 279.457 237.319 279.352 237.843 279.352C238.358 279.352 238.81 279.443 239.196 279.627C239.583 279.807 239.884 280.076 240.099 280.436C240.313 280.791 240.421 281.234 240.421 281.766C240.421 281.98 240.37 282.211 240.269 282.457C240.171 282.699 240.017 282.926 239.806 283.137C239.599 283.348 239.329 283.521 238.997 283.658C238.665 283.791 238.267 283.857 237.802 283.857H236.876V283.201ZM236.876 284.092V283.441H237.802C238.345 283.441 238.794 283.506 239.149 283.635C239.505 283.764 239.784 283.936 239.987 284.15C240.194 284.365 240.339 284.602 240.421 284.859C240.507 285.113 240.55 285.367 240.55 285.621C240.55 286.02 240.481 286.373 240.345 286.682C240.212 286.99 240.022 287.252 239.776 287.467C239.534 287.682 239.249 287.844 238.921 287.953C238.593 288.062 238.235 288.117 237.849 288.117C237.478 288.117 237.128 288.064 236.8 287.959C236.476 287.854 236.188 287.701 235.938 287.502C235.688 287.299 235.493 287.051 235.353 286.758C235.212 286.461 235.142 286.123 235.142 285.744H236.226C236.226 286.041 236.29 286.301 236.419 286.523C236.552 286.746 236.739 286.92 236.981 287.045C237.228 287.166 237.517 287.227 237.849 287.227C238.181 287.227 238.466 287.17 238.704 287.057C238.946 286.939 239.132 286.764 239.261 286.529C239.394 286.295 239.46 286 239.46 285.645C239.46 285.289 239.386 284.998 239.237 284.771C239.089 284.541 238.878 284.371 238.604 284.262C238.335 284.148 238.017 284.092 237.649 284.092H236.876Z" fill="#172755"/>
<rect x="268.871" y="258" width="66" height="52" fill="white"/>
<path d="M300.134 287.109V288H294.55V287.221L297.345 284.109C297.688 283.727 297.954 283.402 298.142 283.137C298.333 282.867 298.466 282.627 298.54 282.416C298.618 282.201 298.657 281.982 298.657 281.76C298.657 281.479 298.599 281.225 298.481 280.998C298.368 280.768 298.2 280.584 297.978 280.447C297.755 280.311 297.485 280.242 297.169 280.242C296.79 280.242 296.474 280.316 296.22 280.465C295.97 280.609 295.782 280.812 295.657 281.074C295.532 281.336 295.47 281.637 295.47 281.977H294.386C294.386 281.496 294.491 281.057 294.702 280.658C294.913 280.26 295.226 279.943 295.64 279.709C296.054 279.471 296.563 279.352 297.169 279.352C297.708 279.352 298.169 279.447 298.552 279.639C298.935 279.826 299.228 280.092 299.431 280.436C299.638 280.775 299.741 281.174 299.741 281.631C299.741 281.881 299.698 282.135 299.612 282.393C299.53 282.646 299.415 282.9 299.267 283.154C299.122 283.408 298.952 283.658 298.757 283.904C298.565 284.15 298.36 284.393 298.142 284.631L295.856 287.109H300.134ZM307.06 285.129V286.02H300.896V285.381L304.716 279.469H305.601L304.651 281.18L302.126 285.129H307.06ZM305.87 279.469V288H304.786V279.469H305.87Z" fill="#172755"/>
<rect x="334.871" y="258" width="66" height="52" fill="white"/>
<path d="M366.134 287.109V288H360.55V287.221L363.345 284.109C363.688 283.727 363.954 283.402 364.142 283.137C364.333 282.867 364.466 282.627 364.54 282.416C364.618 282.201 364.657 281.982 364.657 281.76C364.657 281.479 364.599 281.225 364.481 280.998C364.368 280.768 364.2 280.584 363.978 280.447C363.755 280.311 363.485 280.242 363.169 280.242C362.79 280.242 362.474 280.316 362.22 280.465C361.97 280.609 361.782 280.812 361.657 281.074C361.532 281.336 361.47 281.637 361.47 281.977H360.386C360.386 281.496 360.491 281.057 360.702 280.658C360.913 280.26 361.226 279.943 361.64 279.709C362.054 279.471 362.563 279.352 363.169 279.352C363.708 279.352 364.169 279.447 364.552 279.639C364.935 279.826 365.228 280.092 365.431 280.436C365.638 280.775 365.741 281.174 365.741 281.631C365.741 281.881 365.698 282.135 365.612 282.393C365.53 282.646 365.415 282.9 365.267 283.154C365.122 283.408 364.952 283.658 364.757 283.904C364.565 284.15 364.36 284.393 364.142 284.631L361.856 287.109H366.134ZM368.665 283.939L367.798 283.717L368.226 279.469H372.603V280.471H369.146L368.888 282.791C369.044 282.701 369.241 282.617 369.479 282.539C369.722 282.461 369.999 282.422 370.312 282.422C370.706 282.422 371.06 282.49 371.372 282.627C371.685 282.76 371.95 282.951 372.169 283.201C372.392 283.451 372.562 283.752 372.679 284.104C372.796 284.455 372.854 284.848 372.854 285.281C372.854 285.691 372.798 286.068 372.685 286.412C372.575 286.756 372.409 287.057 372.187 287.314C371.964 287.568 371.683 287.766 371.343 287.906C371.007 288.047 370.61 288.117 370.153 288.117C369.81 288.117 369.483 288.07 369.175 287.977C368.87 287.879 368.597 287.732 368.354 287.537C368.116 287.338 367.921 287.092 367.769 286.799C367.62 286.502 367.526 286.154 367.487 285.756H368.519C368.565 286.076 368.659 286.346 368.8 286.564C368.94 286.783 369.124 286.949 369.351 287.062C369.581 287.172 369.849 287.227 370.153 287.227C370.411 287.227 370.64 287.182 370.839 287.092C371.038 287.002 371.206 286.873 371.343 286.705C371.479 286.537 371.583 286.334 371.653 286.096C371.728 285.857 371.765 285.59 371.765 285.293C371.765 285.023 371.728 284.773 371.653 284.543C371.579 284.312 371.468 284.111 371.319 283.939C371.175 283.768 370.997 283.635 370.786 283.541C370.575 283.443 370.333 283.395 370.06 283.395C369.696 283.395 369.421 283.443 369.233 283.541C369.05 283.639 368.86 283.771 368.665 283.939Z" fill="#172755"/>
<rect x="400.871" y="258" width="66" height="52" fill="white"/>
<path d="M432.134 287.109V288H426.55V287.221L429.345 284.109C429.688 283.727 429.954 283.402 430.142 283.137C430.333 282.867 430.466 282.627 430.54 282.416C430.618 282.201 430.657 281.982 430.657 281.76C430.657 281.479 430.599 281.225 430.481 280.998C430.368 280.768 430.2 280.584 429.978 280.447C429.755 280.311 429.485 280.242 429.169 280.242C428.79 280.242 428.474 280.316 428.22 280.465C427.97 280.609 427.782 280.812 427.657 281.074C427.532 281.336 427.47 281.637 427.47 281.977H426.386C426.386 281.496 426.491 281.057 426.702 280.658C426.913 280.26 427.226 279.943 427.64 279.709C428.054 279.471 428.563 279.352 429.169 279.352C429.708 279.352 430.169 279.447 430.552 279.639C430.935 279.826 431.228 280.092 431.431 280.436C431.638 280.775 431.741 281.174 431.741 281.631C431.741 281.881 431.698 282.135 431.612 282.393C431.53 282.646 431.415 282.9 431.267 283.154C431.122 283.408 430.952 283.658 430.757 283.904C430.565 284.15 430.36 284.393 430.142 284.631L427.856 287.109H432.134ZM437.454 279.457H437.548V280.377H437.454C436.88 280.377 436.399 280.471 436.013 280.658C435.626 280.842 435.319 281.09 435.093 281.402C434.866 281.711 434.702 282.059 434.601 282.445C434.503 282.832 434.454 283.225 434.454 283.623V284.877C434.454 285.256 434.499 285.592 434.589 285.885C434.679 286.174 434.802 286.418 434.958 286.617C435.114 286.816 435.29 286.967 435.485 287.068C435.685 287.17 435.892 287.221 436.106 287.221C436.356 287.221 436.579 287.174 436.774 287.08C436.97 286.982 437.134 286.848 437.267 286.676C437.403 286.5 437.507 286.293 437.577 286.055C437.647 285.816 437.683 285.555 437.683 285.27C437.683 285.016 437.651 284.771 437.589 284.537C437.526 284.299 437.431 284.088 437.302 283.904C437.173 283.717 437.011 283.57 436.815 283.465C436.624 283.355 436.396 283.301 436.13 283.301C435.829 283.301 435.548 283.375 435.286 283.523C435.028 283.668 434.815 283.859 434.647 284.098C434.483 284.332 434.39 284.588 434.366 284.865L433.792 284.859C433.847 284.422 433.948 284.049 434.097 283.74C434.249 283.428 434.437 283.174 434.659 282.979C434.886 282.779 435.138 282.635 435.415 282.545C435.696 282.451 435.993 282.404 436.306 282.404C436.731 282.404 437.099 282.484 437.407 282.645C437.716 282.805 437.97 283.02 438.169 283.289C438.368 283.555 438.515 283.855 438.608 284.191C438.706 284.523 438.755 284.865 438.755 285.217C438.755 285.619 438.698 285.996 438.585 286.348C438.472 286.699 438.302 287.008 438.075 287.273C437.853 287.539 437.577 287.746 437.249 287.895C436.921 288.043 436.54 288.117 436.106 288.117C435.646 288.117 435.243 288.023 434.899 287.836C434.556 287.645 434.271 287.391 434.044 287.074C433.817 286.758 433.647 286.406 433.534 286.02C433.421 285.633 433.364 285.24 433.364 284.842V284.332C433.364 283.73 433.425 283.141 433.546 282.562C433.667 281.984 433.876 281.461 434.173 280.992C434.474 280.523 434.89 280.15 435.421 279.873C435.952 279.596 436.63 279.457 437.454 279.457Z" fill="#172755"/>
<rect x="466.871" y="258" width="66" height="52" fill="white"/>
<path d="M498.134 287.109V288H492.55V287.221L495.345 284.109C495.688 283.727 495.954 283.402 496.142 283.137C496.333 282.867 496.466 282.627 496.54 282.416C496.618 282.201 496.657 281.982 496.657 281.76C496.657 281.479 496.599 281.225 496.481 280.998C496.368 280.768 496.2 280.584 495.978 280.447C495.755 280.311 495.485 280.242 495.169 280.242C494.79 280.242 494.474 280.316 494.22 280.465C493.97 280.609 493.782 280.812 493.657 281.074C493.532 281.336 493.47 281.637 493.47 281.977H492.386C492.386 281.496 492.491 281.057 492.702 280.658C492.913 280.26 493.226 279.943 493.64 279.709C494.054 279.471 494.563 279.352 495.169 279.352C495.708 279.352 496.169 279.447 496.552 279.639C496.935 279.826 497.228 280.092 497.431 280.436C497.638 280.775 497.741 281.174 497.741 281.631C497.741 281.881 497.698 282.135 497.612 282.393C497.53 282.646 497.415 282.9 497.267 283.154C497.122 283.408 496.952 283.658 496.757 283.904C496.565 284.15 496.36 284.393 496.142 284.631L493.856 287.109H498.134ZM504.808 279.469V280.078L501.274 288H500.132L503.659 280.359H499.042V279.469H504.808Z" fill="#172755"/>
<rect x="70.8706" y="310" width="66" height="52" fill="white"/>
<path d="M102.134 339.109V340H96.5498V339.221L99.3447 336.109C99.6885 335.727 99.9541 335.402 100.142 335.137C100.333 334.867 100.466 334.627 100.54 334.416C100.618 334.201 100.657 333.982 100.657 333.76C100.657 333.479 100.599 333.225 100.481 332.998C100.368 332.768 100.2 332.584 99.9775 332.447C99.7549 332.311 99.4854 332.242 99.1689 332.242C98.79 332.242 98.4736 332.316 98.2197 332.465C97.9697 332.609 97.7822 332.812 97.6572 333.074C97.5322 333.336 97.4697 333.637 97.4697 333.977H96.3857C96.3857 333.496 96.4912 333.057 96.7021 332.658C96.9131 332.26 97.2256 331.943 97.6396 331.709C98.0537 331.471 98.5635 331.352 99.1689 331.352C99.708 331.352 100.169 331.447 100.552 331.639C100.935 331.826 101.228 332.092 101.431 332.436C101.638 332.775 101.741 333.174 101.741 333.631C101.741 333.881 101.698 334.135 101.612 334.393C101.53 334.646 101.415 334.9 101.267 335.154C101.122 335.408 100.952 335.658 100.757 335.904C100.565 336.15 100.36 336.393 100.142 336.631L97.8564 339.109H102.134ZM108.673 337.691C108.673 338.211 108.552 338.652 108.31 339.016C108.071 339.375 107.747 339.648 107.337 339.836C106.931 340.023 106.472 340.117 105.96 340.117C105.448 340.117 104.987 340.023 104.577 339.836C104.167 339.648 103.843 339.375 103.604 339.016C103.366 338.652 103.247 338.211 103.247 337.691C103.247 337.352 103.312 337.041 103.44 336.76C103.573 336.475 103.759 336.227 103.997 336.016C104.239 335.805 104.524 335.643 104.853 335.529C105.185 335.412 105.55 335.354 105.948 335.354C106.472 335.354 106.938 335.455 107.349 335.658C107.759 335.857 108.081 336.133 108.315 336.484C108.554 336.836 108.673 337.238 108.673 337.691ZM107.583 337.668C107.583 337.352 107.515 337.072 107.378 336.83C107.241 336.584 107.05 336.393 106.804 336.256C106.558 336.119 106.272 336.051 105.948 336.051C105.616 336.051 105.329 336.119 105.087 336.256C104.849 336.393 104.663 336.584 104.53 336.83C104.397 337.072 104.331 337.352 104.331 337.668C104.331 337.996 104.396 338.277 104.524 338.512C104.657 338.742 104.845 338.92 105.087 339.045C105.333 339.166 105.624 339.227 105.96 339.227C106.296 339.227 106.585 339.166 106.827 339.045C107.069 338.92 107.255 338.742 107.384 338.512C107.517 338.277 107.583 337.996 107.583 337.668ZM108.474 333.689C108.474 334.104 108.364 334.477 108.146 334.809C107.927 335.141 107.628 335.402 107.249 335.594C106.87 335.785 106.44 335.881 105.96 335.881C105.472 335.881 105.036 335.785 104.653 335.594C104.274 335.402 103.978 335.141 103.763 334.809C103.548 334.477 103.44 334.104 103.44 333.689C103.44 333.193 103.548 332.771 103.763 332.424C103.981 332.076 104.28 331.811 104.659 331.627C105.038 331.443 105.47 331.352 105.954 331.352C106.442 331.352 106.876 331.443 107.255 331.627C107.634 331.811 107.931 332.076 108.146 332.424C108.364 332.771 108.474 333.193 108.474 333.689ZM107.39 333.707C107.39 333.422 107.329 333.17 107.208 332.951C107.087 332.732 106.919 332.561 106.704 332.436C106.489 332.307 106.239 332.242 105.954 332.242C105.669 332.242 105.419 332.303 105.204 332.424C104.993 332.541 104.827 332.709 104.706 332.928C104.589 333.146 104.53 333.406 104.53 333.707C104.53 334 104.589 334.256 104.706 334.475C104.827 334.693 104.995 334.863 105.21 334.984C105.425 335.105 105.675 335.166 105.96 335.166C106.245 335.166 106.493 335.105 106.704 334.984C106.919 334.863 107.087 334.693 107.208 334.475C107.329 334.256 107.39 334 107.39 333.707Z" fill="#172755"/>
<rect x="136.871" y="310" width="66" height="52" fill="white"/>
<path d="M168.134 339.109V340H162.55V339.221L165.345 336.109C165.688 335.727 165.954 335.402 166.142 335.137C166.333 334.867 166.466 334.627 166.54 334.416C166.618 334.201 166.657 333.982 166.657 333.76C166.657 333.479 166.599 333.225 166.481 332.998C166.368 332.768 166.2 332.584 165.978 332.447C165.755 332.311 165.485 332.242 165.169 332.242C164.79 332.242 164.474 332.316 164.22 332.465C163.97 332.609 163.782 332.812 163.657 333.074C163.532 333.336 163.47 333.637 163.47 333.977H162.386C162.386 333.496 162.491 333.057 162.702 332.658C162.913 332.26 163.226 331.943 163.64 331.709C164.054 331.471 164.563 331.352 165.169 331.352C165.708 331.352 166.169 331.447 166.552 331.639C166.935 331.826 167.228 332.092 167.431 332.436C167.638 332.775 167.741 333.174 167.741 333.631C167.741 333.881 167.698 334.135 167.612 334.393C167.53 334.646 167.415 334.9 167.267 335.154C167.122 335.408 166.952 335.658 166.757 335.904C166.565 336.15 166.36 336.393 166.142 336.631L163.856 339.109H168.134ZM170.372 339.092H170.483C171.108 339.092 171.616 339.004 172.007 338.828C172.397 338.652 172.698 338.416 172.909 338.119C173.12 337.822 173.265 337.488 173.343 337.117C173.421 336.742 173.46 336.357 173.46 335.963V334.656C173.46 334.27 173.415 333.926 173.325 333.625C173.239 333.324 173.118 333.072 172.962 332.869C172.81 332.666 172.636 332.512 172.44 332.406C172.245 332.301 172.038 332.248 171.819 332.248C171.569 332.248 171.345 332.299 171.146 332.4C170.95 332.498 170.784 332.637 170.647 332.816C170.515 332.996 170.413 333.207 170.343 333.449C170.272 333.691 170.237 333.955 170.237 334.24C170.237 334.494 170.269 334.74 170.331 334.979C170.394 335.217 170.489 335.432 170.618 335.623C170.747 335.814 170.907 335.967 171.099 336.08C171.294 336.189 171.522 336.244 171.784 336.244C172.026 336.244 172.253 336.197 172.464 336.104C172.679 336.006 172.868 335.875 173.032 335.711C173.2 335.543 173.333 335.354 173.431 335.143C173.532 334.932 173.591 334.711 173.606 334.48H174.122C174.122 334.805 174.058 335.125 173.929 335.441C173.804 335.754 173.628 336.039 173.401 336.297C173.175 336.555 172.909 336.762 172.604 336.918C172.3 337.07 171.968 337.146 171.608 337.146C171.187 337.146 170.821 337.064 170.513 336.9C170.204 336.736 169.95 336.518 169.751 336.244C169.556 335.971 169.409 335.666 169.312 335.33C169.218 334.99 169.171 334.646 169.171 334.299C169.171 333.893 169.228 333.512 169.341 333.156C169.454 332.801 169.622 332.488 169.845 332.219C170.067 331.945 170.343 331.732 170.671 331.58C171.003 331.428 171.386 331.352 171.819 331.352C172.308 331.352 172.724 331.449 173.067 331.645C173.411 331.84 173.69 332.102 173.905 332.43C174.124 332.758 174.284 333.127 174.386 333.537C174.487 333.947 174.538 334.369 174.538 334.803V335.195C174.538 335.637 174.509 336.086 174.45 336.543C174.396 336.996 174.288 337.43 174.128 337.844C173.972 338.258 173.743 338.629 173.442 338.957C173.142 339.281 172.749 339.539 172.265 339.73C171.784 339.918 171.19 340.012 170.483 340.012H170.372V339.092Z" fill="#172755"/>
<rect x="202.871" y="310" width="66" height="52" fill="white"/>
<path d="M230.126 335.201H230.899C231.278 335.201 231.591 335.139 231.837 335.014C232.087 334.885 232.272 334.711 232.394 334.492C232.519 334.27 232.581 334.02 232.581 333.742C232.581 333.414 232.526 333.139 232.417 332.916C232.308 332.693 232.144 332.525 231.925 332.412C231.706 332.299 231.429 332.242 231.093 332.242C230.788 332.242 230.519 332.303 230.284 332.424C230.054 332.541 229.872 332.709 229.739 332.928C229.61 333.146 229.546 333.404 229.546 333.701H228.462C228.462 333.268 228.571 332.873 228.79 332.518C229.009 332.162 229.315 331.879 229.71 331.668C230.108 331.457 230.569 331.352 231.093 331.352C231.608 331.352 232.06 331.443 232.446 331.627C232.833 331.807 233.134 332.076 233.349 332.436C233.563 332.791 233.671 333.234 233.671 333.766C233.671 333.98 233.62 334.211 233.519 334.457C233.421 334.699 233.267 334.926 233.056 335.137C232.849 335.348 232.579 335.521 232.247 335.658C231.915 335.791 231.517 335.857 231.052 335.857H230.126V335.201ZM230.126 336.092V335.441H231.052C231.595 335.441 232.044 335.506 232.399 335.635C232.755 335.764 233.034 335.936 233.237 336.15C233.444 336.365 233.589 336.602 233.671 336.859C233.757 337.113 233.8 337.367 233.8 337.621C233.8 338.02 233.731 338.373 233.595 338.682C233.462 338.99 233.272 339.252 233.026 339.467C232.784 339.682 232.499 339.844 232.171 339.953C231.843 340.062 231.485 340.117 231.099 340.117C230.728 340.117 230.378 340.064 230.05 339.959C229.726 339.854 229.438 339.701 229.188 339.502C228.938 339.299 228.743 339.051 228.603 338.758C228.462 338.461 228.392 338.123 228.392 337.744H229.476C229.476 338.041 229.54 338.301 229.669 338.523C229.802 338.746 229.989 338.92 230.231 339.045C230.478 339.166 230.767 339.227 231.099 339.227C231.431 339.227 231.716 339.17 231.954 339.057C232.196 338.939 232.382 338.764 232.511 338.529C232.644 338.295 232.71 338 232.71 337.645C232.71 337.289 232.636 336.998 232.487 336.771C232.339 336.541 232.128 336.371 231.854 336.262C231.585 336.148 231.267 336.092 230.899 336.092H230.126ZM240.649 335.055V336.355C240.649 337.055 240.587 337.645 240.462 338.125C240.337 338.605 240.157 338.992 239.923 339.285C239.688 339.578 239.405 339.791 239.073 339.924C238.745 340.053 238.374 340.117 237.96 340.117C237.632 340.117 237.329 340.076 237.052 339.994C236.774 339.912 236.524 339.781 236.302 339.602C236.083 339.418 235.896 339.18 235.739 338.887C235.583 338.594 235.464 338.238 235.382 337.82C235.3 337.402 235.259 336.914 235.259 336.355V335.055C235.259 334.355 235.321 333.77 235.446 333.297C235.575 332.824 235.757 332.445 235.991 332.16C236.226 331.871 236.507 331.664 236.835 331.539C237.167 331.414 237.538 331.352 237.948 331.352C238.28 331.352 238.585 331.393 238.862 331.475C239.144 331.553 239.394 331.68 239.612 331.855C239.831 332.027 240.017 332.258 240.169 332.547C240.325 332.832 240.444 333.182 240.526 333.596C240.608 334.01 240.649 334.496 240.649 335.055ZM239.56 336.531V334.873C239.56 334.49 239.536 334.154 239.489 333.865C239.446 333.572 239.382 333.322 239.296 333.115C239.21 332.908 239.101 332.74 238.968 332.611C238.839 332.482 238.688 332.389 238.517 332.33C238.349 332.268 238.159 332.236 237.948 332.236C237.69 332.236 237.462 332.285 237.263 332.383C237.063 332.477 236.896 332.627 236.759 332.834C236.626 333.041 236.524 333.312 236.454 333.648C236.384 333.984 236.349 334.393 236.349 334.873V336.531C236.349 336.914 236.37 337.252 236.413 337.545C236.46 337.838 236.528 338.092 236.618 338.307C236.708 338.518 236.817 338.691 236.946 338.828C237.075 338.965 237.224 339.066 237.392 339.133C237.563 339.195 237.753 339.227 237.96 339.227C238.226 339.227 238.458 339.176 238.657 339.074C238.856 338.973 239.022 338.814 239.155 338.6C239.292 338.381 239.394 338.102 239.46 337.762C239.526 337.418 239.56 337.008 239.56 336.531Z" fill="#172755"/>
<rect x="268.871" y="310" width="66" height="52" fill="white"/>
<path d="M296.126 335.201H296.899C297.278 335.201 297.591 335.139 297.837 335.014C298.087 334.885 298.272 334.711 298.394 334.492C298.519 334.27 298.581 334.02 298.581 333.742C298.581 333.414 298.526 333.139 298.417 332.916C298.308 332.693 298.144 332.525 297.925 332.412C297.706 332.299 297.429 332.242 297.093 332.242C296.788 332.242 296.519 332.303 296.284 332.424C296.054 332.541 295.872 332.709 295.739 332.928C295.61 333.146 295.546 333.404 295.546 333.701H294.462C294.462 333.268 294.571 332.873 294.79 332.518C295.009 332.162 295.315 331.879 295.71 331.668C296.108 331.457 296.569 331.352 297.093 331.352C297.608 331.352 298.06 331.443 298.446 331.627C298.833 331.807 299.134 332.076 299.349 332.436C299.563 332.791 299.671 333.234 299.671 333.766C299.671 333.98 299.62 334.211 299.519 334.457C299.421 334.699 299.267 334.926 299.056 335.137C298.849 335.348 298.579 335.521 298.247 335.658C297.915 335.791 297.517 335.857 297.052 335.857H296.126V335.201ZM296.126 336.092V335.441H297.052C297.595 335.441 298.044 335.506 298.399 335.635C298.755 335.764 299.034 335.936 299.237 336.15C299.444 336.365 299.589 336.602 299.671 336.859C299.757 337.113 299.8 337.367 299.8 337.621C299.8 338.02 299.731 338.373 299.595 338.682C299.462 338.99 299.272 339.252 299.026 339.467C298.784 339.682 298.499 339.844 298.171 339.953C297.843 340.062 297.485 340.117 297.099 340.117C296.728 340.117 296.378 340.064 296.05 339.959C295.726 339.854 295.438 339.701 295.188 339.502C294.938 339.299 294.743 339.051 294.603 338.758C294.462 338.461 294.392 338.123 294.392 337.744H295.476C295.476 338.041 295.54 338.301 295.669 338.523C295.802 338.746 295.989 338.92 296.231 339.045C296.478 339.166 296.767 339.227 297.099 339.227C297.431 339.227 297.716 339.17 297.954 339.057C298.196 338.939 298.382 338.764 298.511 338.529C298.644 338.295 298.71 338 298.71 337.645C298.71 337.289 298.636 336.998 298.487 336.771C298.339 336.541 298.128 336.371 297.854 336.262C297.585 336.148 297.267 336.092 296.899 336.092H296.126ZM304.856 331.422V340H303.772V332.775L301.587 333.572V332.594L304.687 331.422H304.856Z" fill="#172755"/>
<rect x="334.871" y="310" width="66" height="52" fill="white"/>
<rect x="400.871" y="310" width="66" height="52" fill="white"/>
<rect x="466.871" y="310" width="66" height="52" fill="white"/>
<path d="M89.5659 61.4688H90.6616L93.4565 68.4238L96.2456 61.4688H97.3472L93.8784 70H93.0229L89.5659 61.4688ZM89.2085 61.4688H90.1753L90.3335 66.6719V70H89.2085V61.4688ZM96.7319 61.4688H97.6987V70H96.5737V66.6719L96.7319 61.4688ZM106.253 65.4648V66.0039C106.253 66.6445 106.173 67.2188 106.013 67.7266C105.853 68.2344 105.623 68.666 105.322 69.0215C105.021 69.377 104.66 69.6484 104.238 69.8359C103.82 70.0234 103.351 70.1172 102.832 70.1172C102.328 70.1172 101.865 70.0234 101.443 69.8359C101.025 69.6484 100.662 69.377 100.353 69.0215C100.048 68.666 99.812 68.2344 99.644 67.7266C99.4761 67.2188 99.3921 66.6445 99.3921 66.0039V65.4648C99.3921 64.8242 99.4741 64.252 99.6382 63.748C99.8062 63.2402 100.042 62.8086 100.347 62.4531C100.652 62.0938 101.013 61.8203 101.431 61.6328C101.853 61.4453 102.316 61.3516 102.82 61.3516C103.339 61.3516 103.808 61.4453 104.226 61.6328C104.648 61.8203 105.009 62.0938 105.31 62.4531C105.615 62.8086 105.847 63.2402 106.007 63.748C106.171 64.252 106.253 64.8242 106.253 65.4648ZM105.134 66.0039V65.4531C105.134 64.9453 105.082 64.4961 104.976 64.1055C104.875 63.7148 104.724 63.3867 104.525 63.1211C104.326 62.8555 104.082 62.6543 103.792 62.5176C103.507 62.3809 103.183 62.3125 102.82 62.3125C102.468 62.3125 102.15 62.3809 101.865 62.5176C101.583 62.6543 101.341 62.8555 101.138 63.1211C100.939 63.3867 100.785 63.7148 100.675 64.1055C100.566 64.4961 100.511 64.9453 100.511 65.4531V66.0039C100.511 66.5156 100.566 66.9688 100.675 67.3633C100.785 67.7539 100.941 68.084 101.144 68.3535C101.351 68.6191 101.595 68.8203 101.876 68.957C102.162 69.0938 102.48 69.1621 102.832 69.1621C103.199 69.1621 103.525 69.0938 103.81 68.957C104.095 68.8203 104.335 68.6191 104.531 68.3535C104.73 68.084 104.88 67.7539 104.982 67.3633C105.083 66.9688 105.134 66.5156 105.134 66.0039ZM114.509 61.4688V70H113.373L109.078 63.4199V70H107.947V61.4688H109.078L113.39 68.0664V61.4688H114.509Z" fill="#8794BA"/>
<path d="M161.132 61.4688V70H160.019V61.4688H161.132ZM163.875 61.4688V62.3945H157.283V61.4688H163.875ZM170.021 61.4688H171.146V67.2402C171.146 67.8809 171.003 68.4141 170.718 68.8398C170.433 69.2656 170.054 69.5859 169.582 69.8008C169.113 70.0117 168.603 70.1172 168.052 70.1172C167.474 70.1172 166.951 70.0117 166.482 69.8008C166.017 69.5859 165.648 69.2656 165.375 68.8398C165.105 68.4141 164.97 67.8809 164.97 67.2402V61.4688H166.089V67.2402C166.089 67.6855 166.171 68.0527 166.335 68.3418C166.5 68.6309 166.728 68.8457 167.021 68.9863C167.318 69.127 167.662 69.1973 168.052 69.1973C168.447 69.1973 168.791 69.127 169.083 68.9863C169.38 68.8457 169.611 68.6309 169.775 68.3418C169.939 68.0527 170.021 67.6855 170.021 67.2402V61.4688ZM178.341 69.0801V70H173.824V69.0801H178.341ZM174.052 61.4688V70H172.921V61.4688H174.052ZM177.744 65.1367V66.0566H173.824V65.1367H177.744ZM178.283 61.4688V62.3945H173.824V61.4688H178.283Z" fill="#8794BA"/>
<path d="M224.431 67.4219L226.125 61.4688H226.945L226.47 63.7832L224.648 70H223.833L224.431 67.4219ZM222.679 61.4688L224.027 67.3047L224.431 70H223.623L221.554 61.4688H222.679ZM229.136 67.2988L230.455 61.4688H231.585L229.523 70H228.714L229.136 67.2988ZM227.068 61.4688L228.714 67.4219L229.312 70H228.498L226.74 63.7832L226.259 61.4688H227.068ZM238.259 69.0801V70H233.742V69.0801H238.259ZM233.97 61.4688V70H232.839V61.4688H233.97ZM237.662 65.1367V66.0566H233.742V65.1367H237.662ZM238.201 61.4688V62.3945H233.742V61.4688H238.201ZM241.968 70H240.187L240.199 69.0801H241.968C242.578 69.0801 243.085 68.9531 243.492 68.6992C243.898 68.4414 244.203 68.082 244.406 67.6211C244.613 67.1562 244.716 66.6133 244.716 65.9922V65.4707C244.716 64.9824 244.658 64.5488 244.541 64.1699C244.423 63.7871 244.251 63.4648 244.025 63.2031C243.798 62.9375 243.521 62.7363 243.193 62.5996C242.869 62.4629 242.496 62.3945 242.074 62.3945H240.152V61.4688H242.074C242.632 61.4688 243.142 61.5625 243.603 61.75C244.064 61.9336 244.46 62.2012 244.792 62.5527C245.128 62.9004 245.386 63.3223 245.566 63.8184C245.746 64.3105 245.835 64.8652 245.835 65.4824V65.9922C245.835 66.6094 245.746 67.166 245.566 67.6621C245.386 68.1543 245.126 68.5742 244.787 68.9219C244.451 69.2695 244.044 69.5371 243.568 69.7246C243.095 69.9082 242.562 70 241.968 70ZM240.791 61.4688V70H239.66V61.4688H240.791Z" fill="#8794BA"/>
<path d="M292.259 61.4688V70H291.146V61.4688H292.259ZM295.001 61.4688V62.3945H288.41V61.4688H295.001ZM301.839 65.1367V66.0566H297.222V65.1367H301.839ZM297.398 61.4688V70H296.267V61.4688H297.398ZM302.824 61.4688V70H301.699V61.4688H302.824ZM309.714 61.4688H310.839V67.2402C310.839 67.8809 310.697 68.4141 310.412 68.8398C310.126 69.2656 309.748 69.5859 309.275 69.8008C308.806 70.0117 308.296 70.1172 307.746 70.1172C307.167 70.1172 306.644 70.0117 306.175 69.8008C305.71 69.5859 305.341 69.2656 305.068 68.8398C304.798 68.4141 304.664 67.8809 304.664 67.2402V61.4688H305.783V67.2402C305.783 67.6855 305.865 68.0527 306.029 68.3418C306.193 68.6309 306.421 68.8457 306.714 68.9863C307.011 69.127 307.355 69.1973 307.746 69.1973C308.14 69.1973 308.484 69.127 308.777 68.9863C309.074 68.8457 309.304 68.6309 309.468 68.3418C309.632 68.0527 309.714 67.6855 309.714 67.2402V61.4688Z" fill="#8794BA"/>
<path d="M359.343 61.4688V70H358.212V61.4688H359.343ZM362.917 65.3066V66.2324H359.097V65.3066H362.917ZM363.498 61.4688V62.3945H359.097V61.4688H363.498ZM364.845 61.4688H367.669C368.31 61.4688 368.851 61.5664 369.292 61.7617C369.738 61.957 370.076 62.2461 370.306 62.6289C370.541 63.0078 370.658 63.4746 370.658 64.0293C370.658 64.4199 370.578 64.7773 370.417 65.1016C370.261 65.4219 370.035 65.6953 369.738 65.9219C369.445 66.1445 369.093 66.3105 368.683 66.4199L368.367 66.543H365.712L365.701 65.623H367.705C368.111 65.623 368.449 65.5527 368.718 65.4121C368.988 65.2676 369.191 65.0742 369.328 64.832C369.464 64.5898 369.533 64.3223 369.533 64.0293C369.533 63.7012 369.468 63.4141 369.339 63.168C369.21 62.9219 369.007 62.7324 368.73 62.5996C368.457 62.4629 368.103 62.3945 367.669 62.3945H365.976V70H364.845V61.4688ZM369.832 70L367.757 66.1328L368.935 66.127L371.039 69.9297V70H369.832ZM373.453 61.4688V70H372.322V61.4688H373.453Z" fill="#8794BA"/>
<path d="M426.732 67.8438C426.732 67.6445 426.701 67.4688 426.638 67.3164C426.58 67.1602 426.474 67.0195 426.322 66.8945C426.173 66.7695 425.966 66.6504 425.701 66.5371C425.439 66.4238 425.107 66.3086 424.705 66.1914C424.283 66.0664 423.902 65.9277 423.562 65.7754C423.222 65.6191 422.931 65.4414 422.689 65.2422C422.447 65.043 422.261 64.8145 422.132 64.5566C422.003 64.2988 421.939 64.0039 421.939 63.6719C421.939 63.3398 422.007 63.0332 422.144 62.752C422.281 62.4707 422.476 62.2266 422.73 62.0195C422.988 61.8086 423.294 61.6445 423.65 61.5273C424.005 61.4102 424.402 61.3516 424.839 61.3516C425.48 61.3516 426.023 61.4746 426.468 61.7207C426.917 61.9629 427.259 62.2812 427.494 62.6758C427.728 63.0664 427.845 63.4844 427.845 63.9297H426.72C426.72 63.6094 426.652 63.3262 426.515 63.0801C426.378 62.8301 426.171 62.6348 425.894 62.4941C425.617 62.3496 425.265 62.2773 424.839 62.2773C424.437 62.2773 424.105 62.3379 423.843 62.459C423.582 62.5801 423.386 62.7441 423.257 62.9512C423.132 63.1582 423.07 63.3945 423.07 63.6602C423.07 63.8398 423.107 64.0039 423.181 64.1523C423.259 64.2969 423.378 64.4316 423.539 64.5566C423.703 64.6816 423.91 64.7969 424.16 64.9023C424.414 65.0078 424.716 65.1094 425.068 65.207C425.552 65.3438 425.97 65.4961 426.322 65.6641C426.673 65.832 426.962 66.0215 427.189 66.2324C427.419 66.4395 427.589 66.6758 427.699 66.9414C427.812 67.2031 427.869 67.5 427.869 67.832C427.869 68.1797 427.798 68.4941 427.658 68.7754C427.517 69.0566 427.316 69.2969 427.054 69.4961C426.792 69.6953 426.478 69.8496 426.111 69.959C425.748 70.0645 425.341 70.1172 424.892 70.1172C424.498 70.1172 424.109 70.0625 423.726 69.9531C423.347 69.8438 423.001 69.6797 422.689 69.4609C422.38 69.2422 422.132 68.9727 421.945 68.6523C421.761 68.3281 421.669 67.9531 421.669 67.5273H422.794C422.794 67.8203 422.851 68.0723 422.964 68.2832C423.078 68.4902 423.232 68.6621 423.427 68.7988C423.626 68.9355 423.851 69.0371 424.101 69.1035C424.355 69.166 424.619 69.1973 424.892 69.1973C425.287 69.1973 425.621 69.1426 425.894 69.0332C426.167 68.9238 426.375 68.7676 426.515 68.5645C426.66 68.3613 426.732 68.1211 426.732 67.8438ZM432.468 62.2246L429.644 70H428.49L431.742 61.4688H432.486L432.468 62.2246ZM434.835 70L432.005 62.2246L431.988 61.4688H432.732L435.996 70H434.835ZM434.689 66.8418V67.7676H429.896V66.8418H434.689ZM439.529 61.4688V70H438.416V61.4688H439.529ZM442.271 61.4688V62.3945H435.679V61.4688H442.271Z" fill="#8794BA"/>
<path d="M491.671 67.8438C491.671 67.6445 491.64 67.4688 491.578 67.3164C491.519 67.1602 491.414 67.0195 491.261 66.8945C491.113 66.7695 490.906 66.6504 490.64 66.5371C490.378 66.4238 490.046 66.3086 489.644 66.1914C489.222 66.0664 488.841 65.9277 488.501 65.7754C488.162 65.6191 487.871 65.4414 487.628 65.2422C487.386 65.043 487.201 64.8145 487.072 64.5566C486.943 64.2988 486.878 64.0039 486.878 63.6719C486.878 63.3398 486.947 63.0332 487.083 62.752C487.22 62.4707 487.416 62.2266 487.669 62.0195C487.927 61.8086 488.234 61.6445 488.589 61.5273C488.945 61.4102 489.341 61.3516 489.779 61.3516C490.419 61.3516 490.962 61.4746 491.408 61.7207C491.857 61.9629 492.199 62.2812 492.433 62.6758C492.667 63.0664 492.785 63.4844 492.785 63.9297H491.66C491.66 63.6094 491.591 63.3262 491.455 63.0801C491.318 62.8301 491.111 62.6348 490.833 62.4941C490.556 62.3496 490.205 62.2773 489.779 62.2773C489.376 62.2773 489.044 62.3379 488.783 62.459C488.521 62.5801 488.326 62.7441 488.197 62.9512C488.072 63.1582 488.009 63.3945 488.009 63.6602C488.009 63.8398 488.046 64.0039 488.121 64.1523C488.199 64.2969 488.318 64.4316 488.478 64.5566C488.642 64.6816 488.849 64.7969 489.099 64.9023C489.353 65.0078 489.656 65.1094 490.007 65.207C490.492 65.3438 490.91 65.4961 491.261 65.6641C491.613 65.832 491.902 66.0215 492.128 66.2324C492.359 66.4395 492.529 66.6758 492.638 66.9414C492.751 67.2031 492.808 67.5 492.808 67.832C492.808 68.1797 492.738 68.4941 492.597 68.7754C492.457 69.0566 492.255 69.2969 491.994 69.4961C491.732 69.6953 491.417 69.8496 491.05 69.959C490.687 70.0645 490.281 70.1172 489.832 70.1172C489.437 70.1172 489.048 70.0625 488.666 69.9531C488.287 69.8438 487.941 69.6797 487.628 69.4609C487.32 69.2422 487.072 68.9727 486.884 68.6523C486.701 68.3281 486.609 67.9531 486.609 67.5273H487.734C487.734 67.8203 487.791 68.0723 487.904 68.2832C488.017 68.4902 488.171 68.6621 488.367 68.7988C488.566 68.9355 488.791 69.0371 489.041 69.1035C489.294 69.166 489.558 69.1973 489.832 69.1973C490.226 69.1973 490.56 69.1426 490.833 69.0332C491.107 68.9238 491.314 68.7676 491.455 68.5645C491.599 68.3613 491.671 68.1211 491.671 67.8438ZM499.13 61.4688H500.255V67.2402C500.255 67.8809 500.113 68.4141 499.828 68.8398C499.542 69.2656 499.164 69.5859 498.691 69.8008C498.222 70.0117 497.712 70.1172 497.162 70.1172C496.583 70.1172 496.06 70.0117 495.591 69.8008C495.126 69.5859 494.757 69.2656 494.484 68.8398C494.214 68.4141 494.08 67.8809 494.08 67.2402V61.4688H495.199V67.2402C495.199 67.6855 495.281 68.0527 495.445 68.3418C495.609 68.6309 495.837 68.8457 496.13 68.9863C496.427 69.127 496.771 69.1973 497.162 69.1973C497.556 69.1973 497.9 69.127 498.193 68.9863C498.49 68.8457 498.72 68.6309 498.884 68.3418C499.048 68.0527 499.13 67.6855 499.13 67.2402V61.4688ZM508.593 61.4688V70H507.457L503.162 63.4199V70H502.031V61.4688H503.162L507.474 68.0664V61.4688H508.593Z" fill="#8794BA"/>
</svg>
