<svg width="601" height="410" viewBox="0 0 601 410" fill="none" xmlns="http://www.w3.org/2000/svg">
<rect x="0.870605" width="600" height="410" rx="30" fill="white"/>
<rect x="99.8706" y="72" width="1" height="271" fill="#EEEEF7"/>
<rect x="162.871" y="72" width="1" height="271" fill="#EEEEF7"/>
<rect x="225.871" y="72" width="1" height="271" fill="#EEEEF7"/>
<rect x="288.871" y="72" width="1" height="271" fill="#EEEEF7"/>
<rect x="351.871" y="72" width="1" height="271" fill="#EEEEF7"/>
<rect x="414.871" y="72" width="1" height="271" fill="#EEEEF7"/>
<rect x="477.871" y="72" width="1" height="271" fill="#EEEEF7"/>
<rect x="540.871" y="72" width="1" height="271" fill="#EEEEF7"/>
<path d="M60.6343 92.9395L59.7671 92.7168L60.1948 88.4688H64.5718V89.4707H61.1147L60.8569 91.791C61.0132 91.7012 61.2104 91.6172 61.4487 91.5391C61.6909 91.4609 61.9683 91.4219 62.2808 91.4219C62.6753 91.4219 63.0288 91.4902 63.3413 91.627C63.6538 91.7598 63.9194 91.9512 64.1382 92.2012C64.3608 92.4512 64.5308 92.752 64.6479 93.1035C64.7651 93.4551 64.8237 93.8477 64.8237 94.2812C64.8237 94.6914 64.7671 95.0684 64.6538 95.4121C64.5444 95.7559 64.3784 96.0566 64.1558 96.3145C63.9331 96.5684 63.6519 96.7656 63.312 96.9062C62.9761 97.0469 62.5796 97.1172 62.1226 97.1172C61.7788 97.1172 61.4526 97.0703 61.144 96.9766C60.8394 96.8789 60.5659 96.7324 60.3237 96.5371C60.0854 96.3379 59.8901 96.0918 59.7378 95.7988C59.5894 95.502 59.4956 95.1543 59.4565 94.7559H60.4878C60.5347 95.0762 60.6284 95.3457 60.769 95.5645C60.9097 95.7832 61.0933 95.9492 61.3198 96.0625C61.5503 96.1719 61.8179 96.2266 62.1226 96.2266C62.3804 96.2266 62.6089 96.1816 62.8081 96.0918C63.0073 96.002 63.1753 95.873 63.312 95.7051C63.4487 95.5371 63.5522 95.334 63.6226 95.0957C63.6968 94.8574 63.7339 94.5898 63.7339 94.293C63.7339 94.0234 63.6968 93.7734 63.6226 93.543C63.5483 93.3125 63.437 93.1113 63.2886 92.9395C63.144 92.7676 62.9663 92.6348 62.7554 92.541C62.5444 92.4434 62.3022 92.3945 62.0288 92.3945C61.6655 92.3945 61.3901 92.4434 61.2026 92.541C61.019 92.6387 60.8296 92.7715 60.6343 92.9395ZM71.7788 94.1289V95.0195H65.6147V94.3809L69.4351 88.4688H70.3198L69.3706 90.1797L66.8452 94.1289H71.7788ZM70.5894 88.4688V97H69.5054V88.4688H70.5894ZM75.1362 92.9277V93.8184H72.2769V92.9277H75.1362ZM80.2397 88.457H80.3335V89.377H80.2397C79.6655 89.377 79.1851 89.4707 78.7983 89.6582C78.4116 89.8418 78.105 90.0898 77.8784 90.4023C77.6519 90.7109 77.4878 91.0586 77.3862 91.4453C77.2886 91.832 77.2397 92.2246 77.2397 92.623V93.877C77.2397 94.2559 77.2847 94.5918 77.3745 94.8848C77.4644 95.1738 77.5874 95.418 77.7437 95.6172C77.8999 95.8164 78.0757 95.9668 78.271 96.0684C78.4702 96.1699 78.6772 96.2207 78.8921 96.2207C79.1421 96.2207 79.3647 96.1738 79.5601 96.0801C79.7554 95.9824 79.9194 95.8477 80.0522 95.6758C80.189 95.5 80.2925 95.293 80.3628 95.0547C80.4331 94.8164 80.4683 94.5547 80.4683 94.2695C80.4683 94.0156 80.437 93.7715 80.3745 93.5371C80.312 93.2988 80.2163 93.0879 80.0874 92.9043C79.9585 92.7168 79.7964 92.5703 79.6011 92.4648C79.4097 92.3555 79.1812 92.3008 78.9155 92.3008C78.6147 92.3008 78.3335 92.375 78.0718 92.5234C77.814 92.668 77.6011 92.8594 77.4331 93.0977C77.269 93.332 77.1753 93.5879 77.1519 93.8652L76.5776 93.8594C76.6323 93.4219 76.7339 93.0488 76.8823 92.7402C77.0347 92.4277 77.2222 92.1738 77.4448 91.9785C77.6714 91.7793 77.9233 91.6348 78.2007 91.5449C78.4819 91.4512 78.7788 91.4043 79.0913 91.4043C79.5171 91.4043 79.8843 91.4844 80.1929 91.6445C80.5015 91.8047 80.7554 92.0195 80.9546 92.2891C81.1538 92.5547 81.3003 92.8555 81.394 93.1914C81.4917 93.5234 81.5405 93.8652 81.5405 94.2168C81.5405 94.6191 81.4839 94.9961 81.3706 95.3477C81.2573 95.6992 81.0874 96.0078 80.8608 96.2734C80.6382 96.5391 80.3628 96.7461 80.0347 96.8945C79.7065 97.043 79.3257 97.1172 78.8921 97.1172C78.4312 97.1172 78.0288 97.0234 77.6851 96.8359C77.3413 96.6445 77.0562 96.3906 76.8296 96.0742C76.603 95.7578 76.4331 95.4062 76.3198 95.0195C76.2065 94.6328 76.1499 94.2402 76.1499 93.8418V93.332C76.1499 92.7305 76.2104 92.1406 76.3315 91.5625C76.4526 90.9844 76.6616 90.4609 76.9585 89.9922C77.2593 89.5234 77.6753 89.1504 78.2065 88.873C78.7378 88.5957 79.4155 88.457 80.2397 88.457ZM84.2007 92.9395L83.3335 92.7168L83.7612 88.4688H88.1382V89.4707H84.6812L84.4233 91.791C84.5796 91.7012 84.7769 91.6172 85.0151 91.5391C85.2573 91.4609 85.5347 91.4219 85.8472 91.4219C86.2417 91.4219 86.5952 91.4902 86.9077 91.627C87.2202 91.7598 87.4858 91.9512 87.7046 92.2012C87.9272 92.4512 88.0972 92.752 88.2144 93.1035C88.3315 93.4551 88.3901 93.8477 88.3901 94.2812C88.3901 94.6914 88.3335 95.0684 88.2202 95.4121C88.1108 95.7559 87.9448 96.0566 87.7222 96.3145C87.4995 96.5684 87.2183 96.7656 86.8784 96.9062C86.5425 97.0469 86.146 97.1172 85.689 97.1172C85.3452 97.1172 85.019 97.0703 84.7104 96.9766C84.4058 96.8789 84.1323 96.7324 83.8901 96.5371C83.6519 96.3379 83.4565 96.0918 83.3042 95.7988C83.1558 95.502 83.062 95.1543 83.0229 94.7559H84.0542C84.1011 95.0762 84.1948 95.3457 84.3354 95.5645C84.4761 95.7832 84.6597 95.9492 84.8862 96.0625C85.1167 96.1719 85.3843 96.2266 85.689 96.2266C85.9468 96.2266 86.1753 96.1816 86.3745 96.0918C86.5737 96.002 86.7417 95.873 86.8784 95.7051C87.0151 95.5371 87.1187 95.334 87.189 95.0957C87.2632 94.8574 87.3003 94.5898 87.3003 94.293C87.3003 94.0234 87.2632 93.7734 87.189 93.543C87.1147 93.3125 87.0034 93.1113 86.855 92.9395C86.7104 92.7676 86.5327 92.6348 86.3218 92.541C86.1108 92.4434 85.8687 92.3945 85.5952 92.3945C85.2319 92.3945 84.9565 92.4434 84.769 92.541C84.5854 92.6387 84.396 92.7715 84.2007 92.9395Z" fill="#8794BA"/>
<path d="M65.0288 150.129V151.02H58.8647V150.381L62.6851 144.469H63.5698L62.6206 146.18L60.0952 150.129H65.0288ZM63.8394 144.469V153H62.7554V144.469H63.8394ZM67.3843 148.939L66.5171 148.717L66.9448 144.469H71.3218V145.471H67.8647L67.6069 147.791C67.7632 147.701 67.9604 147.617 68.1987 147.539C68.4409 147.461 68.7183 147.422 69.0308 147.422C69.4253 147.422 69.7788 147.49 70.0913 147.627C70.4038 147.76 70.6694 147.951 70.8882 148.201C71.1108 148.451 71.2808 148.752 71.3979 149.104C71.5151 149.455 71.5737 149.848 71.5737 150.281C71.5737 150.691 71.5171 151.068 71.4038 151.412C71.2944 151.756 71.1284 152.057 70.9058 152.314C70.6831 152.568 70.4019 152.766 70.062 152.906C69.7261 153.047 69.3296 153.117 68.8726 153.117C68.5288 153.117 68.2026 153.07 67.894 152.977C67.5894 152.879 67.3159 152.732 67.0737 152.537C66.8354 152.338 66.6401 152.092 66.4878 151.799C66.3394 151.502 66.2456 151.154 66.2065 150.756H67.2378C67.2847 151.076 67.3784 151.346 67.519 151.564C67.6597 151.783 67.8433 151.949 68.0698 152.062C68.3003 152.172 68.5679 152.227 68.8726 152.227C69.1304 152.227 69.3589 152.182 69.5581 152.092C69.7573 152.002 69.9253 151.873 70.062 151.705C70.1987 151.537 70.3022 151.334 70.3726 151.096C70.4468 150.857 70.4839 150.59 70.4839 150.293C70.4839 150.023 70.4468 149.773 70.3726 149.543C70.2983 149.312 70.187 149.111 70.0386 148.939C69.894 148.768 69.7163 148.635 69.5054 148.541C69.2944 148.443 69.0522 148.395 68.7788 148.395C68.4155 148.395 68.1401 148.443 67.9526 148.541C67.769 148.639 67.5796 148.771 67.3843 148.939ZM75.1362 148.928V149.818H72.2769V148.928H75.1362ZM77.4507 148.939L76.5835 148.717L77.0112 144.469H81.3882V145.471H77.9312L77.6733 147.791C77.8296 147.701 78.0269 147.617 78.2651 147.539C78.5073 147.461 78.7847 147.422 79.0972 147.422C79.4917 147.422 79.8452 147.49 80.1577 147.627C80.4702 147.76 80.7358 147.951 80.9546 148.201C81.1772 148.451 81.3472 148.752 81.4644 149.104C81.5815 149.455 81.6401 149.848 81.6401 150.281C81.6401 150.691 81.5835 151.068 81.4702 151.412C81.3608 151.756 81.1948 152.057 80.9722 152.314C80.7495 152.568 80.4683 152.766 80.1284 152.906C79.7925 153.047 79.396 153.117 78.939 153.117C78.5952 153.117 78.269 153.07 77.9604 152.977C77.6558 152.879 77.3823 152.732 77.1401 152.537C76.9019 152.338 76.7065 152.092 76.5542 151.799C76.4058 151.502 76.312 151.154 76.2729 150.756H77.3042C77.3511 151.076 77.4448 151.346 77.5854 151.564C77.7261 151.783 77.9097 151.949 78.1362 152.062C78.3667 152.172 78.6343 152.227 78.939 152.227C79.1968 152.227 79.4253 152.182 79.6245 152.092C79.8237 152.002 79.9917 151.873 80.1284 151.705C80.2651 151.537 80.3687 151.334 80.439 151.096C80.5132 150.857 80.5503 150.59 80.5503 150.293C80.5503 150.023 80.5132 149.773 80.439 149.543C80.3647 149.312 80.2534 149.111 80.105 148.939C79.9604 148.768 79.7827 148.635 79.5718 148.541C79.3608 148.443 79.1187 148.395 78.8452 148.395C78.4819 148.395 78.2065 148.443 78.019 148.541C77.8354 148.639 77.646 148.771 77.4507 148.939ZM88.5952 150.129V151.02H82.4312V150.381L86.2515 144.469H87.1362L86.187 146.18L83.6616 150.129H88.5952ZM87.4058 144.469V153H86.3218V144.469H87.4058Z" fill="#8794BA"/>
<path d="M60.8452 204.201H61.6187C61.9976 204.201 62.3101 204.139 62.5562 204.014C62.8062 203.885 62.9917 203.711 63.1128 203.492C63.2378 203.27 63.3003 203.02 63.3003 202.742C63.3003 202.414 63.2456 202.139 63.1362 201.916C63.0269 201.693 62.8628 201.525 62.644 201.412C62.4253 201.299 62.1479 201.242 61.812 201.242C61.5073 201.242 61.2378 201.303 61.0034 201.424C60.7729 201.541 60.5913 201.709 60.4585 201.928C60.3296 202.146 60.2651 202.404 60.2651 202.701H59.1812C59.1812 202.268 59.2905 201.873 59.5093 201.518C59.728 201.162 60.0347 200.879 60.4292 200.668C60.8276 200.457 61.2886 200.352 61.812 200.352C62.3276 200.352 62.7788 200.443 63.1655 200.627C63.5522 200.807 63.853 201.076 64.0679 201.436C64.2827 201.791 64.3901 202.234 64.3901 202.766C64.3901 202.98 64.3394 203.211 64.2378 203.457C64.1401 203.699 63.9858 203.926 63.7749 204.137C63.5679 204.348 63.2983 204.521 62.9663 204.658C62.6343 204.791 62.2358 204.857 61.771 204.857H60.8452V204.201ZM60.8452 205.092V204.441H61.771C62.314 204.441 62.7632 204.506 63.1187 204.635C63.4741 204.764 63.7534 204.936 63.9565 205.15C64.1636 205.365 64.3081 205.602 64.3901 205.859C64.4761 206.113 64.519 206.367 64.519 206.621C64.519 207.02 64.4507 207.373 64.314 207.682C64.1812 207.99 63.9917 208.252 63.7456 208.467C63.5034 208.682 63.2183 208.844 62.8901 208.953C62.562 209.062 62.2046 209.117 61.8179 209.117C61.4468 209.117 61.0972 209.064 60.769 208.959C60.4448 208.854 60.1577 208.701 59.9077 208.502C59.6577 208.299 59.4624 208.051 59.3218 207.758C59.1812 207.461 59.1108 207.123 59.1108 206.744H60.1948C60.1948 207.041 60.2593 207.301 60.3882 207.523C60.521 207.746 60.7085 207.92 60.9507 208.045C61.1968 208.166 61.4858 208.227 61.8179 208.227C62.1499 208.227 62.4351 208.17 62.6733 208.057C62.9155 207.939 63.1011 207.764 63.23 207.529C63.3628 207.295 63.4292 207 63.4292 206.645C63.4292 206.289 63.355 205.998 63.2065 205.771C63.0581 205.541 62.8472 205.371 62.5737 205.262C62.3042 205.148 61.9858 205.092 61.6187 205.092H60.8452ZM67.3843 204.939L66.5171 204.717L66.9448 200.469H71.3218V201.471H67.8647L67.6069 203.791C67.7632 203.701 67.9604 203.617 68.1987 203.539C68.4409 203.461 68.7183 203.422 69.0308 203.422C69.4253 203.422 69.7788 203.49 70.0913 203.627C70.4038 203.76 70.6694 203.951 70.8882 204.201C71.1108 204.451 71.2808 204.752 71.3979 205.104C71.5151 205.455 71.5737 205.848 71.5737 206.281C71.5737 206.691 71.5171 207.068 71.4038 207.412C71.2944 207.756 71.1284 208.057 70.9058 208.314C70.6831 208.568 70.4019 208.766 70.062 208.906C69.7261 209.047 69.3296 209.117 68.8726 209.117C68.5288 209.117 68.2026 209.07 67.894 208.977C67.5894 208.879 67.3159 208.732 67.0737 208.537C66.8354 208.338 66.6401 208.092 66.4878 207.799C66.3394 207.502 66.2456 207.154 66.2065 206.756H67.2378C67.2847 207.076 67.3784 207.346 67.519 207.564C67.6597 207.783 67.8433 207.949 68.0698 208.062C68.3003 208.172 68.5679 208.227 68.8726 208.227C69.1304 208.227 69.3589 208.182 69.5581 208.092C69.7573 208.002 69.9253 207.873 70.062 207.705C70.1987 207.537 70.3022 207.334 70.3726 207.096C70.4468 206.857 70.4839 206.59 70.4839 206.293C70.4839 206.023 70.4468 205.773 70.3726 205.543C70.2983 205.312 70.187 205.111 70.0386 204.939C69.894 204.768 69.7163 204.635 69.5054 204.541C69.2944 204.443 69.0522 204.395 68.7788 204.395C68.4155 204.395 68.1401 204.443 67.9526 204.541C67.769 204.639 67.5796 204.771 67.3843 204.939ZM75.1362 204.928V205.818H72.2769V204.928H75.1362ZM81.8452 206.129V207.02H75.6812V206.381L79.5015 200.469H80.3862L79.437 202.18L76.9116 206.129H81.8452ZM80.6558 200.469V209H79.5718V200.469H80.6558ZM88.5952 206.129V207.02H82.4312V206.381L86.2515 200.469H87.1362L86.187 202.18L83.6616 206.129H88.5952ZM87.4058 200.469V209H86.3218V200.469H87.4058Z" fill="#8794BA"/>
<path d="M64.853 264.109V265H59.269V264.221L62.064 261.109C62.4077 260.727 62.6733 260.402 62.8608 260.137C63.0522 259.867 63.1851 259.627 63.2593 259.416C63.3374 259.201 63.3765 258.982 63.3765 258.76C63.3765 258.479 63.3179 258.225 63.2007 257.998C63.0874 257.768 62.9194 257.584 62.6968 257.447C62.4741 257.311 62.2046 257.242 61.8882 257.242C61.5093 257.242 61.1929 257.316 60.939 257.465C60.689 257.609 60.5015 257.812 60.3765 258.074C60.2515 258.336 60.189 258.637 60.189 258.977H59.105C59.105 258.496 59.2104 258.057 59.4214 257.658C59.6323 257.26 59.9448 256.943 60.3589 256.709C60.7729 256.471 61.2827 256.352 61.8882 256.352C62.4272 256.352 62.8882 256.447 63.271 256.639C63.6538 256.826 63.9468 257.092 64.1499 257.436C64.3569 257.775 64.4604 258.174 64.4604 258.631C64.4604 258.881 64.4175 259.135 64.3315 259.393C64.2495 259.646 64.1343 259.9 63.9858 260.154C63.8413 260.408 63.6714 260.658 63.4761 260.904C63.2847 261.15 63.0796 261.393 62.8608 261.631L60.5757 264.109H64.853ZM67.3843 260.939L66.5171 260.717L66.9448 256.469H71.3218V257.471H67.8647L67.6069 259.791C67.7632 259.701 67.9604 259.617 68.1987 259.539C68.4409 259.461 68.7183 259.422 69.0308 259.422C69.4253 259.422 69.7788 259.49 70.0913 259.627C70.4038 259.76 70.6694 259.951 70.8882 260.201C71.1108 260.451 71.2808 260.752 71.3979 261.104C71.5151 261.455 71.5737 261.848 71.5737 262.281C71.5737 262.691 71.5171 263.068 71.4038 263.412C71.2944 263.756 71.1284 264.057 70.9058 264.314C70.6831 264.568 70.4019 264.766 70.062 264.906C69.7261 265.047 69.3296 265.117 68.8726 265.117C68.5288 265.117 68.2026 265.07 67.894 264.977C67.5894 264.879 67.3159 264.732 67.0737 264.537C66.8354 264.338 66.6401 264.092 66.4878 263.799C66.3394 263.502 66.2456 263.154 66.2065 262.756H67.2378C67.2847 263.076 67.3784 263.346 67.519 263.564C67.6597 263.783 67.8433 263.949 68.0698 264.062C68.3003 264.172 68.5679 264.227 68.8726 264.227C69.1304 264.227 69.3589 264.182 69.5581 264.092C69.7573 264.002 69.9253 263.873 70.062 263.705C70.1987 263.537 70.3022 263.334 70.3726 263.096C70.4468 262.857 70.4839 262.59 70.4839 262.293C70.4839 262.023 70.4468 261.773 70.3726 261.543C70.2983 261.312 70.187 261.111 70.0386 260.939C69.894 260.768 69.7163 260.635 69.5054 260.541C69.2944 260.443 69.0522 260.395 68.7788 260.395C68.4155 260.395 68.1401 260.443 67.9526 260.541C67.769 260.639 67.5796 260.771 67.3843 260.939ZM75.1362 260.928V261.818H72.2769V260.928H75.1362ZM77.6616 260.201H78.4351C78.814 260.201 79.1265 260.139 79.3726 260.014C79.6226 259.885 79.8081 259.711 79.9292 259.492C80.0542 259.27 80.1167 259.02 80.1167 258.742C80.1167 258.414 80.062 258.139 79.9526 257.916C79.8433 257.693 79.6792 257.525 79.4604 257.412C79.2417 257.299 78.9644 257.242 78.6284 257.242C78.3237 257.242 78.0542 257.303 77.8198 257.424C77.5894 257.541 77.4077 257.709 77.2749 257.928C77.146 258.146 77.0815 258.404 77.0815 258.701H75.9976C75.9976 258.268 76.1069 257.873 76.3257 257.518C76.5444 257.162 76.8511 256.879 77.2456 256.668C77.644 256.457 78.105 256.352 78.6284 256.352C79.144 256.352 79.5952 256.443 79.9819 256.627C80.3687 256.807 80.6694 257.076 80.8843 257.436C81.0991 257.791 81.2065 258.234 81.2065 258.766C81.2065 258.98 81.1558 259.211 81.0542 259.457C80.9565 259.699 80.8022 259.926 80.5913 260.137C80.3843 260.348 80.1147 260.521 79.7827 260.658C79.4507 260.791 79.0522 260.857 78.5874 260.857H77.6616V260.201ZM77.6616 261.092V260.441H78.5874C79.1304 260.441 79.5796 260.506 79.9351 260.635C80.2905 260.764 80.5698 260.936 80.7729 261.15C80.98 261.365 81.1245 261.602 81.2065 261.859C81.2925 262.113 81.3354 262.367 81.3354 262.621C81.3354 263.02 81.2671 263.373 81.1304 263.682C80.9976 263.99 80.8081 264.252 80.562 264.467C80.3198 264.682 80.0347 264.844 79.7065 264.953C79.3784 265.062 79.021 265.117 78.6343 265.117C78.2632 265.117 77.9136 265.064 77.5854 264.959C77.2612 264.854 76.9741 264.701 76.7241 264.502C76.4741 264.299 76.2788 264.051 76.1382 263.758C75.9976 263.461 75.9272 263.123 75.9272 262.744H77.0112C77.0112 263.041 77.0757 263.301 77.2046 263.523C77.3374 263.746 77.5249 263.92 77.7671 264.045C78.0132 264.166 78.3022 264.227 78.6343 264.227C78.9663 264.227 79.2515 264.17 79.4897 264.057C79.7319 263.939 79.9175 263.764 80.0464 263.529C80.1792 263.295 80.2456 263 80.2456 262.645C80.2456 262.289 80.1714 261.998 80.0229 261.771C79.8745 261.541 79.6636 261.371 79.3901 261.262C79.1206 261.148 78.8022 261.092 78.4351 261.092H77.6616ZM88.5952 262.129V263.02H82.4312V262.381L86.2515 256.469H87.1362L86.187 258.18L83.6616 262.129H88.5952ZM87.4058 256.469V265H86.3218V256.469H87.4058Z" fill="#8794BA"/>
<path d="M62.8257 312.422V321H61.7417V313.775L59.5562 314.572V313.594L62.6558 312.422H62.8257ZM71.3921 318.691C71.3921 319.211 71.271 319.652 71.0288 320.016C70.7905 320.375 70.4663 320.648 70.0562 320.836C69.6499 321.023 69.1909 321.117 68.6792 321.117C68.1675 321.117 67.7065 321.023 67.2964 320.836C66.8862 320.648 66.562 320.375 66.3237 320.016C66.0854 319.652 65.9663 319.211 65.9663 318.691C65.9663 318.352 66.0308 318.041 66.1597 317.76C66.2925 317.475 66.478 317.227 66.7163 317.016C66.9585 316.805 67.2437 316.643 67.5718 316.529C67.9038 316.412 68.269 316.354 68.6675 316.354C69.1909 316.354 69.6577 316.455 70.0679 316.658C70.478 316.857 70.8003 317.133 71.0347 317.484C71.2729 317.836 71.3921 318.238 71.3921 318.691ZM70.3022 318.668C70.3022 318.352 70.2339 318.072 70.0972 317.83C69.9604 317.584 69.769 317.393 69.5229 317.256C69.2769 317.119 68.9917 317.051 68.6675 317.051C68.3354 317.051 68.0483 317.119 67.8062 317.256C67.5679 317.393 67.3823 317.584 67.2495 317.83C67.1167 318.072 67.0503 318.352 67.0503 318.668C67.0503 318.996 67.1147 319.277 67.2437 319.512C67.3765 319.742 67.564 319.92 67.8062 320.045C68.0522 320.166 68.3433 320.227 68.6792 320.227C69.0151 320.227 69.3042 320.166 69.5464 320.045C69.7886 319.92 69.9741 319.742 70.103 319.512C70.2358 319.277 70.3022 318.996 70.3022 318.668ZM71.1929 314.689C71.1929 315.104 71.0835 315.477 70.8647 315.809C70.646 316.141 70.3472 316.402 69.9683 316.594C69.5894 316.785 69.1597 316.881 68.6792 316.881C68.1909 316.881 67.7554 316.785 67.3726 316.594C66.9937 316.402 66.6968 316.141 66.4819 315.809C66.2671 315.477 66.1597 315.104 66.1597 314.689C66.1597 314.193 66.2671 313.771 66.4819 313.424C66.7007 313.076 66.9995 312.811 67.3784 312.627C67.7573 312.443 68.189 312.352 68.6733 312.352C69.1616 312.352 69.5952 312.443 69.9741 312.627C70.353 312.811 70.6499 313.076 70.8647 313.424C71.0835 313.771 71.1929 314.193 71.1929 314.689ZM70.1089 314.707C70.1089 314.422 70.0483 314.17 69.9272 313.951C69.8062 313.732 69.6382 313.561 69.4233 313.436C69.2085 313.307 68.9585 313.242 68.6733 313.242C68.3882 313.242 68.1382 313.303 67.9233 313.424C67.7124 313.541 67.5464 313.709 67.4253 313.928C67.3081 314.146 67.2495 314.406 67.2495 314.707C67.2495 315 67.3081 315.256 67.4253 315.475C67.5464 315.693 67.7144 315.863 67.9292 315.984C68.144 316.105 68.394 316.166 68.6792 316.166C68.9644 316.166 69.2124 316.105 69.4233 315.984C69.6382 315.863 69.8062 315.693 69.9272 315.475C70.0483 315.256 70.1089 315 70.1089 314.707ZM75.1362 316.928V317.818H72.2769V316.928H75.1362ZM81.6694 320.109V321H76.0854V320.221L78.8804 317.109C79.2241 316.727 79.4897 316.402 79.6772 316.137C79.8687 315.867 80.0015 315.627 80.0757 315.416C80.1538 315.201 80.1929 314.982 80.1929 314.76C80.1929 314.479 80.1343 314.225 80.0171 313.998C79.9038 313.768 79.7358 313.584 79.5132 313.447C79.2905 313.311 79.021 313.242 78.7046 313.242C78.3257 313.242 78.0093 313.316 77.7554 313.465C77.5054 313.609 77.3179 313.812 77.1929 314.074C77.0679 314.336 77.0054 314.637 77.0054 314.977H75.9214C75.9214 314.496 76.0269 314.057 76.2378 313.658C76.4487 313.26 76.7612 312.943 77.1753 312.709C77.5894 312.471 78.0991 312.352 78.7046 312.352C79.2437 312.352 79.7046 312.447 80.0874 312.639C80.4702 312.826 80.7632 313.092 80.9663 313.436C81.1733 313.775 81.2769 314.174 81.2769 314.631C81.2769 314.881 81.2339 315.135 81.1479 315.393C81.0659 315.646 80.9507 315.9 80.8022 316.154C80.6577 316.408 80.4878 316.658 80.2925 316.904C80.1011 317.15 79.896 317.393 79.6772 317.631L77.3921 320.109H81.6694ZM88.5952 318.129V319.02H82.4312V318.381L86.2515 312.469H87.1362L86.187 314.18L83.6616 318.129H88.5952ZM87.4058 312.469V321H86.3218V312.469H87.4058Z" fill="#8794BA"/>
<path d="M99.8706 79H356.371C359.408 79 361.871 81.4624 361.871 84.5V84.5C361.871 87.5376 359.408 90 356.371 90H99.8706V79Z" fill="#EF2A82"/>
<path d="M99.8706 136H269.371C272.408 136 274.871 138.462 274.871 141.5V141.5C274.871 144.538 272.408 147 269.371 147H99.8706V136Z" fill="#EF2A82"/>
<path d="M99.8706 193H110.371C113.408 193 115.871 195.462 115.871 198.5V198.5C115.871 201.538 113.408 204 110.371 204H99.8706V193Z" fill="#EF2A82"/>
<path d="M99.8706 250H142.371C145.408 250 147.871 252.462 147.871 255.5V255.5C147.871 258.538 145.408 261 142.371 261H99.8706V250Z" fill="#EF2A82"/>
<path d="M99.8706 307H302.371C305.408 307 307.871 309.462 307.871 312.5V312.5C307.871 315.538 305.408 318 302.371 318H99.8706V307Z" fill="#EF2A82"/>
<path d="M99.8706 93H242.371C245.408 93 247.871 95.4624 247.871 98.5V98.5C247.871 101.538 245.408 104 242.371 104H99.8706V93Z" fill="#0088F0"/>
<path d="M99.8706 150H302.371C305.408 150 307.871 152.462 307.871 155.5V155.5C307.871 158.538 305.408 161 302.371 161H99.8706V150Z" fill="#0088F0"/>
<path d="M99.8706 207H142.371C145.408 207 147.871 209.462 147.871 212.5V212.5C147.871 215.538 145.408 218 142.371 218H99.8706V207Z" fill="#0088F0"/>
<path d="M99.8706 264H433.371C436.408 264 438.871 266.462 438.871 269.5V269.5C438.871 272.538 436.408 275 433.371 275H99.8706V264Z" fill="#0088F0"/>
<path d="M99.8706 321H490.371C493.408 321 495.871 323.462 495.871 326.5V326.5C495.871 329.538 493.408 332 490.371 332H99.8706V321Z" fill="#0088F0"/>
</svg>
