<svg width="601" height="410" viewBox="0 0 601 410" fill="none" xmlns="http://www.w3.org/2000/svg">
<rect x="0.870605" width="600" height="410" rx="30" fill="white"/>
<path d="M111.885 140.077L220.871 77.1547L329.856 140.077V265.923L220.871 328.845L111.885 265.923V140.077Z" stroke="#EEEEF7" stroke-width="2"/>
<path d="M149.99 162.077L220.871 121.155L291.751 162.077V243.923L220.871 284.845L149.99 243.923V162.077Z" stroke="#EEEEF7" stroke-width="2"/>
<path d="M163.284 170.015L221.234 122.292L302.95 154.394L308.802 252.403L221.216 304.468L156.947 237.278L163.284 170.015Z" stroke="#0088F0" stroke-width="4"/>
<path d="M137.392 155.392L220.232 109.637L266.11 177.966L296.313 247H221.145L168.66 232.338L137.392 155.392Z" stroke="#EF2A82" stroke-width="4"/>
<path d="M196.756 189.077L220.871 175.155L244.985 189.077V216.923L220.871 230.845L196.756 216.923V189.077Z" stroke="#EEEEF7" stroke-width="2"/>
<path d="M461.398 136.232H463.94C465.185 136.232 466.211 136.027 467.02 135.616C467.841 135.193 468.451 134.622 468.849 133.903C469.26 133.171 469.465 132.35 469.465 131.439C469.465 130.36 469.285 129.456 468.926 128.724C468.566 127.992 468.027 127.441 467.309 127.068C466.59 126.696 465.679 126.51 464.575 126.51C463.574 126.51 462.688 126.709 461.918 127.107C461.161 127.492 460.564 128.044 460.128 128.763C459.704 129.481 459.492 130.328 459.492 131.304H455.931C455.931 129.879 456.29 128.583 457.009 127.415C457.727 126.247 458.735 125.316 460.031 124.623C461.34 123.93 462.855 123.584 464.575 123.584C466.269 123.584 467.751 123.885 469.022 124.489C470.293 125.079 471.281 125.965 471.987 127.145C472.693 128.313 473.046 129.77 473.046 131.516C473.046 132.222 472.879 132.979 472.545 133.787C472.224 134.583 471.717 135.328 471.024 136.021C470.344 136.714 469.458 137.285 468.368 137.734C467.277 138.17 465.967 138.389 464.44 138.389H461.398V136.232ZM461.398 139.159V137.022H464.44C466.224 137.022 467.7 137.234 468.868 137.657C470.036 138.081 470.954 138.645 471.621 139.351C472.301 140.057 472.776 140.834 473.046 141.681C473.328 142.515 473.469 143.349 473.469 144.184C473.469 145.493 473.245 146.654 472.796 147.668C472.359 148.682 471.737 149.542 470.928 150.248C470.132 150.954 469.195 151.487 468.117 151.846C467.039 152.205 465.865 152.385 464.594 152.385C463.375 152.385 462.226 152.212 461.148 151.865C460.083 151.519 459.139 151.018 458.318 150.364C457.496 149.696 456.855 148.881 456.393 147.919C455.931 146.943 455.7 145.833 455.7 144.588H459.261C459.261 145.563 459.473 146.417 459.897 147.148C460.333 147.88 460.949 148.451 461.745 148.862C462.553 149.26 463.503 149.459 464.594 149.459C465.685 149.459 466.622 149.273 467.405 148.9C468.201 148.515 468.81 147.938 469.234 147.168C469.67 146.398 469.888 145.429 469.888 144.261C469.888 143.093 469.645 142.136 469.157 141.392C468.669 140.635 467.976 140.076 467.078 139.717C466.192 139.345 465.146 139.159 463.94 139.159H461.398ZM497.323 142.566V145.493H477.07V143.394L489.622 123.969H492.529L489.41 129.59L481.113 142.566H497.323ZM493.415 123.969V152H489.853V123.969H493.415ZM500.249 130.842V129.359C500.249 128.294 500.48 127.325 500.942 126.452C501.404 125.58 502.065 124.88 502.925 124.354C503.785 123.828 504.806 123.564 505.986 123.564C507.193 123.564 508.22 123.828 509.067 124.354C509.927 124.88 510.588 125.58 511.05 126.452C511.512 127.325 511.743 128.294 511.743 129.359V130.842C511.743 131.881 511.512 132.838 511.05 133.71C510.601 134.583 509.946 135.283 509.086 135.809C508.239 136.335 507.219 136.598 506.025 136.598C504.831 136.598 503.798 136.335 502.925 135.809C502.065 135.283 501.404 134.583 500.942 133.71C500.48 132.838 500.249 131.881 500.249 130.842ZM502.925 129.359V130.842C502.925 131.432 503.034 131.991 503.253 132.517C503.484 133.043 503.83 133.473 504.292 133.807C504.754 134.128 505.332 134.288 506.025 134.288C506.718 134.288 507.289 134.128 507.738 133.807C508.188 133.473 508.521 133.043 508.739 132.517C508.958 131.991 509.067 131.432 509.067 130.842V129.359C509.067 128.756 508.951 128.191 508.72 127.665C508.502 127.126 508.162 126.696 507.7 126.375C507.251 126.042 506.679 125.875 505.986 125.875C505.306 125.875 504.735 126.042 504.273 126.375C503.824 126.696 503.484 127.126 503.253 127.665C503.034 128.191 502.925 128.756 502.925 129.359ZM513.899 146.629V145.127C513.899 144.074 514.13 143.112 514.592 142.239C515.054 141.366 515.715 140.667 516.575 140.141C517.435 139.614 518.455 139.351 519.636 139.351C520.843 139.351 521.869 139.614 522.717 140.141C523.577 140.667 524.238 141.366 524.7 142.239C525.162 143.112 525.393 144.074 525.393 145.127V146.629C525.393 147.681 525.162 148.644 524.7 149.516C524.25 150.389 523.596 151.089 522.736 151.615C521.889 152.141 520.868 152.404 519.675 152.404C518.481 152.404 517.454 152.141 516.594 151.615C515.734 151.089 515.067 150.389 514.592 149.516C514.13 148.644 513.899 147.681 513.899 146.629ZM516.575 145.127V146.629C516.575 147.219 516.684 147.784 516.902 148.323C517.133 148.849 517.48 149.279 517.942 149.613C518.404 149.934 518.982 150.094 519.675 150.094C520.368 150.094 520.939 149.934 521.388 149.613C521.85 149.279 522.19 148.849 522.409 148.323C522.627 147.797 522.736 147.232 522.736 146.629V145.127C522.736 144.524 522.62 143.959 522.389 143.433C522.171 142.907 521.831 142.483 521.369 142.162C520.92 141.828 520.342 141.662 519.636 141.662C518.956 141.662 518.385 141.828 517.923 142.162C517.474 142.483 517.133 142.907 516.902 143.433C516.684 143.959 516.575 144.524 516.575 145.127ZM520.522 127.954L506.834 149.863L504.831 148.592L518.52 126.683L520.522 127.954Z" fill="#EF2A82"/>
<path d="M454.679 178.351V178.148C454.679 177.463 454.779 176.827 454.978 176.241C455.177 175.649 455.464 175.137 455.839 174.703C456.214 174.264 456.668 173.924 457.202 173.684C457.735 173.438 458.333 173.314 458.995 173.314C459.663 173.314 460.263 173.438 460.796 173.684C461.335 173.924 461.792 174.264 462.167 174.703C462.548 175.137 462.838 175.649 463.038 176.241C463.237 176.827 463.336 177.463 463.336 178.148V178.351C463.336 179.036 463.237 179.672 463.038 180.258C462.838 180.844 462.548 181.356 462.167 181.796C461.792 182.229 461.338 182.569 460.805 182.815C460.278 183.056 459.68 183.176 459.012 183.176C458.344 183.176 457.744 183.056 457.21 182.815C456.677 182.569 456.22 182.229 455.839 181.796C455.464 181.356 455.177 180.844 454.978 180.258C454.779 179.672 454.679 179.036 454.679 178.351ZM456.305 178.148V178.351C456.305 178.825 456.361 179.273 456.472 179.695C456.583 180.111 456.75 180.48 456.973 180.803C457.202 181.125 457.486 181.38 457.826 181.567C458.166 181.749 458.561 181.84 459.012 181.84C459.458 181.84 459.847 181.749 460.181 181.567C460.521 181.38 460.802 181.125 461.025 180.803C461.248 180.48 461.415 180.111 461.526 179.695C461.643 179.273 461.702 178.825 461.702 178.351V178.148C461.702 177.68 461.643 177.237 461.526 176.821C461.415 176.399 461.245 176.027 461.016 175.705C460.793 175.377 460.512 175.119 460.172 174.932C459.838 174.744 459.446 174.65 458.995 174.65C458.549 174.65 458.157 174.744 457.817 174.932C457.483 175.119 457.202 175.377 456.973 175.705C456.75 176.027 456.583 176.399 456.472 176.821C456.361 177.237 456.305 177.68 456.305 178.148ZM467.001 175.318V186.656H465.367V173.49H466.861L467.001 175.318ZM473.409 178.166V178.351C473.409 179.042 473.327 179.684 473.163 180.275C472.999 180.861 472.758 181.371 472.442 181.805C472.131 182.238 471.748 182.575 471.291 182.815C470.833 183.056 470.309 183.176 469.717 183.176C469.114 183.176 468.581 183.076 468.118 182.877C467.655 182.678 467.262 182.388 466.94 182.007C466.618 181.626 466.36 181.169 466.167 180.636C465.979 180.103 465.85 179.502 465.78 178.834V177.85C465.85 177.146 465.982 176.517 466.175 175.96C466.369 175.403 466.624 174.929 466.94 174.536C467.262 174.138 467.652 173.836 468.109 173.631C468.566 173.42 469.093 173.314 469.691 173.314C470.289 173.314 470.819 173.432 471.282 173.666C471.745 173.895 472.134 174.223 472.451 174.65C472.767 175.078 473.004 175.591 473.163 176.188C473.327 176.78 473.409 177.439 473.409 178.166ZM471.774 178.351V178.166C471.774 177.691 471.724 177.246 471.625 176.83C471.525 176.408 471.37 176.039 471.159 175.723C470.954 175.4 470.69 175.148 470.368 174.967C470.045 174.779 469.662 174.686 469.216 174.686C468.806 174.686 468.449 174.756 468.144 174.896C467.845 175.037 467.59 175.228 467.379 175.468C467.168 175.702 466.996 175.972 466.861 176.276C466.732 176.575 466.635 176.886 466.571 177.208V179.484C466.688 179.895 466.852 180.281 467.063 180.645C467.274 181.002 467.555 181.292 467.907 181.515C468.258 181.731 468.701 181.84 469.234 181.84C469.673 181.84 470.051 181.749 470.368 181.567C470.69 181.38 470.954 181.125 471.159 180.803C471.37 180.48 471.525 180.111 471.625 179.695C471.724 179.273 471.774 178.825 471.774 178.351ZM479.464 173.49V174.738H474.323V173.49H479.464ZM476.063 171.179H477.689V180.645C477.689 180.967 477.739 181.21 477.838 181.374C477.938 181.538 478.067 181.646 478.225 181.699C478.383 181.752 478.553 181.778 478.735 181.778C478.87 181.778 479.01 181.767 479.157 181.743C479.309 181.714 479.423 181.69 479.5 181.673L479.508 183C479.379 183.041 479.209 183.079 478.999 183.114C478.793 183.155 478.544 183.176 478.251 183.176C477.853 183.176 477.487 183.097 477.153 182.938C476.819 182.78 476.552 182.517 476.353 182.147C476.16 181.772 476.063 181.269 476.063 180.636V171.179ZM483.138 173.49V183H481.503V173.49H483.138ZM481.38 170.968C481.38 170.704 481.459 170.481 481.618 170.3C481.782 170.118 482.022 170.027 482.338 170.027C482.649 170.027 482.886 170.118 483.05 170.3C483.22 170.481 483.305 170.704 483.305 170.968C483.305 171.22 483.22 171.437 483.05 171.618C482.886 171.794 482.649 171.882 482.338 171.882C482.022 171.882 481.782 171.794 481.618 171.618C481.459 171.437 481.38 171.22 481.38 170.968ZM485.318 178.351V178.148C485.318 177.463 485.417 176.827 485.617 176.241C485.816 175.649 486.103 175.137 486.478 174.703C486.853 174.264 487.307 173.924 487.84 173.684C488.374 173.438 488.971 173.314 489.633 173.314C490.301 173.314 490.902 173.438 491.435 173.684C491.974 173.924 492.431 174.264 492.806 174.703C493.187 175.137 493.477 175.649 493.676 176.241C493.875 176.827 493.975 177.463 493.975 178.148V178.351C493.975 179.036 493.875 179.672 493.676 180.258C493.477 180.844 493.187 181.356 492.806 181.796C492.431 182.229 491.977 182.569 491.444 182.815C490.917 183.056 490.319 183.176 489.651 183.176C488.983 183.176 488.382 183.056 487.849 182.815C487.316 182.569 486.859 182.229 486.478 181.796C486.103 181.356 485.816 180.844 485.617 180.258C485.417 179.672 485.318 179.036 485.318 178.351ZM486.944 178.148V178.351C486.944 178.825 487 179.273 487.111 179.695C487.222 180.111 487.389 180.48 487.612 180.803C487.84 181.125 488.125 181.38 488.464 181.567C488.804 181.749 489.2 181.84 489.651 181.84C490.096 181.84 490.486 181.749 490.82 181.567C491.16 181.38 491.441 181.125 491.664 180.803C491.886 180.48 492.053 180.111 492.165 179.695C492.282 179.273 492.34 178.825 492.34 178.351V178.148C492.34 177.68 492.282 177.237 492.165 176.821C492.053 176.399 491.883 176.027 491.655 175.705C491.432 175.377 491.151 175.119 490.811 174.932C490.477 174.744 490.084 174.65 489.633 174.65C489.188 174.65 488.795 174.744 488.456 174.932C488.122 175.119 487.84 175.377 487.612 175.705C487.389 176.027 487.222 176.399 487.111 176.821C487 177.237 486.944 177.68 486.944 178.148ZM497.64 175.521V183H496.014V173.49H497.552L497.64 175.521ZM497.253 177.885L496.577 177.858C496.583 177.208 496.679 176.607 496.867 176.057C497.054 175.5 497.318 175.017 497.658 174.606C497.998 174.196 498.402 173.88 498.871 173.657C499.345 173.429 499.87 173.314 500.444 173.314C500.913 173.314 501.334 173.379 501.709 173.508C502.084 173.631 502.404 173.83 502.667 174.105C502.937 174.381 503.142 174.738 503.283 175.178C503.423 175.611 503.494 176.142 503.494 176.769V183H501.859V176.751C501.859 176.253 501.786 175.854 501.639 175.556C501.493 175.251 501.279 175.031 500.998 174.896C500.716 174.756 500.371 174.686 499.96 174.686C499.556 174.686 499.187 174.771 498.853 174.94C498.525 175.11 498.241 175.345 498 175.644C497.766 175.942 497.582 176.285 497.447 176.672C497.318 177.053 497.253 177.457 497.253 177.885ZM515.596 170.133V183H513.97V172.163L510.692 173.358V171.891L515.341 170.133H515.596Z" fill="#8794BA"/>
<path d="M474.567 261.074V264H456.219V261.439L465.403 251.217C466.532 249.959 467.405 248.893 468.021 248.021C468.65 247.135 469.086 246.346 469.33 245.653C469.587 244.947 469.715 244.228 469.715 243.496C469.715 242.572 469.523 241.738 469.138 240.994C468.765 240.236 468.214 239.633 467.482 239.184C466.75 238.735 465.865 238.51 464.825 238.51C463.58 238.51 462.541 238.754 461.706 239.242C460.885 239.717 460.269 240.384 459.858 241.244C459.447 242.104 459.242 243.092 459.242 244.209H455.68C455.68 242.63 456.027 241.186 456.72 239.877C457.413 238.568 458.44 237.528 459.8 236.758C461.161 235.975 462.836 235.584 464.825 235.584C466.596 235.584 468.111 235.898 469.369 236.527C470.626 237.143 471.589 238.016 472.256 239.145C472.937 240.262 473.277 241.571 473.277 243.073C473.277 243.894 473.136 244.729 472.853 245.576C472.584 246.41 472.205 247.244 471.717 248.078C471.243 248.913 470.684 249.734 470.042 250.543C469.414 251.351 468.74 252.147 468.021 252.93L460.513 261.074H474.567ZM481.921 261.016H482.287C484.34 261.016 486.009 260.727 487.292 260.15C488.576 259.572 489.564 258.795 490.257 257.82C490.95 256.845 491.425 255.747 491.682 254.528C491.939 253.296 492.067 252.032 492.067 250.735V246.442C492.067 245.171 491.919 244.042 491.624 243.054C491.342 242.065 490.944 241.237 490.431 240.57C489.93 239.903 489.359 239.396 488.717 239.049C488.075 238.703 487.395 238.529 486.676 238.529C485.855 238.529 485.117 238.696 484.462 239.03C483.821 239.351 483.275 239.806 482.826 240.397C482.39 240.987 482.056 241.68 481.825 242.476C481.594 243.272 481.478 244.138 481.478 245.075C481.478 245.909 481.581 246.718 481.786 247.501C481.992 248.284 482.306 248.99 482.73 249.619C483.153 250.247 483.679 250.748 484.308 251.12C484.95 251.48 485.701 251.659 486.561 251.659C487.357 251.659 488.101 251.505 488.794 251.197C489.5 250.876 490.123 250.446 490.662 249.907C491.214 249.355 491.65 248.733 491.971 248.04C492.304 247.347 492.497 246.622 492.548 245.864H494.243C494.243 246.93 494.031 247.982 493.607 249.022C493.197 250.049 492.619 250.985 491.875 251.833C491.13 252.68 490.257 253.36 489.256 253.873C488.255 254.374 487.164 254.624 485.983 254.624C484.597 254.624 483.397 254.355 482.383 253.816C481.369 253.277 480.535 252.558 479.88 251.659C479.239 250.761 478.757 249.76 478.436 248.656C478.128 247.539 477.974 246.41 477.974 245.268C477.974 243.933 478.161 242.681 478.533 241.513C478.905 240.345 479.457 239.319 480.188 238.433C480.92 237.535 481.825 236.835 482.903 236.335C483.994 235.834 485.252 235.584 486.676 235.584C488.281 235.584 489.648 235.905 490.777 236.546C491.907 237.188 492.824 238.048 493.53 239.126C494.249 240.204 494.775 241.417 495.109 242.765C495.443 244.112 495.609 245.499 495.609 246.923V248.213C495.609 249.664 495.513 251.14 495.321 252.641C495.141 254.13 494.788 255.555 494.262 256.915C493.748 258.276 492.998 259.495 492.009 260.573C491.021 261.638 489.731 262.485 488.14 263.114C486.561 263.73 484.61 264.039 482.287 264.039H481.921V261.016ZM500.249 242.842V241.359C500.249 240.294 500.48 239.325 500.942 238.452C501.404 237.58 502.065 236.88 502.925 236.354C503.785 235.828 504.806 235.564 505.986 235.564C507.193 235.564 508.22 235.828 509.067 236.354C509.927 236.88 510.588 237.58 511.05 238.452C511.512 239.325 511.743 240.294 511.743 241.359V242.842C511.743 243.881 511.512 244.838 511.05 245.71C510.601 246.583 509.946 247.283 509.086 247.809C508.239 248.335 507.219 248.598 506.025 248.598C504.831 248.598 503.798 248.335 502.925 247.809C502.065 247.283 501.404 246.583 500.942 245.71C500.48 244.838 500.249 243.881 500.249 242.842ZM502.925 241.359V242.842C502.925 243.432 503.034 243.991 503.253 244.517C503.484 245.043 503.83 245.473 504.292 245.807C504.754 246.128 505.332 246.288 506.025 246.288C506.718 246.288 507.289 246.128 507.738 245.807C508.188 245.473 508.521 245.043 508.739 244.517C508.958 243.991 509.067 243.432 509.067 242.842V241.359C509.067 240.756 508.951 240.191 508.72 239.665C508.502 239.126 508.162 238.696 507.7 238.375C507.251 238.042 506.679 237.875 505.986 237.875C505.306 237.875 504.735 238.042 504.273 238.375C503.824 238.696 503.484 239.126 503.253 239.665C503.034 240.191 502.925 240.756 502.925 241.359ZM513.899 258.629V257.127C513.899 256.074 514.13 255.112 514.592 254.239C515.054 253.366 515.715 252.667 516.575 252.141C517.435 251.614 518.455 251.351 519.636 251.351C520.843 251.351 521.869 251.614 522.717 252.141C523.577 252.667 524.238 253.366 524.7 254.239C525.162 255.112 525.393 256.074 525.393 257.127V258.629C525.393 259.681 525.162 260.644 524.7 261.516C524.25 262.389 523.596 263.089 522.736 263.615C521.889 264.141 520.868 264.404 519.675 264.404C518.481 264.404 517.454 264.141 516.594 263.615C515.734 263.089 515.067 262.389 514.592 261.516C514.13 260.644 513.899 259.681 513.899 258.629ZM516.575 257.127V258.629C516.575 259.219 516.684 259.784 516.902 260.323C517.133 260.849 517.48 261.279 517.942 261.613C518.404 261.934 518.982 262.094 519.675 262.094C520.368 262.094 520.939 261.934 521.388 261.613C521.85 261.279 522.19 260.849 522.409 260.323C522.627 259.797 522.736 259.232 522.736 258.629V257.127C522.736 256.524 522.62 255.959 522.389 255.433C522.171 254.907 521.831 254.483 521.369 254.162C520.92 253.828 520.342 253.662 519.636 253.662C518.956 253.662 518.385 253.828 517.923 254.162C517.474 254.483 517.133 254.907 516.902 255.433C516.684 255.959 516.575 256.524 516.575 257.127ZM520.522 239.954L506.834 261.863L504.831 260.592L518.52 238.683L520.522 239.954Z" fill="#0088F0"/>
<path d="M454.679 290.351V290.148C454.679 289.463 454.779 288.827 454.978 288.241C455.177 287.649 455.464 287.137 455.839 286.703C456.214 286.264 456.668 285.924 457.202 285.684C457.735 285.438 458.333 285.314 458.995 285.314C459.663 285.314 460.263 285.438 460.796 285.684C461.335 285.924 461.792 286.264 462.167 286.703C462.548 287.137 462.838 287.649 463.038 288.241C463.237 288.827 463.336 289.463 463.336 290.148V290.351C463.336 291.036 463.237 291.672 463.038 292.258C462.838 292.844 462.548 293.356 462.167 293.796C461.792 294.229 461.338 294.569 460.805 294.815C460.278 295.056 459.68 295.176 459.012 295.176C458.344 295.176 457.744 295.056 457.21 294.815C456.677 294.569 456.22 294.229 455.839 293.796C455.464 293.356 455.177 292.844 454.978 292.258C454.779 291.672 454.679 291.036 454.679 290.351ZM456.305 290.148V290.351C456.305 290.825 456.361 291.273 456.472 291.695C456.583 292.111 456.75 292.48 456.973 292.803C457.202 293.125 457.486 293.38 457.826 293.567C458.166 293.749 458.561 293.84 459.012 293.84C459.458 293.84 459.847 293.749 460.181 293.567C460.521 293.38 460.802 293.125 461.025 292.803C461.248 292.48 461.415 292.111 461.526 291.695C461.643 291.273 461.702 290.825 461.702 290.351V290.148C461.702 289.68 461.643 289.237 461.526 288.821C461.415 288.399 461.245 288.027 461.016 287.705C460.793 287.377 460.512 287.119 460.172 286.932C459.838 286.744 459.446 286.65 458.995 286.65C458.549 286.65 458.157 286.744 457.817 286.932C457.483 287.119 457.202 287.377 456.973 287.705C456.75 288.027 456.583 288.399 456.472 288.821C456.361 289.237 456.305 289.68 456.305 290.148ZM467.001 287.318V298.656H465.367V285.49H466.861L467.001 287.318ZM473.409 290.166V290.351C473.409 291.042 473.327 291.684 473.163 292.275C472.999 292.861 472.758 293.371 472.442 293.805C472.131 294.238 471.748 294.575 471.291 294.815C470.833 295.056 470.309 295.176 469.717 295.176C469.114 295.176 468.581 295.076 468.118 294.877C467.655 294.678 467.262 294.388 466.94 294.007C466.618 293.626 466.36 293.169 466.167 292.636C465.979 292.103 465.85 291.502 465.78 290.834V289.85C465.85 289.146 465.982 288.517 466.175 287.96C466.369 287.403 466.624 286.929 466.94 286.536C467.262 286.138 467.652 285.836 468.109 285.631C468.566 285.42 469.093 285.314 469.691 285.314C470.289 285.314 470.819 285.432 471.282 285.666C471.745 285.895 472.134 286.223 472.451 286.65C472.767 287.078 473.004 287.591 473.163 288.188C473.327 288.78 473.409 289.439 473.409 290.166ZM471.774 290.351V290.166C471.774 289.691 471.724 289.246 471.625 288.83C471.525 288.408 471.37 288.039 471.159 287.723C470.954 287.4 470.69 287.148 470.368 286.967C470.045 286.779 469.662 286.686 469.216 286.686C468.806 286.686 468.449 286.756 468.144 286.896C467.845 287.037 467.59 287.228 467.379 287.468C467.168 287.702 466.996 287.972 466.861 288.276C466.732 288.575 466.635 288.886 466.571 289.208V291.484C466.688 291.895 466.852 292.281 467.063 292.645C467.274 293.002 467.555 293.292 467.907 293.515C468.258 293.731 468.701 293.84 469.234 293.84C469.673 293.84 470.051 293.749 470.368 293.567C470.69 293.38 470.954 293.125 471.159 292.803C471.37 292.48 471.525 292.111 471.625 291.695C471.724 291.273 471.774 290.825 471.774 290.351ZM479.464 285.49V286.738H474.323V285.49H479.464ZM476.063 283.179H477.689V292.645C477.689 292.967 477.739 293.21 477.838 293.374C477.938 293.538 478.067 293.646 478.225 293.699C478.383 293.752 478.553 293.778 478.735 293.778C478.87 293.778 479.01 293.767 479.157 293.743C479.309 293.714 479.423 293.69 479.5 293.673L479.508 295C479.379 295.041 479.209 295.079 478.999 295.114C478.793 295.155 478.544 295.176 478.251 295.176C477.853 295.176 477.487 295.097 477.153 294.938C476.819 294.78 476.552 294.517 476.353 294.147C476.16 293.772 476.063 293.269 476.063 292.636V283.179ZM483.138 285.49V295H481.503V285.49H483.138ZM481.38 282.968C481.38 282.704 481.459 282.481 481.618 282.3C481.782 282.118 482.022 282.027 482.338 282.027C482.649 282.027 482.886 282.118 483.05 282.3C483.22 282.481 483.305 282.704 483.305 282.968C483.305 283.22 483.22 283.437 483.05 283.618C482.886 283.794 482.649 283.882 482.338 283.882C482.022 283.882 481.782 283.794 481.618 283.618C481.459 283.437 481.38 283.22 481.38 282.968ZM485.318 290.351V290.148C485.318 289.463 485.417 288.827 485.617 288.241C485.816 287.649 486.103 287.137 486.478 286.703C486.853 286.264 487.307 285.924 487.84 285.684C488.374 285.438 488.971 285.314 489.633 285.314C490.301 285.314 490.902 285.438 491.435 285.684C491.974 285.924 492.431 286.264 492.806 286.703C493.187 287.137 493.477 287.649 493.676 288.241C493.875 288.827 493.975 289.463 493.975 290.148V290.351C493.975 291.036 493.875 291.672 493.676 292.258C493.477 292.844 493.187 293.356 492.806 293.796C492.431 294.229 491.977 294.569 491.444 294.815C490.917 295.056 490.319 295.176 489.651 295.176C488.983 295.176 488.382 295.056 487.849 294.815C487.316 294.569 486.859 294.229 486.478 293.796C486.103 293.356 485.816 292.844 485.617 292.258C485.417 291.672 485.318 291.036 485.318 290.351ZM486.944 290.148V290.351C486.944 290.825 487 291.273 487.111 291.695C487.222 292.111 487.389 292.48 487.612 292.803C487.84 293.125 488.125 293.38 488.464 293.567C488.804 293.749 489.2 293.84 489.651 293.84C490.096 293.84 490.486 293.749 490.82 293.567C491.16 293.38 491.441 293.125 491.664 292.803C491.886 292.48 492.053 292.111 492.165 291.695C492.282 291.273 492.34 290.825 492.34 290.351V290.148C492.34 289.68 492.282 289.237 492.165 288.821C492.053 288.399 491.883 288.027 491.655 287.705C491.432 287.377 491.151 287.119 490.811 286.932C490.477 286.744 490.084 286.65 489.633 286.65C489.188 286.65 488.795 286.744 488.456 286.932C488.122 287.119 487.84 287.377 487.612 287.705C487.389 288.027 487.222 288.399 487.111 288.821C487 289.237 486.944 289.68 486.944 290.148ZM497.64 287.521V295H496.014V285.49H497.552L497.64 287.521ZM497.253 289.885L496.577 289.858C496.583 289.208 496.679 288.607 496.867 288.057C497.054 287.5 497.318 287.017 497.658 286.606C497.998 286.196 498.402 285.88 498.871 285.657C499.345 285.429 499.87 285.314 500.444 285.314C500.913 285.314 501.334 285.379 501.709 285.508C502.084 285.631 502.404 285.83 502.667 286.105C502.937 286.381 503.142 286.738 503.283 287.178C503.423 287.611 503.494 288.142 503.494 288.769V295H501.859V288.751C501.859 288.253 501.786 287.854 501.639 287.556C501.493 287.251 501.279 287.031 500.998 286.896C500.716 286.756 500.371 286.686 499.96 286.686C499.556 286.686 499.187 286.771 498.853 286.94C498.525 287.11 498.241 287.345 498 287.644C497.766 287.942 497.582 288.285 497.447 288.672C497.318 289.053 497.253 289.457 497.253 289.885ZM518.637 293.664V295H510.261V293.831L514.454 289.164C514.969 288.59 515.368 288.104 515.649 287.705C515.936 287.301 516.135 286.94 516.247 286.624C516.364 286.302 516.422 285.974 516.422 285.64C516.422 285.218 516.334 284.837 516.159 284.497C515.989 284.151 515.737 283.876 515.403 283.671C515.069 283.466 514.665 283.363 514.19 283.363C513.622 283.363 513.147 283.475 512.766 283.697C512.391 283.914 512.11 284.219 511.922 284.611C511.735 285.004 511.641 285.455 511.641 285.965H510.015C510.015 285.244 510.173 284.585 510.49 283.987C510.806 283.39 511.275 282.915 511.896 282.563C512.517 282.206 513.282 282.027 514.19 282.027C514.999 282.027 515.69 282.171 516.264 282.458C516.838 282.739 517.278 283.138 517.583 283.653C517.893 284.163 518.048 284.761 518.048 285.446C518.048 285.821 517.984 286.202 517.855 286.589C517.732 286.97 517.559 287.351 517.336 287.731C517.12 288.112 516.865 288.487 516.572 288.856C516.285 289.226 515.977 289.589 515.649 289.946L512.221 293.664H518.637Z" fill="#8794BA"/>
<path d="M210.484 55.4219V64H209.4V56.7754L207.214 57.5723V56.5938L210.314 55.4219H210.484ZM219.05 61.6914C219.05 62.2109 218.929 62.6523 218.687 63.0156C218.449 63.375 218.125 63.6484 217.714 63.8359C217.308 64.0234 216.849 64.1172 216.337 64.1172C215.826 64.1172 215.365 64.0234 214.955 63.8359C214.544 63.6484 214.22 63.375 213.982 63.0156C213.744 62.6523 213.625 62.2109 213.625 61.6914C213.625 61.3516 213.689 61.041 213.818 60.7598C213.951 60.4746 214.136 60.2266 214.375 60.0156C214.617 59.8047 214.902 59.6426 215.23 59.5293C215.562 59.4121 215.927 59.3535 216.326 59.3535C216.849 59.3535 217.316 59.4551 217.726 59.6582C218.136 59.8574 218.458 60.1328 218.693 60.4844C218.931 60.8359 219.05 61.2383 219.05 61.6914ZM217.96 61.668C217.96 61.3516 217.892 61.0723 217.755 60.8301C217.619 60.584 217.427 60.3926 217.181 60.2559C216.935 60.1191 216.65 60.0508 216.326 60.0508C215.994 60.0508 215.707 60.1191 215.464 60.2559C215.226 60.3926 215.041 60.584 214.908 60.8301C214.775 61.0723 214.708 61.3516 214.708 61.668C214.708 61.9961 214.773 62.2773 214.902 62.5117C215.035 62.7422 215.222 62.9199 215.464 63.0449C215.71 63.166 216.001 63.2266 216.337 63.2266C216.673 63.2266 216.962 63.166 217.205 63.0449C217.447 62.9199 217.632 62.7422 217.761 62.5117C217.894 62.2773 217.96 61.9961 217.96 61.668ZM218.851 57.6895C218.851 58.1035 218.742 58.4766 218.523 58.8086C218.304 59.1406 218.005 59.4023 217.626 59.5938C217.248 59.7852 216.818 59.8809 216.337 59.8809C215.849 59.8809 215.414 59.7852 215.031 59.5938C214.652 59.4023 214.355 59.1406 214.14 58.8086C213.925 58.4766 213.818 58.1035 213.818 57.6895C213.818 57.1934 213.925 56.7715 214.14 56.4238C214.359 56.0762 214.658 55.8105 215.037 55.627C215.416 55.4434 215.847 55.3516 216.332 55.3516C216.82 55.3516 217.253 55.4434 217.632 55.627C218.011 55.8105 218.308 56.0762 218.523 56.4238C218.742 56.7715 218.851 57.1934 218.851 57.6895ZM217.767 57.707C217.767 57.4219 217.707 57.1699 217.585 56.9512C217.464 56.7324 217.296 56.5605 217.082 56.4355C216.867 56.3066 216.617 56.2422 216.332 56.2422C216.046 56.2422 215.796 56.3027 215.582 56.4238C215.371 56.541 215.205 56.709 215.083 56.9277C214.966 57.1465 214.908 57.4062 214.908 57.707C214.908 58 214.966 58.2559 215.083 58.4746C215.205 58.6934 215.373 58.8633 215.587 58.9844C215.802 59.1055 216.052 59.166 216.337 59.166C216.623 59.166 216.871 59.1055 217.082 58.9844C217.296 58.8633 217.464 58.6934 217.585 58.4746C217.707 58.2559 217.767 58 217.767 57.707ZM222.794 59.9277V60.8184H219.935V59.9277H222.794ZM229.328 63.1094V64H223.744V63.2207L226.539 60.1094C226.882 59.7266 227.148 59.4023 227.335 59.1367C227.527 58.8672 227.66 58.627 227.734 58.416C227.812 58.2012 227.851 57.9824 227.851 57.7598C227.851 57.4785 227.792 57.2246 227.675 56.998C227.562 56.7676 227.394 56.584 227.171 56.4473C226.949 56.3105 226.679 56.2422 226.363 56.2422C225.984 56.2422 225.667 56.3164 225.414 56.4648C225.164 56.6094 224.976 56.8125 224.851 57.0742C224.726 57.3359 224.664 57.6367 224.664 57.9766H223.58C223.58 57.4961 223.685 57.0566 223.896 56.6582C224.107 56.2598 224.419 55.9434 224.833 55.709C225.248 55.4707 225.757 55.3516 226.363 55.3516C226.902 55.3516 227.363 55.4473 227.746 55.6387C228.128 55.8262 228.421 56.0918 228.625 56.4355C228.832 56.7754 228.935 57.1738 228.935 57.6309C228.935 57.8809 228.892 58.1348 228.806 58.3926C228.724 58.6465 228.609 58.9004 228.46 59.1543C228.316 59.4082 228.146 59.6582 227.951 59.9043C227.759 60.1504 227.554 60.3926 227.335 60.6309L225.05 63.1094H229.328ZM236.253 61.1289V62.0195H230.089V61.3809L233.91 55.4688H234.794L233.845 57.1797L231.32 61.1289H236.253ZM235.064 55.4688V64H233.98V55.4688H235.064Z" fill="#8794BA"/>
<path d="M353.511 141.109V142H347.927V141.221L350.722 138.109C351.066 137.727 351.332 137.402 351.519 137.137C351.71 136.867 351.843 136.627 351.917 136.416C351.996 136.201 352.035 135.982 352.035 135.76C352.035 135.479 351.976 135.225 351.859 134.998C351.746 134.768 351.578 134.584 351.355 134.447C351.132 134.311 350.863 134.242 350.546 134.242C350.167 134.242 349.851 134.316 349.597 134.465C349.347 134.609 349.16 134.812 349.035 135.074C348.91 135.336 348.847 135.637 348.847 135.977H347.763C347.763 135.496 347.869 135.057 348.08 134.658C348.291 134.26 348.603 133.943 349.017 133.709C349.431 133.471 349.941 133.352 350.546 133.352C351.085 133.352 351.546 133.447 351.929 133.639C352.312 133.826 352.605 134.092 352.808 134.436C353.015 134.775 353.119 135.174 353.119 135.631C353.119 135.881 353.076 136.135 352.99 136.393C352.908 136.646 352.792 136.9 352.644 137.154C352.5 137.408 352.33 137.658 352.134 137.904C351.943 138.15 351.738 138.393 351.519 138.631L349.234 141.109H353.511ZM356.042 137.939L355.175 137.717L355.603 133.469H359.98V134.471H356.523L356.265 136.791C356.421 136.701 356.619 136.617 356.857 136.539C357.099 136.461 357.376 136.422 357.689 136.422C358.083 136.422 358.437 136.49 358.75 136.627C359.062 136.76 359.328 136.951 359.546 137.201C359.769 137.451 359.939 137.752 360.056 138.104C360.173 138.455 360.232 138.848 360.232 139.281C360.232 139.691 360.175 140.068 360.062 140.412C359.953 140.756 359.787 141.057 359.564 141.314C359.341 141.568 359.06 141.766 358.72 141.906C358.384 142.047 357.988 142.117 357.531 142.117C357.187 142.117 356.861 142.07 356.552 141.977C356.248 141.879 355.974 141.732 355.732 141.537C355.494 141.338 355.298 141.092 355.146 140.799C354.998 140.502 354.904 140.154 354.865 139.756H355.896C355.943 140.076 356.037 140.346 356.177 140.564C356.318 140.783 356.501 140.949 356.728 141.062C356.958 141.172 357.226 141.227 357.531 141.227C357.789 141.227 358.017 141.182 358.216 141.092C358.416 141.002 358.583 140.873 358.72 140.705C358.857 140.537 358.96 140.334 359.031 140.096C359.105 139.857 359.142 139.59 359.142 139.293C359.142 139.023 359.105 138.773 359.031 138.543C358.957 138.312 358.845 138.111 358.697 137.939C358.552 137.768 358.375 137.635 358.164 137.541C357.953 137.443 357.71 137.395 357.437 137.395C357.074 137.395 356.798 137.443 356.611 137.541C356.427 137.639 356.238 137.771 356.042 137.939ZM363.794 137.928V138.818H360.935V137.928H363.794ZM366.32 137.201H367.093C367.472 137.201 367.785 137.139 368.031 137.014C368.281 136.885 368.466 136.711 368.587 136.492C368.712 136.27 368.775 136.02 368.775 135.742C368.775 135.414 368.72 135.139 368.611 134.916C368.501 134.693 368.337 134.525 368.119 134.412C367.9 134.299 367.623 134.242 367.287 134.242C366.982 134.242 366.712 134.303 366.478 134.424C366.248 134.541 366.066 134.709 365.933 134.928C365.804 135.146 365.74 135.404 365.74 135.701H364.656C364.656 135.268 364.765 134.873 364.984 134.518C365.203 134.162 365.509 133.879 365.904 133.668C366.302 133.457 366.763 133.352 367.287 133.352C367.802 133.352 368.253 133.443 368.64 133.627C369.027 133.807 369.328 134.076 369.542 134.436C369.757 134.791 369.865 135.234 369.865 135.766C369.865 135.98 369.814 136.211 369.712 136.457C369.615 136.699 369.46 136.926 369.25 137.137C369.042 137.348 368.773 137.521 368.441 137.658C368.109 137.791 367.71 137.857 367.246 137.857H366.32V137.201ZM366.32 138.092V137.441H367.246C367.789 137.441 368.238 137.506 368.593 137.635C368.949 137.764 369.228 137.936 369.431 138.15C369.638 138.365 369.783 138.602 369.865 138.859C369.951 139.113 369.994 139.367 369.994 139.621C369.994 140.02 369.925 140.373 369.789 140.682C369.656 140.99 369.466 141.252 369.22 141.467C368.978 141.682 368.693 141.844 368.365 141.953C368.037 142.062 367.679 142.117 367.292 142.117C366.921 142.117 366.572 142.064 366.244 141.959C365.919 141.854 365.632 141.701 365.382 141.502C365.132 141.299 364.937 141.051 364.796 140.758C364.656 140.461 364.585 140.123 364.585 139.744H365.669C365.669 140.041 365.734 140.301 365.863 140.523C365.996 140.746 366.183 140.92 366.425 141.045C366.671 141.166 366.96 141.227 367.292 141.227C367.625 141.227 367.91 141.17 368.148 141.057C368.39 140.939 368.576 140.764 368.705 140.529C368.837 140.295 368.904 140 368.904 139.645C368.904 139.289 368.83 138.998 368.681 138.771C368.533 138.541 368.322 138.371 368.048 138.262C367.779 138.148 367.46 138.092 367.093 138.092H366.32ZM377.253 139.129V140.02H371.089V139.381L374.91 133.469H375.794L374.845 135.18L372.32 139.129H377.253ZM376.064 133.469V142H374.98V133.469H376.064Z" fill="#8794BA"/>
<path d="M349.503 268.201H350.277C350.656 268.201 350.968 268.139 351.214 268.014C351.464 267.885 351.65 267.711 351.771 267.492C351.896 267.27 351.958 267.02 351.958 266.742C351.958 266.414 351.904 266.139 351.794 265.916C351.685 265.693 351.521 265.525 351.302 265.412C351.083 265.299 350.806 265.242 350.47 265.242C350.166 265.242 349.896 265.303 349.662 265.424C349.431 265.541 349.25 265.709 349.117 265.928C348.988 266.146 348.923 266.404 348.923 266.701H347.839C347.839 266.268 347.949 265.873 348.167 265.518C348.386 265.162 348.693 264.879 349.087 264.668C349.486 264.457 349.947 264.352 350.47 264.352C350.986 264.352 351.437 264.443 351.824 264.627C352.21 264.807 352.511 265.076 352.726 265.436C352.941 265.791 353.048 266.234 353.048 266.766C353.048 266.98 352.998 267.211 352.896 267.457C352.798 267.699 352.644 267.926 352.433 268.137C352.226 268.348 351.957 268.521 351.625 268.658C351.292 268.791 350.894 268.857 350.429 268.857H349.503V268.201ZM349.503 269.092V268.441H350.429C350.972 268.441 351.421 268.506 351.777 268.635C352.132 268.764 352.412 268.936 352.615 269.15C352.822 269.365 352.966 269.602 353.048 269.859C353.134 270.113 353.177 270.367 353.177 270.621C353.177 271.02 353.109 271.373 352.972 271.682C352.839 271.99 352.65 272.252 352.404 272.467C352.162 272.682 351.876 272.844 351.548 272.953C351.22 273.062 350.863 273.117 350.476 273.117C350.105 273.117 349.755 273.064 349.427 272.959C349.103 272.854 348.816 272.701 348.566 272.502C348.316 272.299 348.121 272.051 347.98 271.758C347.839 271.461 347.769 271.123 347.769 270.744H348.853C348.853 271.041 348.917 271.301 349.046 271.523C349.179 271.746 349.367 271.92 349.609 272.045C349.855 272.166 350.144 272.227 350.476 272.227C350.808 272.227 351.093 272.17 351.332 272.057C351.574 271.939 351.759 271.764 351.888 271.529C352.021 271.295 352.087 271 352.087 270.645C352.087 270.289 352.013 269.998 351.865 269.771C351.716 269.541 351.505 269.371 351.232 269.262C350.962 269.148 350.644 269.092 350.277 269.092H349.503ZM356.042 268.939L355.175 268.717L355.603 264.469H359.98V265.471H356.523L356.265 267.791C356.421 267.701 356.619 267.617 356.857 267.539C357.099 267.461 357.376 267.422 357.689 267.422C358.083 267.422 358.437 267.49 358.75 267.627C359.062 267.76 359.328 267.951 359.546 268.201C359.769 268.451 359.939 268.752 360.056 269.104C360.173 269.455 360.232 269.848 360.232 270.281C360.232 270.691 360.175 271.068 360.062 271.412C359.953 271.756 359.787 272.057 359.564 272.314C359.341 272.568 359.06 272.766 358.72 272.906C358.384 273.047 357.988 273.117 357.531 273.117C357.187 273.117 356.861 273.07 356.552 272.977C356.248 272.879 355.974 272.732 355.732 272.537C355.494 272.338 355.298 272.092 355.146 271.799C354.998 271.502 354.904 271.154 354.865 270.756H355.896C355.943 271.076 356.037 271.346 356.177 271.564C356.318 271.783 356.501 271.949 356.728 272.062C356.958 272.172 357.226 272.227 357.531 272.227C357.789 272.227 358.017 272.182 358.216 272.092C358.416 272.002 358.583 271.873 358.72 271.705C358.857 271.537 358.96 271.334 359.031 271.096C359.105 270.857 359.142 270.59 359.142 270.293C359.142 270.023 359.105 269.773 359.031 269.543C358.957 269.312 358.845 269.111 358.697 268.939C358.552 268.768 358.375 268.635 358.164 268.541C357.953 268.443 357.71 268.395 357.437 268.395C357.074 268.395 356.798 268.443 356.611 268.541C356.427 268.639 356.238 268.771 356.042 268.939ZM363.794 268.928V269.818H360.935V268.928H363.794ZM370.503 270.129V271.02H364.339V270.381L368.16 264.469H369.044L368.095 266.18L365.57 270.129H370.503ZM369.314 264.469V273H368.23V264.469H369.314ZM377.253 270.129V271.02H371.089V270.381L374.91 264.469H375.794L374.845 266.18L372.32 270.129H377.253ZM376.064 264.469V273H374.98V264.469H376.064Z" fill="#8794BA"/>
<path d="M212.687 355.129V356.02H206.523V355.381L210.343 349.469H211.228L210.279 351.18L207.753 355.129H212.687ZM211.498 349.469V358H210.414V349.469H211.498ZM215.042 353.939L214.175 353.717L214.603 349.469H218.98V350.471H215.523L215.265 352.791C215.421 352.701 215.619 352.617 215.857 352.539C216.099 352.461 216.376 352.422 216.689 352.422C217.083 352.422 217.437 352.49 217.75 352.627C218.062 352.76 218.328 352.951 218.546 353.201C218.769 353.451 218.939 353.752 219.056 354.104C219.173 354.455 219.232 354.848 219.232 355.281C219.232 355.691 219.175 356.068 219.062 356.412C218.953 356.756 218.787 357.057 218.564 357.314C218.341 357.568 218.06 357.766 217.72 357.906C217.384 358.047 216.988 358.117 216.531 358.117C216.187 358.117 215.861 358.07 215.552 357.977C215.248 357.879 214.974 357.732 214.732 357.537C214.494 357.338 214.298 357.092 214.146 356.799C213.998 356.502 213.904 356.154 213.865 355.756H214.896C214.943 356.076 215.037 356.346 215.177 356.564C215.318 356.783 215.501 356.949 215.728 357.062C215.958 357.172 216.226 357.227 216.531 357.227C216.789 357.227 217.017 357.182 217.216 357.092C217.416 357.002 217.583 356.873 217.72 356.705C217.857 356.537 217.96 356.334 218.031 356.096C218.105 355.857 218.142 355.59 218.142 355.293C218.142 355.023 218.105 354.773 218.031 354.543C217.957 354.312 217.845 354.111 217.697 353.939C217.552 353.768 217.375 353.635 217.164 353.541C216.953 353.443 216.71 353.395 216.437 353.395C216.074 353.395 215.798 353.443 215.611 353.541C215.427 353.639 215.238 353.771 215.042 353.939ZM222.794 353.928V354.818H219.935V353.928H222.794ZM225.109 353.939L224.242 353.717L224.669 349.469H229.046V350.471H225.589L225.332 352.791C225.488 352.701 225.685 352.617 225.923 352.539C226.166 352.461 226.443 352.422 226.755 352.422C227.15 352.422 227.503 352.49 227.816 352.627C228.128 352.76 228.394 352.951 228.613 353.201C228.835 353.451 229.005 353.752 229.123 354.104C229.24 354.455 229.298 354.848 229.298 355.281C229.298 355.691 229.242 356.068 229.128 356.412C229.019 356.756 228.853 357.057 228.63 357.314C228.408 357.568 228.126 357.766 227.787 357.906C227.451 358.047 227.054 358.117 226.597 358.117C226.253 358.117 225.927 358.07 225.619 357.977C225.314 357.879 225.041 357.732 224.798 357.537C224.56 357.338 224.365 357.092 224.212 356.799C224.064 356.502 223.97 356.154 223.931 355.756H224.962C225.009 356.076 225.103 356.346 225.244 356.564C225.384 356.783 225.568 356.949 225.794 357.062C226.025 357.172 226.292 357.227 226.597 357.227C226.855 357.227 227.083 357.182 227.283 357.092C227.482 357.002 227.65 356.873 227.787 356.705C227.923 356.537 228.027 356.334 228.097 356.096C228.171 355.857 228.208 355.59 228.208 355.293C228.208 355.023 228.171 354.773 228.097 354.543C228.023 354.312 227.912 354.111 227.763 353.939C227.619 353.768 227.441 353.635 227.23 353.541C227.019 353.443 226.777 353.395 226.503 353.395C226.14 353.395 225.865 353.443 225.677 353.541C225.494 353.639 225.304 353.771 225.109 353.939ZM236.253 355.129V356.02H230.089V355.381L233.91 349.469H234.794L233.845 351.18L231.32 355.129H236.253ZM235.064 349.469V358H233.98V349.469H235.064Z" fill="#8794BA"/>
<path d="M67.2925 268.939L66.4253 268.717L66.853 264.469H71.23V265.471H67.7729L67.5151 267.791C67.6714 267.701 67.8687 267.617 68.1069 267.539C68.3491 267.461 68.6265 267.422 68.939 267.422C69.3335 267.422 69.687 267.49 69.9995 267.627C70.312 267.76 70.5776 267.951 70.7964 268.201C71.019 268.451 71.189 268.752 71.3062 269.104C71.4233 269.455 71.4819 269.848 71.4819 270.281C71.4819 270.691 71.4253 271.068 71.312 271.412C71.2026 271.756 71.0366 272.057 70.814 272.314C70.5913 272.568 70.3101 272.766 69.9702 272.906C69.6343 273.047 69.2378 273.117 68.7808 273.117C68.437 273.117 68.1108 273.07 67.8022 272.977C67.4976 272.879 67.2241 272.732 66.9819 272.537C66.7437 272.338 66.5483 272.092 66.396 271.799C66.2476 271.502 66.1538 271.154 66.1147 270.756H67.146C67.1929 271.076 67.2866 271.346 67.4272 271.564C67.5679 271.783 67.7515 271.949 67.978 272.062C68.2085 272.172 68.4761 272.227 68.7808 272.227C69.0386 272.227 69.2671 272.182 69.4663 272.092C69.6655 272.002 69.8335 271.873 69.9702 271.705C70.1069 271.537 70.2104 271.334 70.2808 271.096C70.355 270.857 70.3921 270.59 70.3921 270.293C70.3921 270.023 70.355 269.773 70.2808 269.543C70.2065 269.312 70.0952 269.111 69.9468 268.939C69.8022 268.768 69.6245 268.635 69.4136 268.541C69.2026 268.443 68.9604 268.395 68.687 268.395C68.3237 268.395 68.0483 268.443 67.8608 268.541C67.6772 268.639 67.4878 268.771 67.2925 268.939ZM74.0425 268.939L73.1753 268.717L73.603 264.469H77.98V265.471H74.5229L74.2651 267.791C74.4214 267.701 74.6187 267.617 74.8569 267.539C75.0991 267.461 75.3765 267.422 75.689 267.422C76.0835 267.422 76.437 267.49 76.7495 267.627C77.062 267.76 77.3276 267.951 77.5464 268.201C77.769 268.451 77.939 268.752 78.0562 269.104C78.1733 269.455 78.2319 269.848 78.2319 270.281C78.2319 270.691 78.1753 271.068 78.062 271.412C77.9526 271.756 77.7866 272.057 77.564 272.314C77.3413 272.568 77.0601 272.766 76.7202 272.906C76.3843 273.047 75.9878 273.117 75.5308 273.117C75.187 273.117 74.8608 273.07 74.5522 272.977C74.2476 272.879 73.9741 272.732 73.7319 272.537C73.4937 272.338 73.2983 272.092 73.146 271.799C72.9976 271.502 72.9038 271.154 72.8647 270.756H73.896C73.9429 271.076 74.0366 271.346 74.1772 271.564C74.3179 271.783 74.5015 271.949 74.728 272.062C74.9585 272.172 75.2261 272.227 75.5308 272.227C75.7886 272.227 76.0171 272.182 76.2163 272.092C76.4155 272.002 76.5835 271.873 76.7202 271.705C76.8569 271.537 76.9604 271.334 77.0308 271.096C77.105 270.857 77.1421 270.59 77.1421 270.293C77.1421 270.023 77.105 269.773 77.0308 269.543C76.9565 269.312 76.8452 269.111 76.6968 268.939C76.5522 268.768 76.3745 268.635 76.1636 268.541C75.9526 268.443 75.7104 268.395 75.437 268.395C75.0737 268.395 74.7983 268.443 74.6108 268.541C74.4272 268.639 74.2378 268.771 74.0425 268.939ZM81.7944 268.928V269.818H78.9351V268.928H81.7944ZM86.8979 264.457H86.9917V265.377H86.8979C86.3237 265.377 85.8433 265.471 85.4565 265.658C85.0698 265.842 84.7632 266.09 84.5366 266.402C84.3101 266.711 84.146 267.059 84.0444 267.445C83.9468 267.832 83.8979 268.225 83.8979 268.623V269.877C83.8979 270.256 83.9429 270.592 84.0327 270.885C84.1226 271.174 84.2456 271.418 84.4019 271.617C84.5581 271.816 84.7339 271.967 84.9292 272.068C85.1284 272.17 85.3354 272.221 85.5503 272.221C85.8003 272.221 86.0229 272.174 86.2183 272.08C86.4136 271.982 86.5776 271.848 86.7104 271.676C86.8472 271.5 86.9507 271.293 87.021 271.055C87.0913 270.816 87.1265 270.555 87.1265 270.27C87.1265 270.016 87.0952 269.771 87.0327 269.537C86.9702 269.299 86.8745 269.088 86.7456 268.904C86.6167 268.717 86.4546 268.57 86.2593 268.465C86.0679 268.355 85.8394 268.301 85.5737 268.301C85.2729 268.301 84.9917 268.375 84.73 268.523C84.4722 268.668 84.2593 268.859 84.0913 269.098C83.9272 269.332 83.8335 269.588 83.8101 269.865L83.2358 269.859C83.2905 269.422 83.3921 269.049 83.5405 268.74C83.6929 268.428 83.8804 268.174 84.103 267.979C84.3296 267.779 84.5815 267.635 84.8589 267.545C85.1401 267.451 85.437 267.404 85.7495 267.404C86.1753 267.404 86.5425 267.484 86.8511 267.645C87.1597 267.805 87.4136 268.02 87.6128 268.289C87.812 268.555 87.9585 268.855 88.0522 269.191C88.1499 269.523 88.1987 269.865 88.1987 270.217C88.1987 270.619 88.1421 270.996 88.0288 271.348C87.9155 271.699 87.7456 272.008 87.519 272.273C87.2964 272.539 87.021 272.746 86.6929 272.895C86.3647 273.043 85.9839 273.117 85.5503 273.117C85.0894 273.117 84.687 273.023 84.3433 272.836C83.9995 272.645 83.7144 272.391 83.4878 272.074C83.2612 271.758 83.0913 271.406 82.978 271.02C82.8647 270.633 82.8081 270.24 82.8081 269.842V269.332C82.8081 268.73 82.8687 268.141 82.9897 267.562C83.1108 266.984 83.3198 266.461 83.6167 265.992C83.9175 265.523 84.3335 265.15 84.8647 264.873C85.396 264.596 86.0737 264.457 86.8979 264.457ZM95.2534 270.129V271.02H89.0894V270.381L92.9097 264.469H93.7944L92.8452 266.18L90.3198 270.129H95.2534ZM94.064 264.469V273H92.98V264.469H94.064Z" fill="#8794BA"/>
<path d="M75.0854 133.457H75.1792V134.377H75.0854C74.5112 134.377 74.0308 134.471 73.644 134.658C73.2573 134.842 72.9507 135.09 72.7241 135.402C72.4976 135.711 72.3335 136.059 72.2319 136.445C72.1343 136.832 72.0854 137.225 72.0854 137.623V138.877C72.0854 139.256 72.1304 139.592 72.2202 139.885C72.3101 140.174 72.4331 140.418 72.5894 140.617C72.7456 140.816 72.9214 140.967 73.1167 141.068C73.3159 141.17 73.5229 141.221 73.7378 141.221C73.9878 141.221 74.2104 141.174 74.4058 141.08C74.6011 140.982 74.7651 140.848 74.8979 140.676C75.0347 140.5 75.1382 140.293 75.2085 140.055C75.2788 139.816 75.314 139.555 75.314 139.27C75.314 139.016 75.2827 138.771 75.2202 138.537C75.1577 138.299 75.062 138.088 74.9331 137.904C74.8042 137.717 74.6421 137.57 74.4468 137.465C74.2554 137.355 74.0269 137.301 73.7612 137.301C73.4604 137.301 73.1792 137.375 72.9175 137.523C72.6597 137.668 72.4468 137.859 72.2788 138.098C72.1147 138.332 72.021 138.588 71.9976 138.865L71.4233 138.859C71.478 138.422 71.5796 138.049 71.728 137.74C71.8804 137.428 72.0679 137.174 72.2905 136.979C72.5171 136.779 72.769 136.635 73.0464 136.545C73.3276 136.451 73.6245 136.404 73.937 136.404C74.3628 136.404 74.73 136.484 75.0386 136.645C75.3472 136.805 75.6011 137.02 75.8003 137.289C75.9995 137.555 76.146 137.855 76.2397 138.191C76.3374 138.523 76.3862 138.865 76.3862 139.217C76.3862 139.619 76.3296 139.996 76.2163 140.348C76.103 140.699 75.9331 141.008 75.7065 141.273C75.4839 141.539 75.2085 141.746 74.8804 141.895C74.5522 142.043 74.1714 142.117 73.7378 142.117C73.2769 142.117 72.8745 142.023 72.5308 141.836C72.187 141.645 71.9019 141.391 71.6753 141.074C71.4487 140.758 71.2788 140.406 71.1655 140.02C71.0522 139.633 70.9956 139.24 70.9956 138.842V138.332C70.9956 137.73 71.0562 137.141 71.1772 136.562C71.2983 135.984 71.5073 135.461 71.8042 134.992C72.105 134.523 72.521 134.15 73.0522 133.873C73.5835 133.596 74.2612 133.457 75.0854 133.457ZM79.0464 137.939L78.1792 137.717L78.6069 133.469H82.9839V134.471H79.5269L79.269 136.791C79.4253 136.701 79.6226 136.617 79.8608 136.539C80.103 136.461 80.3804 136.422 80.6929 136.422C81.0874 136.422 81.4409 136.49 81.7534 136.627C82.0659 136.76 82.3315 136.951 82.5503 137.201C82.7729 137.451 82.9429 137.752 83.0601 138.104C83.1772 138.455 83.2358 138.848 83.2358 139.281C83.2358 139.691 83.1792 140.068 83.0659 140.412C82.9565 140.756 82.7905 141.057 82.5679 141.314C82.3452 141.568 82.064 141.766 81.7241 141.906C81.3882 142.047 80.9917 142.117 80.5347 142.117C80.1909 142.117 79.8647 142.07 79.5562 141.977C79.2515 141.879 78.978 141.732 78.7358 141.537C78.4976 141.338 78.3022 141.092 78.1499 140.799C78.0015 140.502 77.9077 140.154 77.8687 139.756H78.8999C78.9468 140.076 79.0405 140.346 79.1812 140.564C79.3218 140.783 79.5054 140.949 79.7319 141.062C79.9624 141.172 80.23 141.227 80.5347 141.227C80.7925 141.227 81.021 141.182 81.2202 141.092C81.4194 141.002 81.5874 140.873 81.7241 140.705C81.8608 140.537 81.9644 140.334 82.0347 140.096C82.1089 139.857 82.146 139.59 82.146 139.293C82.146 139.023 82.1089 138.773 82.0347 138.543C81.9604 138.312 81.8491 138.111 81.7007 137.939C81.5562 137.768 81.3784 137.635 81.1675 137.541C80.9565 137.443 80.7144 137.395 80.4409 137.395C80.0776 137.395 79.8022 137.443 79.6147 137.541C79.4312 137.639 79.2417 137.771 79.0464 137.939ZM90.021 137.424V138.443H84.1733V137.424H90.021ZM87.6421 134.934V141.145H86.5581V134.934H87.6421Z" fill="#8794BA"/>
</svg>
