<svg width="361" height="247" viewBox="0 0 361 247" fill="none" xmlns="http://www.w3.org/2000/svg">
<rect width="361" height="246.683" rx="32.0414" fill="white"/>
<path d="M280.044 75.5295V76.7342L273.059 92.395H270.8L277.773 77.2902H268.646V75.5295H280.044ZM284.619 90.5996H284.839C286.075 90.5996 287.079 90.4258 287.851 90.0783C288.623 89.7308 289.218 89.2636 289.635 88.6767C290.052 88.0898 290.338 87.4296 290.492 86.696C290.646 85.9546 290.724 85.194 290.724 84.414V81.8309C290.724 81.0664 290.635 80.3869 290.457 79.7922C290.287 79.1976 290.048 78.6995 289.739 78.298C289.438 77.8964 289.094 77.5914 288.708 77.3829C288.322 77.1744 287.913 77.0701 287.48 77.0701C286.986 77.0701 286.542 77.1705 286.148 77.3713C285.762 77.5644 285.434 77.8385 285.164 78.1937C284.901 78.549 284.7 78.966 284.561 79.4447C284.422 79.9235 284.353 80.4448 284.353 81.0085C284.353 81.5105 284.415 81.997 284.538 82.468C284.662 82.9391 284.851 83.3638 285.106 83.7422C285.361 84.1206 285.677 84.4218 286.056 84.6457C286.442 84.8619 286.893 84.97 287.411 84.97C287.89 84.97 288.338 84.8774 288.755 84.692C289.179 84.499 289.554 84.2403 289.878 83.916C290.21 83.5839 290.473 83.2094 290.666 82.7924C290.867 82.3754 290.982 81.939 291.013 81.4834H292.033C292.033 82.1244 291.905 82.7576 291.65 83.3831C291.403 84.0009 291.056 84.5646 290.608 85.0743C290.16 85.584 289.635 85.9932 289.033 86.3021C288.43 86.6033 287.774 86.7539 287.063 86.7539C286.229 86.7539 285.507 86.5917 284.897 86.2674C284.287 85.9431 283.785 85.5106 283.391 84.97C283.005 84.4295 282.716 83.8271 282.523 83.163C282.337 82.4912 282.245 81.8116 282.245 81.1243C282.245 80.3212 282.357 79.5683 282.581 78.8656C282.805 78.1628 283.137 77.5451 283.577 77.0122C284.017 76.4717 284.561 76.0508 285.21 75.7496C285.866 75.4485 286.623 75.2979 287.48 75.2979C288.446 75.2979 289.268 75.4909 289.948 75.8771C290.627 76.2632 291.179 76.7806 291.604 77.4292C292.036 78.0779 292.353 78.8077 292.554 79.6185C292.755 80.4293 292.855 81.2633 292.855 82.1205V82.8966C292.855 83.7692 292.797 84.6573 292.681 85.5608C292.573 86.4566 292.361 87.3138 292.044 88.1323C291.735 88.9509 291.284 89.6845 290.689 90.3332C290.094 90.9741 289.318 91.4838 288.361 91.8622C287.411 92.2329 286.237 92.4182 284.839 92.4182H284.619V90.5996ZM295.647 79.6648V78.7729C295.647 78.132 295.786 77.5489 296.064 77.0238C296.342 76.4987 296.739 76.0778 297.257 75.7612C297.774 75.4446 298.388 75.2863 299.099 75.2863C299.824 75.2863 300.442 75.4446 300.952 75.7612C301.469 76.0778 301.867 76.4987 302.145 77.0238C302.423 77.5489 302.562 78.132 302.562 78.7729V79.6648C302.562 80.2903 302.423 80.8656 302.145 81.3908C301.875 81.9159 301.481 82.3367 300.963 82.6534C300.454 82.97 299.84 83.1283 299.122 83.1283C298.404 83.1283 297.782 82.97 297.257 82.6534C296.739 82.3367 296.342 81.9159 296.064 81.3908C295.786 80.8656 295.647 80.2903 295.647 79.6648ZM297.257 78.7729V79.6648C297.257 80.0201 297.322 80.356 297.454 80.6726C297.593 80.9892 297.801 81.2479 298.079 81.4487C298.357 81.6417 298.705 81.7383 299.122 81.7383C299.539 81.7383 299.882 81.6417 300.153 81.4487C300.423 81.2479 300.624 80.9892 300.755 80.6726C300.886 80.356 300.952 80.0201 300.952 79.6648V78.7729C300.952 78.41 300.882 78.0702 300.743 77.7536C300.612 77.4292 300.407 77.1705 300.129 76.9775C299.859 76.7767 299.516 76.6763 299.099 76.6763C298.689 76.6763 298.346 76.7767 298.068 76.9775C297.797 77.1705 297.593 77.4292 297.454 77.7536C297.322 78.0702 297.257 78.41 297.257 78.7729ZM303.859 89.1632V88.2597C303.859 87.6265 303.998 87.0473 304.276 86.5222C304.554 85.9971 304.952 85.5762 305.469 85.2596C305.987 84.943 306.601 84.7847 307.311 84.7847C308.037 84.7847 308.655 84.943 309.165 85.2596C309.682 85.5762 310.08 85.9971 310.358 86.5222C310.636 87.0473 310.775 87.6265 310.775 88.2597V89.1632C310.775 89.7965 310.636 90.3756 310.358 90.9008C310.087 91.4259 309.694 91.8467 309.176 92.1634C308.666 92.48 308.053 92.6383 307.334 92.6383C306.616 92.6383 305.998 92.48 305.481 92.1634C304.964 91.8467 304.562 91.4259 304.276 90.9008C303.998 90.3756 303.859 89.7965 303.859 89.1632ZM305.469 88.2597V89.1632C305.469 89.5185 305.535 89.8582 305.666 90.1826C305.805 90.4992 306.014 90.7579 306.292 90.9587C306.57 91.1517 306.917 91.2483 307.334 91.2483C307.751 91.2483 308.095 91.1517 308.365 90.9587C308.643 90.7579 308.848 90.4992 308.979 90.1826C309.11 89.866 309.176 89.5262 309.176 89.1632V88.2597C309.176 87.8968 309.107 87.557 308.968 87.2404C308.836 86.9238 308.632 86.6689 308.354 86.4759C308.083 86.2751 307.736 86.1747 307.311 86.1747C306.902 86.1747 306.558 86.2751 306.28 86.4759C306.01 86.6689 305.805 86.9238 305.666 87.2404C305.535 87.557 305.469 87.8968 305.469 88.2597ZM307.844 77.9273L299.608 91.1093L298.404 90.3448L306.639 77.1628L307.844 77.9273Z" fill="#0088F0"/>
<path d="M270.91 107.876V107.754C270.91 107.342 270.97 106.959 271.09 106.607C271.21 106.251 271.383 105.942 271.608 105.681C271.834 105.417 272.107 105.213 272.428 105.068C272.749 104.92 273.108 104.846 273.507 104.846C273.909 104.846 274.27 104.92 274.591 105.068C274.915 105.213 275.19 105.417 275.416 105.681C275.645 105.942 275.819 106.251 275.939 106.607C276.059 106.959 276.119 107.342 276.119 107.754V107.876C276.119 108.288 276.059 108.671 275.939 109.023C275.819 109.376 275.645 109.684 275.416 109.949C275.19 110.21 274.917 110.414 274.596 110.562C274.279 110.707 273.919 110.779 273.517 110.779C273.115 110.779 272.754 110.707 272.433 110.562C272.112 110.414 271.838 110.21 271.608 109.949C271.383 109.684 271.21 109.376 271.09 109.023C270.97 108.671 270.91 108.288 270.91 107.876ZM271.889 107.754V107.876C271.889 108.161 271.922 108.431 271.989 108.685C272.056 108.935 272.157 109.157 272.291 109.351C272.428 109.545 272.599 109.699 272.803 109.811C273.008 109.921 273.246 109.975 273.517 109.975C273.785 109.975 274.02 109.921 274.221 109.811C274.425 109.699 274.594 109.545 274.728 109.351C274.862 109.157 274.963 108.935 275.03 108.685C275.1 108.431 275.136 108.161 275.136 107.876V107.754C275.136 107.472 275.1 107.206 275.03 106.956C274.963 106.702 274.861 106.478 274.723 106.284C274.589 106.087 274.42 105.932 274.215 105.819C274.014 105.706 273.778 105.65 273.507 105.65C273.239 105.65 273.003 105.706 272.798 105.819C272.597 105.932 272.428 106.087 272.291 106.284C272.157 106.478 272.056 106.702 271.989 106.956C271.922 107.206 271.889 107.472 271.889 107.754ZM278.324 106.052V112.873H277.341V104.952H278.24L278.324 106.052ZM282.179 107.765V107.876C282.179 108.292 282.13 108.678 282.031 109.034C281.932 109.387 281.788 109.693 281.598 109.954C281.411 110.215 281.18 110.418 280.905 110.562C280.63 110.707 280.314 110.779 279.958 110.779C279.595 110.779 279.274 110.719 278.996 110.599C278.717 110.479 278.481 110.305 278.287 110.076C278.093 109.847 277.938 109.572 277.822 109.251C277.709 108.93 277.631 108.569 277.589 108.167V107.575C277.631 107.151 277.711 106.772 277.827 106.438C277.943 106.103 278.097 105.817 278.287 105.581C278.481 105.341 278.716 105.16 278.991 105.036C279.266 104.909 279.583 104.846 279.942 104.846C280.302 104.846 280.621 104.916 280.9 105.057C281.178 105.195 281.412 105.392 281.603 105.65C281.793 105.907 281.936 106.215 282.031 106.575C282.13 106.931 282.179 107.328 282.179 107.765ZM281.196 107.876V107.765C281.196 107.479 281.166 107.211 281.106 106.961C281.046 106.707 280.952 106.485 280.825 106.295C280.702 106.101 280.543 105.949 280.35 105.84C280.156 105.727 279.925 105.671 279.657 105.671C279.41 105.671 279.195 105.713 279.012 105.798C278.832 105.882 278.679 105.997 278.552 106.141C278.425 106.282 278.321 106.445 278.24 106.628C278.162 106.808 278.104 106.995 278.065 107.188V108.558C278.136 108.805 278.234 109.038 278.361 109.256C278.488 109.471 278.657 109.646 278.869 109.78C279.08 109.91 279.347 109.975 279.667 109.975C279.932 109.975 280.159 109.921 280.35 109.811C280.543 109.699 280.702 109.545 280.825 109.351C280.952 109.157 281.046 108.935 281.106 108.685C281.166 108.431 281.196 108.161 281.196 107.876ZM285.823 104.952V105.703H282.729V104.952H285.823ZM283.776 103.561H284.755V109.256C284.755 109.45 284.785 109.596 284.844 109.695C284.904 109.794 284.982 109.859 285.077 109.891C285.172 109.922 285.275 109.938 285.384 109.938C285.465 109.938 285.55 109.931 285.638 109.917C285.729 109.9 285.798 109.885 285.844 109.875L285.849 110.673C285.772 110.698 285.669 110.721 285.542 110.742C285.419 110.767 285.269 110.779 285.093 110.779C284.853 110.779 284.633 110.732 284.432 110.636C284.231 110.541 284.071 110.382 283.951 110.16C283.834 109.935 283.776 109.632 283.776 109.251V103.561ZM288.033 104.952V110.673H287.05V104.952H288.033ZM286.976 103.434C286.976 103.275 287.023 103.141 287.118 103.032C287.217 102.923 287.362 102.868 287.552 102.868C287.739 102.868 287.882 102.923 287.98 103.032C288.083 103.141 288.134 103.275 288.134 103.434C288.134 103.586 288.083 103.716 287.98 103.825C287.882 103.931 287.739 103.984 287.552 103.984C287.362 103.984 287.217 103.931 287.118 103.825C287.023 103.716 286.976 103.586 286.976 103.434ZM289.345 107.876V107.754C289.345 107.342 289.405 106.959 289.524 106.607C289.644 106.251 289.817 105.942 290.043 105.681C290.268 105.417 290.541 105.213 290.862 105.068C291.183 104.92 291.543 104.846 291.941 104.846C292.343 104.846 292.704 104.92 293.025 105.068C293.349 105.213 293.624 105.417 293.85 105.681C294.079 105.942 294.254 106.251 294.374 106.607C294.493 106.959 294.553 107.342 294.553 107.754V107.876C294.553 108.288 294.493 108.671 294.374 109.023C294.254 109.376 294.079 109.684 293.85 109.949C293.624 110.21 293.351 110.414 293.03 110.562C292.713 110.707 292.354 110.779 291.952 110.779C291.55 110.779 291.188 110.707 290.868 110.562C290.547 110.414 290.272 110.21 290.043 109.949C289.817 109.684 289.644 109.376 289.524 109.023C289.405 108.671 289.345 108.288 289.345 107.876ZM290.323 107.754V107.876C290.323 108.161 290.356 108.431 290.423 108.685C290.49 108.935 290.591 109.157 290.725 109.351C290.862 109.545 291.033 109.699 291.238 109.811C291.442 109.921 291.68 109.975 291.952 109.975C292.22 109.975 292.454 109.921 292.655 109.811C292.859 109.699 293.029 109.545 293.163 109.351C293.297 109.157 293.397 108.935 293.464 108.685C293.535 108.431 293.57 108.161 293.57 107.876V107.754C293.57 107.472 293.535 107.206 293.464 106.956C293.397 106.702 293.295 106.478 293.157 106.284C293.023 106.087 292.854 105.932 292.65 105.819C292.449 105.706 292.213 105.65 291.941 105.65C291.673 105.65 291.437 105.706 291.232 105.819C291.032 105.932 290.862 106.087 290.725 106.284C290.591 106.478 290.49 106.702 290.423 106.956C290.356 107.206 290.323 107.472 290.323 107.754ZM296.758 106.173V110.673H295.78V104.952H296.706L296.758 106.173ZM296.526 107.596L296.119 107.58C296.122 107.188 296.18 106.827 296.293 106.496C296.406 106.161 296.565 105.87 296.769 105.623C296.974 105.376 297.217 105.186 297.499 105.052C297.784 104.915 298.1 104.846 298.445 104.846C298.727 104.846 298.981 104.885 299.207 104.962C299.433 105.036 299.625 105.156 299.783 105.322C299.945 105.487 300.069 105.703 300.153 105.967C300.238 106.228 300.28 106.547 300.28 106.924V110.673H299.297V106.914C299.297 106.614 299.253 106.374 299.165 106.194C299.076 106.011 298.948 105.879 298.779 105.798C298.609 105.713 298.401 105.671 298.155 105.671C297.911 105.671 297.689 105.722 297.488 105.824C297.291 105.926 297.12 106.067 296.975 106.247C296.834 106.427 296.723 106.633 296.642 106.866C296.565 107.095 296.526 107.338 296.526 107.596ZM307.562 102.932V110.673H306.584V104.153L304.611 104.872V103.989L307.409 102.932H307.562Z" fill="#8794BA"/>
<path d="M279.777 155.218C279.777 156.245 279.538 157.117 279.059 157.836C278.588 158.546 277.947 159.087 277.136 159.457C276.333 159.828 275.426 160.013 274.414 160.013C273.403 160.013 272.491 159.828 271.681 159.457C270.87 159.087 270.229 158.546 269.758 157.836C269.287 157.117 269.051 156.245 269.051 155.218C269.051 154.546 269.179 153.932 269.433 153.376C269.696 152.812 270.063 152.322 270.534 151.905C271.013 151.488 271.576 151.167 272.225 150.944C272.881 150.712 273.603 150.596 274.391 150.596C275.426 150.596 276.349 150.797 277.16 151.198C277.97 151.592 278.607 152.137 279.071 152.832C279.542 153.527 279.777 154.322 279.777 155.218ZM277.623 155.171C277.623 154.546 277.488 153.994 277.217 153.515C276.947 153.029 276.569 152.65 276.082 152.38C275.596 152.11 275.032 151.974 274.391 151.974C273.735 151.974 273.167 152.11 272.688 152.38C272.217 152.65 271.85 153.029 271.588 153.515C271.325 153.994 271.194 154.546 271.194 155.171C271.194 155.82 271.321 156.376 271.576 156.839C271.839 157.295 272.21 157.646 272.688 157.894C273.175 158.133 273.75 158.253 274.414 158.253C275.078 158.253 275.65 158.133 276.129 157.894C276.607 157.646 276.974 157.295 277.229 156.839C277.492 156.376 277.623 155.82 277.623 155.171ZM279.384 147.306C279.384 148.125 279.167 148.862 278.735 149.519C278.302 150.175 277.712 150.693 276.963 151.071C276.214 151.449 275.364 151.639 274.414 151.639C273.449 151.639 272.588 151.449 271.831 151.071C271.082 150.693 270.495 150.175 270.07 149.519C269.646 148.862 269.433 148.125 269.433 147.306C269.433 146.326 269.646 145.492 270.07 144.804C270.503 144.117 271.094 143.592 271.843 143.229C272.592 142.866 273.445 142.685 274.403 142.685C275.368 142.685 276.225 142.866 276.974 143.229C277.723 143.592 278.31 144.117 278.735 144.804C279.167 145.492 279.384 146.326 279.384 147.306ZM277.241 147.341C277.241 146.777 277.121 146.279 276.882 145.847C276.642 145.414 276.31 145.075 275.885 144.827C275.461 144.573 274.966 144.445 274.403 144.445C273.839 144.445 273.345 144.565 272.92 144.804C272.503 145.036 272.175 145.368 271.935 145.8C271.704 146.233 271.588 146.746 271.588 147.341C271.588 147.92 271.704 148.426 271.935 148.859C272.175 149.291 272.507 149.627 272.932 149.866C273.356 150.106 273.851 150.225 274.414 150.225C274.978 150.225 275.468 150.106 275.885 149.866C276.31 149.627 276.642 149.291 276.882 148.859C277.121 148.426 277.241 147.92 277.241 147.341ZM293.388 142.916V144.121L286.403 159.782H284.144L291.118 144.677H281.99V142.916H293.388ZM295.647 147.051V146.16C295.647 145.519 295.786 144.936 296.064 144.41C296.342 143.885 296.739 143.464 297.257 143.148C297.774 142.831 298.388 142.673 299.099 142.673C299.824 142.673 300.442 142.831 300.952 143.148C301.469 143.464 301.867 143.885 302.145 144.41C302.423 144.936 302.562 145.519 302.562 146.16V147.051C302.562 147.677 302.423 148.252 302.145 148.777C301.875 149.303 301.481 149.723 300.963 150.04C300.454 150.357 299.84 150.515 299.122 150.515C298.404 150.515 297.782 150.357 297.257 150.04C296.739 149.723 296.342 149.303 296.064 148.777C295.786 148.252 295.647 147.677 295.647 147.051ZM297.257 146.16V147.051C297.257 147.407 297.322 147.743 297.454 148.059C297.593 148.376 297.801 148.635 298.079 148.835C298.357 149.028 298.705 149.125 299.122 149.125C299.539 149.125 299.882 149.028 300.153 148.835C300.423 148.635 300.624 148.376 300.755 148.059C300.886 147.743 300.952 147.407 300.952 147.051V146.16C300.952 145.797 300.882 145.457 300.743 145.14C300.612 144.816 300.407 144.557 300.129 144.364C299.859 144.163 299.516 144.063 299.099 144.063C298.689 144.063 298.346 144.163 298.068 144.364C297.797 144.557 297.593 144.816 297.454 145.14C297.322 145.457 297.257 145.797 297.257 146.16ZM303.859 156.55V155.646C303.859 155.013 303.998 154.434 304.276 153.909C304.554 153.384 304.952 152.963 305.469 152.646C305.987 152.33 306.601 152.171 307.311 152.171C308.037 152.171 308.655 152.33 309.165 152.646C309.682 152.963 310.08 153.384 310.358 153.909C310.636 154.434 310.775 155.013 310.775 155.646V156.55C310.775 157.183 310.636 157.762 310.358 158.287C310.087 158.813 309.694 159.233 309.176 159.55C308.666 159.867 308.053 160.025 307.334 160.025C306.616 160.025 305.998 159.867 305.481 159.55C304.964 159.233 304.562 158.813 304.276 158.287C303.998 157.762 303.859 157.183 303.859 156.55ZM305.469 155.646V156.55C305.469 156.905 305.535 157.245 305.666 157.569C305.805 157.886 306.014 158.145 306.292 158.345C306.57 158.538 306.917 158.635 307.334 158.635C307.751 158.635 308.095 158.538 308.365 158.345C308.643 158.145 308.848 157.886 308.979 157.569C309.11 157.253 309.176 156.913 309.176 156.55V155.646C309.176 155.283 309.107 154.944 308.968 154.627C308.836 154.31 308.632 154.056 308.354 153.863C308.083 153.662 307.736 153.561 307.311 153.561C306.902 153.561 306.558 153.662 306.28 153.863C306.01 154.056 305.805 154.31 305.666 154.627C305.535 154.944 305.469 155.283 305.469 155.646ZM307.844 145.314L299.608 158.496L298.404 157.731L306.639 144.549L307.844 145.314Z" fill="#EF2A82"/>
<path d="M270.91 175.263V175.141C270.91 174.729 270.97 174.346 271.09 173.993C271.21 173.637 271.383 173.329 271.608 173.068C271.834 172.804 272.107 172.599 272.428 172.455C272.749 172.307 273.108 172.233 273.507 172.233C273.909 172.233 274.27 172.307 274.591 172.455C274.915 172.599 275.19 172.804 275.416 173.068C275.645 173.329 275.819 173.637 275.939 173.993C276.059 174.346 276.119 174.729 276.119 175.141V175.263C276.119 175.675 276.059 176.058 275.939 176.41C275.819 176.763 275.645 177.071 275.416 177.336C275.19 177.596 274.917 177.801 274.596 177.949C274.279 178.093 273.919 178.166 273.517 178.166C273.115 178.166 272.754 178.093 272.433 177.949C272.112 177.801 271.838 177.596 271.608 177.336C271.383 177.071 271.21 176.763 271.09 176.41C270.97 176.058 270.91 175.675 270.91 175.263ZM271.889 175.141V175.263C271.889 175.548 271.922 175.818 271.989 176.072C272.056 176.322 272.157 176.544 272.291 176.738C272.428 176.932 272.599 177.085 272.803 177.198C273.008 177.307 273.246 177.362 273.517 177.362C273.785 177.362 274.02 177.307 274.221 177.198C274.425 177.085 274.594 176.932 274.728 176.738C274.862 176.544 274.963 176.322 275.03 176.072C275.1 175.818 275.136 175.548 275.136 175.263V175.141C275.136 174.859 275.1 174.593 275.03 174.342C274.963 174.089 274.861 173.865 274.723 173.671C274.589 173.473 274.42 173.318 274.215 173.206C274.014 173.093 273.778 173.036 273.507 173.036C273.239 173.036 273.003 173.093 272.798 173.206C272.597 173.318 272.428 173.473 272.291 173.671C272.157 173.865 272.056 174.089 271.989 174.342C271.922 174.593 271.889 174.859 271.889 175.141ZM278.324 173.438V180.26H277.341V172.338H278.24L278.324 173.438ZM282.179 175.152V175.263C282.179 175.679 282.13 176.065 282.031 176.421C281.932 176.773 281.788 177.08 281.598 177.341C281.411 177.602 281.18 177.804 280.905 177.949C280.63 178.093 280.314 178.166 279.958 178.166C279.595 178.166 279.274 178.106 278.996 177.986C278.717 177.866 278.481 177.692 278.287 177.462C278.093 177.233 277.938 176.958 277.822 176.638C277.709 176.317 277.631 175.955 277.589 175.553V174.961C277.631 174.538 277.711 174.159 277.827 173.824C277.943 173.489 278.097 173.204 278.287 172.968C278.481 172.728 278.716 172.546 278.991 172.423C279.266 172.296 279.583 172.233 279.942 172.233C280.302 172.233 280.621 172.303 280.9 172.444C281.178 172.582 281.412 172.779 281.603 173.036C281.793 173.294 281.936 173.602 282.031 173.962C282.13 174.318 282.179 174.714 282.179 175.152ZM281.196 175.263V175.152C281.196 174.866 281.166 174.598 281.106 174.348C281.046 174.094 280.952 173.872 280.825 173.681C280.702 173.488 280.543 173.336 280.35 173.227C280.156 173.114 279.925 173.057 279.657 173.057C279.41 173.057 279.195 173.1 279.012 173.184C278.832 173.269 278.679 173.384 278.552 173.528C278.425 173.669 278.321 173.831 278.24 174.015C278.162 174.194 278.104 174.381 278.065 174.575V175.945C278.136 176.192 278.234 176.424 278.361 176.643C278.488 176.858 278.657 177.032 278.869 177.166C279.08 177.297 279.347 177.362 279.667 177.362C279.932 177.362 280.159 177.307 280.35 177.198C280.543 177.085 280.702 176.932 280.825 176.738C280.952 176.544 281.046 176.322 281.106 176.072C281.166 175.818 281.196 175.548 281.196 175.263ZM285.823 172.338V173.089H282.729V172.338H285.823ZM283.776 170.948H284.755V176.643C284.755 176.837 284.785 176.983 284.844 177.082C284.904 177.18 284.982 177.246 285.077 177.277C285.172 177.309 285.275 177.325 285.384 177.325C285.465 177.325 285.55 177.318 285.638 177.304C285.729 177.286 285.798 177.272 285.844 177.261L285.849 178.06C285.772 178.085 285.669 178.108 285.542 178.129C285.419 178.153 285.269 178.166 285.093 178.166C284.853 178.166 284.633 178.118 284.432 178.023C284.231 177.928 284.071 177.769 283.951 177.547C283.834 177.321 283.776 177.018 283.776 176.638V170.948ZM288.033 172.338V178.06H287.05V172.338H288.033ZM286.976 170.821C286.976 170.662 287.023 170.528 287.118 170.419C287.217 170.309 287.362 170.255 287.552 170.255C287.739 170.255 287.882 170.309 287.98 170.419C288.083 170.528 288.134 170.662 288.134 170.821C288.134 170.972 288.083 171.103 287.98 171.212C287.882 171.318 287.739 171.371 287.552 171.371C287.362 171.371 287.217 171.318 287.118 171.212C287.023 171.103 286.976 170.972 286.976 170.821ZM289.345 175.263V175.141C289.345 174.729 289.405 174.346 289.524 173.993C289.644 173.637 289.817 173.329 290.043 173.068C290.268 172.804 290.541 172.599 290.862 172.455C291.183 172.307 291.543 172.233 291.941 172.233C292.343 172.233 292.704 172.307 293.025 172.455C293.349 172.599 293.624 172.804 293.85 173.068C294.079 173.329 294.254 173.637 294.374 173.993C294.493 174.346 294.553 174.729 294.553 175.141V175.263C294.553 175.675 294.493 176.058 294.374 176.41C294.254 176.763 294.079 177.071 293.85 177.336C293.624 177.596 293.351 177.801 293.03 177.949C292.713 178.093 292.354 178.166 291.952 178.166C291.55 178.166 291.188 178.093 290.868 177.949C290.547 177.801 290.272 177.596 290.043 177.336C289.817 177.071 289.644 176.763 289.524 176.41C289.405 176.058 289.345 175.675 289.345 175.263ZM290.323 175.141V175.263C290.323 175.548 290.356 175.818 290.423 176.072C290.49 176.322 290.591 176.544 290.725 176.738C290.862 176.932 291.033 177.085 291.238 177.198C291.442 177.307 291.68 177.362 291.952 177.362C292.22 177.362 292.454 177.307 292.655 177.198C292.859 177.085 293.029 176.932 293.163 176.738C293.297 176.544 293.397 176.322 293.464 176.072C293.535 175.818 293.57 175.548 293.57 175.263V175.141C293.57 174.859 293.535 174.593 293.464 174.342C293.397 174.089 293.295 173.865 293.157 173.671C293.023 173.473 292.854 173.318 292.65 173.206C292.449 173.093 292.213 173.036 291.941 173.036C291.673 173.036 291.437 173.093 291.232 173.206C291.032 173.318 290.862 173.473 290.725 173.671C290.591 173.865 290.49 174.089 290.423 174.342C290.356 174.593 290.323 174.859 290.323 175.141ZM296.758 173.56V178.06H295.78V172.338H296.706L296.758 173.56ZM296.526 174.982L296.119 174.966C296.122 174.575 296.18 174.214 296.293 173.882C296.406 173.547 296.565 173.257 296.769 173.01C296.974 172.763 297.217 172.573 297.499 172.439C297.784 172.301 298.1 172.233 298.445 172.233C298.727 172.233 298.981 172.271 299.207 172.349C299.433 172.423 299.625 172.543 299.783 172.708C299.945 172.874 300.069 173.089 300.153 173.354C300.238 173.614 300.28 173.934 300.28 174.311V178.06H299.297V174.3C299.297 174.001 299.253 173.761 299.165 173.581C299.076 173.398 298.948 173.265 298.779 173.184C298.609 173.1 298.401 173.057 298.155 173.057C297.911 173.057 297.689 173.109 297.488 173.211C297.291 173.313 297.12 173.454 296.975 173.634C296.834 173.814 296.723 174.02 296.642 174.253C296.565 174.482 296.526 174.725 296.526 174.982ZM309.392 177.256V178.06H304.352V177.357L306.875 174.549C307.185 174.203 307.425 173.911 307.594 173.671C307.767 173.428 307.886 173.211 307.953 173.02C308.024 172.827 308.059 172.629 308.059 172.428C308.059 172.174 308.006 171.945 307.9 171.741C307.798 171.533 307.647 171.367 307.446 171.244C307.245 171.12 307.002 171.059 306.716 171.059C306.374 171.059 306.088 171.126 305.859 171.26C305.634 171.39 305.464 171.573 305.352 171.809C305.239 172.046 305.182 172.317 305.182 172.624H304.204C304.204 172.19 304.299 171.794 304.49 171.434C304.68 171.074 304.962 170.789 305.336 170.577C305.709 170.362 306.17 170.255 306.716 170.255C307.202 170.255 307.618 170.341 307.964 170.514C308.309 170.683 308.574 170.923 308.757 171.233C308.944 171.54 309.037 171.899 309.037 172.312C309.037 172.537 308.999 172.767 308.921 172.999C308.847 173.228 308.743 173.458 308.609 173.687C308.479 173.916 308.325 174.142 308.149 174.364C307.976 174.586 307.791 174.804 307.594 175.019L305.531 177.256H309.392Z" fill="#8794BA"/>
<path d="M139.093 76.537C139.041 75.1603 140.116 73.9965 141.493 74.0065C153.491 74.0931 165.166 78.0571 174.756 85.3418C185.009 93.1305 192.244 104.233 195.229 116.758C198.213 129.284 196.763 142.456 191.124 154.032C185.485 165.607 176.007 174.87 164.305 180.24C152.603 185.611 139.4 186.758 126.947 183.486C114.494 180.214 103.56 172.725 96.0098 162.296C88.4592 151.866 84.7584 139.141 85.5382 126.289C86.2675 114.268 90.874 102.832 98.6312 93.6784C99.5218 92.6274 101.105 92.5716 102.115 93.5084C103.125 94.4452 103.179 96.0197 102.293 97.0746C95.3182 105.379 91.1771 115.723 90.5177 126.591C89.8079 138.291 93.1769 149.876 100.051 159.37C106.925 168.865 116.878 175.683 128.215 178.661C139.552 181.64 151.571 180.596 162.224 175.706C172.877 170.817 181.506 162.385 186.639 151.847C191.772 141.309 193.093 129.317 190.376 117.915C187.659 106.512 181.072 96.4048 171.738 89.3143C163.067 82.7279 152.525 79.1234 141.681 78.9972C140.303 78.9812 139.145 77.9136 139.093 76.537Z" fill="#EF2A82"/>
<path d="M138.107 52.9947C138.03 51.008 139.578 49.3263 141.567 49.338C157.14 49.4301 172.381 54.0497 185.413 62.6719C199.447 71.9575 210.21 85.4163 216.183 101.148C222.156 116.881 223.037 134.091 218.702 150.351C214.367 166.611 205.035 181.099 192.022 191.769C179.01 202.44 162.975 208.754 146.181 209.82C129.387 210.887 112.682 206.652 98.4245 197.713C84.167 188.774 73.077 175.583 66.72 160.002C60.8172 145.534 59.2722 129.684 62.2322 114.394C62.6101 112.442 64.5625 111.253 66.4956 111.718C68.4287 112.182 69.6096 114.126 69.2403 116.079C66.6278 129.901 68.0535 144.211 73.3865 157.282C79.1736 171.467 89.2695 183.475 102.249 191.613C115.228 199.75 130.436 203.606 145.725 202.635C161.013 201.664 175.611 195.916 187.457 186.202C199.303 176.488 207.799 163.299 211.745 148.497C215.692 133.694 214.89 118.026 209.452 103.704C204.014 89.3822 194.216 77.1298 181.44 68.6765C169.666 60.8867 155.912 56.6857 141.847 56.5405C139.859 56.52 138.185 54.9814 138.107 52.9947Z" fill="#0088F0"/>
<path d="M133.222 128.5L132.7 128.366L132.957 125.81H135.591V126.413H133.511L133.356 127.809C133.45 127.755 133.568 127.705 133.712 127.658C133.858 127.611 134.024 127.587 134.212 127.587C134.45 127.587 134.663 127.628 134.851 127.711C135.039 127.79 135.198 127.906 135.33 128.056C135.464 128.206 135.566 128.387 135.637 128.599C135.707 128.81 135.742 129.047 135.742 129.308C135.742 129.554 135.708 129.781 135.64 129.988C135.574 130.195 135.475 130.376 135.341 130.531C135.207 130.684 135.037 130.802 134.833 130.887C134.631 130.972 134.392 131.014 134.117 131.014C133.91 131.014 133.714 130.986 133.529 130.929C133.345 130.871 133.181 130.782 133.035 130.665C132.892 130.545 132.774 130.397 132.682 130.221C132.593 130.042 132.537 129.833 132.513 129.593H133.134C133.162 129.786 133.218 129.948 133.303 130.08C133.388 130.211 133.498 130.311 133.634 130.379C133.773 130.445 133.934 130.478 134.117 130.478C134.272 130.478 134.41 130.451 134.53 130.397C134.65 130.343 134.751 130.265 134.833 130.164C134.915 130.063 134.977 129.941 135.02 129.798C135.064 129.654 135.087 129.493 135.087 129.315C135.087 129.152 135.064 129.002 135.02 128.863C134.975 128.725 134.908 128.604 134.819 128.5C134.732 128.397 134.625 128.317 134.498 128.261C134.371 128.202 134.225 128.172 134.061 128.172C133.842 128.172 133.677 128.202 133.564 128.261C133.453 128.319 133.339 128.399 133.222 128.5ZM137.283 128.5L136.761 128.366L137.019 125.81H139.652V126.413H137.572L137.417 127.809C137.511 127.755 137.63 127.705 137.773 127.658C137.919 127.611 138.086 127.587 138.274 127.587C138.511 127.587 138.724 127.628 138.912 127.711C139.1 127.79 139.26 127.906 139.391 128.056C139.525 128.206 139.627 128.387 139.698 128.599C139.768 128.81 139.804 129.047 139.804 129.308C139.804 129.554 139.77 129.781 139.701 129.988C139.636 130.195 139.536 130.376 139.402 130.531C139.268 130.684 139.099 130.802 138.894 130.887C138.692 130.972 138.453 131.014 138.179 131.014C137.972 131.014 137.775 130.986 137.59 130.929C137.406 130.871 137.242 130.782 137.096 130.665C136.953 130.545 136.835 130.397 136.744 130.221C136.654 130.042 136.598 129.833 136.574 129.593H137.195C137.223 129.786 137.28 129.948 137.364 130.08C137.449 130.211 137.559 130.311 137.696 130.379C137.834 130.445 137.995 130.478 138.179 130.478C138.334 130.478 138.471 130.451 138.591 130.397C138.711 130.343 138.812 130.265 138.894 130.164C138.976 130.063 139.039 129.941 139.081 129.798C139.126 129.654 139.148 129.493 139.148 129.315C139.148 129.152 139.126 129.002 139.081 128.863C139.036 128.725 138.969 128.604 138.88 128.5C138.793 128.397 138.686 128.317 138.559 128.261C138.432 128.202 138.287 128.172 138.122 128.172C137.904 128.172 137.738 128.202 137.625 128.261C137.515 128.319 137.401 128.399 137.283 128.5ZM141.947 128.493V129.029H140.227V128.493H141.947ZM145.018 125.803H145.074V126.357H145.018C144.672 126.357 144.383 126.413 144.151 126.526C143.918 126.637 143.733 126.786 143.597 126.974C143.461 127.159 143.362 127.369 143.301 127.601C143.242 127.834 143.213 128.07 143.213 128.31V129.064C143.213 129.292 143.24 129.494 143.294 129.671C143.348 129.845 143.422 129.992 143.516 130.111C143.61 130.231 143.716 130.322 143.833 130.383C143.953 130.444 144.078 130.474 144.207 130.474C144.357 130.474 144.491 130.446 144.609 130.39C144.726 130.331 144.825 130.25 144.905 130.147C144.987 130.041 145.049 129.916 145.092 129.773C145.134 129.63 145.155 129.472 145.155 129.301C145.155 129.148 145.136 129.001 145.099 128.86C145.061 128.716 145.004 128.59 144.926 128.479C144.849 128.366 144.751 128.278 144.634 128.215C144.518 128.149 144.381 128.116 144.221 128.116C144.04 128.116 143.871 128.161 143.713 128.25C143.558 128.337 143.43 128.452 143.329 128.595C143.23 128.736 143.174 128.89 143.16 129.057L142.814 129.054C142.847 128.791 142.908 128.566 142.998 128.38C143.089 128.192 143.202 128.04 143.336 127.922C143.472 127.802 143.624 127.715 143.791 127.661C143.96 127.605 144.139 127.577 144.327 127.577C144.583 127.577 144.804 127.625 144.99 127.721C145.175 127.818 145.328 127.947 145.448 128.109C145.568 128.269 145.656 128.45 145.712 128.652C145.771 128.852 145.8 129.057 145.8 129.269C145.8 129.511 145.766 129.738 145.698 129.949C145.63 130.161 145.528 130.346 145.391 130.506C145.257 130.666 145.092 130.791 144.894 130.88C144.697 130.969 144.468 131.014 144.207 131.014C143.93 131.014 143.688 130.957 143.481 130.845C143.274 130.729 143.102 130.577 142.966 130.386C142.83 130.196 142.727 129.984 142.659 129.752C142.591 129.519 142.557 129.283 142.557 129.043V128.736C142.557 128.375 142.593 128.02 142.666 127.672C142.739 127.324 142.865 127.009 143.044 126.727C143.225 126.445 143.475 126.221 143.794 126.054C144.114 125.887 144.522 125.803 145.018 125.803ZM150.045 129.216V129.752H146.336V129.368L148.635 125.81H149.167L148.596 126.84L147.077 129.216H150.045ZM149.329 125.81V130.943H148.677V125.81H149.329Z" fill="#8794BA"/>
<path d="M37.872 29.6341L35.6064 35.8716H34.6804L37.2892 29.0277H37.8861L37.872 29.6341ZM39.771 35.8716L37.5007 29.6341L37.4866 29.0277H38.0835L40.7017 35.8716H39.771ZM39.6535 33.3381V34.0807H35.8085V33.3381H39.6535ZM44.7818 30.7857H45.5715V35.7635C45.5715 36.2116 45.4806 36.594 45.2988 36.9105C45.1171 37.227 44.8633 37.4667 44.5374 37.6296C44.2146 37.7957 43.8417 37.8788 43.4186 37.8788C43.2431 37.8788 43.0363 37.8506 42.7982 37.7942C42.5631 37.7409 42.3312 37.6484 42.1025 37.5168C41.8769 37.3883 41.6873 37.2144 41.5337 36.9951L41.9897 36.478C42.2028 36.735 42.4253 36.9136 42.6571 37.0139C42.8922 37.1141 43.1241 37.1643 43.3528 37.1643C43.6286 37.1643 43.8667 37.1126 44.0673 37.0092C44.2679 36.9058 44.423 36.7522 44.5327 36.5485C44.6455 36.348 44.7019 36.1004 44.7019 35.8058V31.9044L44.7818 30.7857ZM41.2799 33.3851V33.2864C41.2799 32.8978 41.3253 32.5452 41.4162 32.2287C41.5102 31.9091 41.6434 31.6349 41.8158 31.4061C41.9912 31.1774 42.2028 31.0019 42.4503 30.8797C42.6979 30.7543 42.9768 30.6917 43.287 30.6917C43.6067 30.6917 43.8856 30.7481 44.1237 30.8609C44.365 30.9706 44.5687 31.132 44.7348 31.345C44.904 31.555 45.0372 31.8088 45.1343 32.1065C45.2315 32.4042 45.2988 32.7411 45.3364 33.1171V33.5496C45.302 33.9225 45.2346 34.2578 45.1343 34.5555C45.0372 34.8532 44.904 35.107 44.7348 35.317C44.5687 35.5269 44.365 35.6883 44.1237 35.8011C43.8824 35.9108 43.6004 35.9657 43.2776 35.9657C42.9736 35.9657 42.6979 35.9014 42.4503 35.7729C42.2059 35.6445 41.9959 35.4643 41.8205 35.2324C41.645 35.0005 41.5102 34.7278 41.4162 34.4145C41.3253 34.098 41.2799 33.7548 41.2799 33.3851ZM42.1495 33.2864V33.3851C42.1495 33.6389 42.1746 33.8771 42.2247 34.0995C42.278 34.322 42.3579 34.5179 42.4644 34.6871C42.5741 34.8563 42.7136 34.9895 42.8828 35.0867C43.052 35.1807 43.2541 35.2277 43.4891 35.2277C43.7774 35.2277 44.0156 35.1666 44.2036 35.0444C44.3916 34.9221 44.5405 34.7608 44.6502 34.5602C44.763 34.3596 44.8507 34.1419 44.9134 33.9068V32.774C44.8789 32.6016 44.8257 32.4356 44.7536 32.2757C44.6846 32.1128 44.5938 31.9686 44.4809 31.8433C44.3713 31.7148 44.235 31.613 44.072 31.5378C43.9091 31.4626 43.7179 31.425 43.4985 31.425C43.2604 31.425 43.0551 31.4751 42.8828 31.5754C42.7136 31.6725 42.5741 31.8073 42.4644 31.9796C42.3579 32.1488 42.278 32.3463 42.2247 32.5719C42.1746 32.7944 42.1495 33.0325 42.1495 33.2864ZM49.0029 35.9657C48.6487 35.9657 48.3275 35.9061 48.0392 35.787C47.7541 35.6648 47.5081 35.494 47.3013 35.2747C47.0976 35.0553 46.9409 34.7952 46.8312 34.4944C46.7215 34.1936 46.6667 33.8645 46.6667 33.5073V33.3099C46.6667 32.8962 46.7278 32.528 46.85 32.2052C46.9722 31.8793 47.1383 31.6036 47.3483 31.3779C47.5582 31.1523 47.7964 30.9815 48.0627 30.8656C48.3291 30.7496 48.6049 30.6917 48.89 30.6917C49.2535 30.6917 49.5669 30.7543 49.8301 30.8797C50.0965 31.005 50.3143 31.1805 50.4835 31.4061C50.6527 31.6286 50.7781 31.8919 50.8596 32.1958C50.941 32.4967 50.9818 32.8257 50.9818 33.1829V33.5731H47.1837V32.8633H50.1122V32.7975C50.0996 32.5719 50.0526 32.3525 49.9712 32.1394C49.8928 31.9263 49.7675 31.7509 49.5951 31.613C49.4228 31.4751 49.1877 31.4061 48.89 31.4061C48.6926 31.4061 48.5109 31.4485 48.3448 31.5331C48.1787 31.6145 48.0361 31.7368 47.917 31.8997C47.798 32.0627 47.7055 32.2616 47.6397 32.4967C47.5739 32.7317 47.541 33.0028 47.541 33.3099V33.5073C47.541 33.7486 47.5739 33.9758 47.6397 34.1889C47.7086 34.3988 47.8074 34.5837 47.9358 34.7435C48.0674 34.9033 48.2257 35.0287 48.4106 35.1196C48.5986 35.2104 48.8117 35.2559 49.0499 35.2559C49.357 35.2559 49.6171 35.1932 49.8301 35.0679C50.0432 34.9425 50.2297 34.7749 50.3895 34.5649L50.916 34.9832C50.8063 35.1493 50.6668 35.3076 50.4976 35.458C50.3284 35.6084 50.12 35.7306 49.8724 35.8246C49.628 35.9186 49.3382 35.9657 49.0029 35.9657ZM54.9584 34.5226C54.9584 34.3972 54.9302 34.2813 54.8738 34.1748C54.8205 34.0651 54.7093 33.9664 54.5401 33.8786C54.374 33.7877 54.1233 33.7094 53.788 33.6436C53.5059 33.5841 53.2506 33.5135 53.0218 33.4321C52.7962 33.3506 52.6034 33.2519 52.4436 33.1359C52.2869 33.02 52.1663 32.8837 52.0817 32.727C51.9971 32.5703 51.9548 32.387 51.9548 32.177C51.9548 31.9765 51.9986 31.7869 52.0864 31.6083C52.1773 31.4297 52.3042 31.2714 52.4671 31.1335C52.6332 30.9956 52.8322 30.8875 53.0641 30.8092C53.296 30.7308 53.5545 30.6917 53.8397 30.6917C54.2471 30.6917 54.5949 30.7637 54.8832 30.9079C55.1715 31.052 55.3924 31.2448 55.546 31.4861C55.6995 31.7242 55.7763 31.989 55.7763 32.2804H54.9067C54.9067 32.1394 54.8644 32.0031 54.7798 31.8715C54.6983 31.7368 54.5777 31.6255 54.4179 31.5378C54.2612 31.45 54.0684 31.4061 53.8397 31.4061C53.5984 31.4061 53.4025 31.4438 53.2521 31.519C53.1048 31.591 52.9967 31.6835 52.9278 31.7963C52.862 31.9091 52.8291 32.0282 52.8291 32.1535C52.8291 32.2475 52.8447 32.3322 52.8761 32.4074C52.9106 32.4794 52.9701 32.5468 53.0547 32.6095C53.1393 32.669 53.2584 32.7254 53.4119 32.7787C53.5655 32.832 53.7613 32.8852 53.9995 32.9385C54.4163 33.0325 54.7594 33.1453 55.0289 33.277C55.2984 33.4086 55.499 33.57 55.6306 33.7611C55.7622 33.9523 55.828 34.1842 55.828 34.4568C55.828 34.6793 55.781 34.883 55.687 35.0679C55.5961 35.2527 55.4629 35.4126 55.2874 35.5473C55.1151 35.6789 54.9083 35.7823 54.667 35.8575C54.4288 35.9296 54.1609 35.9657 53.8632 35.9657C53.4151 35.9657 53.0359 35.8857 52.7257 35.7259C52.4154 35.5661 52.1804 35.3593 52.0206 35.1055C51.8608 34.8516 51.7809 34.5837 51.7809 34.3017H52.6552C52.6677 34.5398 52.7366 34.7294 52.862 34.8704C52.9873 35.0083 53.1409 35.107 53.3226 35.1666C53.5044 35.223 53.6846 35.2512 53.8632 35.2512C54.1013 35.2512 54.3003 35.2198 54.4602 35.1572C54.6231 35.0945 54.7469 35.0083 54.8315 34.8986C54.9161 34.789 54.9584 34.6636 54.9584 34.5226Z" fill="#8794BA"/>
</svg>
