<svg width="135" height="36" viewBox="0 0 135 36" fill="none" xmlns="http://www.w3.org/2000/svg">
<path d="M78.4057 10.0665L86.1177 7.19951L78.4057 4.16551V0.145508L91.6057 5.47351V8.75351L78.4057 14.0865V10.0665ZM5.50472 35.4895C2.71772 35.4895 0.417725 34.0955 0.417725 30.9815V30.8155C0.417725 27.0425 3.69772 25.7285 7.71772 25.7285H9.60472V24.9885C9.60472 23.4285 8.95072 22.5285 7.31072 22.5285C7.0284 22.493 6.74176 22.5169 6.46924 22.5988C6.19672 22.6806 5.94436 22.8187 5.72838 23.0039C5.5124 23.1892 5.3376 23.4176 5.2152 23.6745C5.09281 23.9314 5.02554 24.2111 5.01772 24.4955H0.910725C1.23772 21.0455 3.94472 19.4095 7.55172 19.4095C11.2397 19.4095 13.9457 20.9695 13.9457 24.8235V35.1575H9.76572V33.3505C9.28706 34.0309 8.64749 34.5823 7.90403 34.9555C7.16056 35.3287 6.3363 35.5122 5.50472 35.4895ZM9.60472 29.9955V28.5215H7.88472C5.75172 28.5215 4.68472 29.0955 4.68472 30.4885V30.6545C4.68472 31.7215 5.33872 32.4605 6.81772 32.4605C7.16638 32.5008 7.51961 32.4672 7.85443 32.362C8.18926 32.2568 8.49817 32.0822 8.76107 31.8497C9.02397 31.6172 9.23496 31.3319 9.38031 31.0124C9.52567 30.693 9.60213 30.3465 9.60472 29.9955V29.9955ZM23.7047 35.4895C19.4377 35.4895 16.3237 32.8635 16.3237 27.6155V27.3745C16.3237 22.1215 19.6037 19.3345 23.7047 19.3345C27.2317 19.3345 30.0987 21.1405 30.4317 25.1555H26.3317C26.0847 23.6815 25.2647 22.6955 23.7907 22.6955C21.9847 22.6955 20.6767 24.1695 20.6767 27.2035V27.6965C20.6767 30.8105 21.8237 32.2045 23.7907 32.2045C24.5235 32.1843 25.2207 31.8842 25.7391 31.3659C26.2574 30.8475 26.5575 30.1503 26.5777 29.4175H30.5177C30.2677 32.9455 27.8877 35.4895 23.7067 35.4895H23.7047ZM39.7797 35.4895C35.5127 35.4895 32.3987 32.8635 32.3987 27.6155V27.3745C32.3987 22.1275 35.6787 19.3395 39.7797 19.3395C43.3067 19.3395 46.1737 21.1455 46.5067 25.1605H42.4067C42.1597 23.6865 41.3397 22.7005 39.8657 22.7005C38.0597 22.7005 36.7517 24.1745 36.7517 27.2085V27.7015C36.7517 30.8155 37.8987 32.2095 39.8657 32.2095C40.5985 32.1893 41.2957 31.8892 41.8141 31.3709C42.3324 30.8525 42.6325 30.1553 42.6527 29.4225H46.5867C46.3417 32.9455 43.9627 35.4895 39.7817 35.4895H39.7797ZM55.9347 35.4895C51.5077 35.4895 48.4737 32.8635 48.4737 27.7015V27.3745C48.4737 22.2075 51.6737 19.3395 55.8547 19.3395C59.7087 19.3395 62.9087 21.4725 62.9087 26.6395V28.5265H52.9027C53.0687 31.3135 54.2967 32.3805 56.1027 32.3805C56.7336 32.4299 57.3623 32.2616 57.8842 31.9037C58.4061 31.5457 58.7895 31.0198 58.9707 30.4135H62.9907C62.4167 33.2755 60.0377 35.4895 55.9367 35.4895H55.9347ZM52.9027 25.6455H58.7237C58.6437 23.3515 57.5767 22.3655 55.8557 22.3655C54.4627 22.4535 53.2297 23.1885 52.9027 25.6455ZM65.5307 19.7455H69.8777V22.0455C70.3215 21.2044 70.9985 20.5093 71.8276 20.0435C72.6567 19.5777 73.6026 19.361 74.5517 19.4195C77.3387 19.4195 79.2257 21.1405 79.2257 24.8335V35.1625H74.8787V25.4875C74.8787 23.6815 74.1387 22.8615 72.5847 22.8615C72.21 22.8415 71.8353 22.9033 71.4869 23.0426C71.1384 23.182 70.8245 23.3956 70.5669 23.6685C70.3093 23.9414 70.1142 24.2671 69.9952 24.6231C69.8762 24.979 69.8361 25.3565 69.8777 25.7295V35.1575H65.5307V19.7455ZM87.1797 15.0715V19.7455H90.1327V22.9455H87.1797V30.2455C87.1797 31.3925 87.6727 31.9665 88.7397 31.9665C89.2429 31.9871 89.7448 31.903 90.2137 31.7195V35.0805C89.4146 35.3113 88.5854 35.4215 87.7537 35.4075C84.3927 35.4075 82.8337 33.8475 82.8337 30.7335V22.9455H81.0337V19.7455H82.8397V16.8745L87.1797 15.0715ZM106.369 35.1605H102.018V32.8685C101.603 33.6954 100.957 34.3839 100.158 34.8502C99.359 35.3164 98.4417 35.5403 97.5177 35.4945C94.7307 35.4945 92.6777 33.7735 92.6777 30.1665V19.7455H97.0177V29.5865C97.0177 31.3925 97.7577 32.2125 99.2317 32.2125C99.6045 32.225 99.9756 32.158 100.321 32.0161C100.665 31.8741 100.976 31.6604 101.232 31.3892C101.488 31.118 101.684 30.7954 101.805 30.4429C101.927 30.0903 101.973 29.7159 101.939 29.3445V19.8275H106.286V35.1625L106.369 35.1605ZM109.569 19.7455H113.918V22.6135C114.264 21.6702 114.906 20.8646 115.749 20.3176C116.592 19.7705 117.589 19.5116 118.592 19.5795V23.8455C115.639 23.8455 113.918 24.7455 113.918 27.2915V35.2455H109.571L109.569 19.7455ZM127.369 35.4875C122.942 35.4875 119.908 32.8615 119.908 27.6995V27.3725C119.908 22.2055 123.108 19.3375 127.289 19.3375C131.143 19.3375 134.343 21.4705 134.343 26.6375V28.5245H124.33C124.496 31.3115 125.724 32.3785 127.53 32.3785C128.161 32.4279 128.789 32.2596 129.311 31.9017C129.833 31.5437 130.217 31.0178 130.398 30.4115H134.418C133.764 33.2735 131.384 35.4875 127.364 35.4875H127.369ZM124.25 25.6455H130.071C129.991 23.3515 128.924 22.3655 127.203 22.3655C125.89 22.4535 124.657 23.1885 124.25 25.6455Z" fill="#8989A2"/>
</svg>
