<svg width="131" height="41" viewBox="0 0 131 41" fill="none" xmlns="http://www.w3.org/2000/svg">
<path d="M68.7308 10.4474C68.731 10.9714 68.5758 11.4836 68.2849 11.9194C67.9939 12.3552 67.5803 12.6949 67.0962 12.8955C66.6122 13.0962 66.0795 13.1488 65.5656 13.0467C65.0517 12.9446 64.5796 12.6924 64.209 12.3219C63.8385 11.9515 63.5861 11.4795 63.4838 10.9656C63.3815 10.4517 63.4339 9.91904 63.6344 9.43494C63.8348 8.95084 64.1744 8.53706 64.61 8.24594C65.0456 7.95482 65.5578 7.79944 66.0818 7.79944C66.4298 7.79865 66.7746 7.86658 67.0962 7.99936C67.4179 8.13214 67.7102 8.32715 67.9563 8.57318C68.2025 8.81922 68.3976 9.11144 68.5305 9.43307C68.6634 9.75471 68.7315 10.0994 68.7308 10.4474V10.4474ZM57.8108 15.7854V16.4374C57.3098 15.8951 56.6969 15.4684 56.0145 15.1867C55.332 14.9051 54.5964 14.7753 53.8588 14.8064C51.7461 14.8472 49.7337 15.7151 48.254 17.2236C46.7743 18.7321 45.9454 20.7608 45.9454 22.8739C45.9454 24.987 46.7743 27.0158 48.254 28.5243C49.7337 30.0328 51.7461 30.9007 53.8588 30.9414C54.6007 30.9775 55.3413 30.846 56.0254 30.5567C56.7096 30.2674 57.3198 29.8278 57.8108 29.2704V29.9624C57.809 30.0379 57.8226 30.1129 57.8507 30.1829C57.8787 30.2529 57.9207 30.3165 57.9741 30.3698C58.0275 30.4231 58.0912 30.465 58.1613 30.493C58.2313 30.5209 58.3064 30.5344 58.3818 30.5324H61.6818V15.2124H58.3818C58.2314 15.2162 58.0882 15.2778 57.9819 15.3842C57.8756 15.4907 57.8144 15.634 57.8108 15.7844V15.7854ZM57.8108 25.6044C57.4331 26.1252 56.9368 26.5484 56.3629 26.839C55.789 27.1296 55.1541 27.2792 54.5108 27.2754C53.9154 27.3038 53.3203 27.2111 52.7618 27.0027C52.2032 26.7944 51.6927 26.4749 51.2613 26.0636C50.8298 25.6522 50.4863 25.1575 50.2517 24.6095C50.017 24.0615 49.896 23.4716 49.896 22.8754C49.896 22.2793 50.017 21.6894 50.2517 21.1414C50.4863 20.5934 50.8298 20.0987 51.2613 19.6873C51.6927 19.2759 52.2032 18.9564 52.7618 18.7481C53.3203 18.5398 53.9154 18.447 54.5108 18.4754C55.1525 18.4805 55.7843 18.634 56.3568 18.9239C56.9293 19.2138 57.4269 19.6322 57.8108 20.1464V25.6044ZM64.1268 15.2144H68.0378V30.5344H64.1268V15.2134V15.2144ZM122.555 14.8064C121.817 14.7753 121.081 14.9051 120.399 15.1868C119.716 15.4684 119.103 15.8952 118.602 16.4374V7.83743H114.691V30.5324H117.991C118.141 30.5294 118.285 30.4682 118.391 30.3617C118.497 30.2553 118.558 30.1118 118.561 29.9614V29.2694C119.056 29.8213 119.667 30.2571 120.35 30.5459C121.033 30.8347 121.772 30.9694 122.513 30.9404C124.622 30.8993 126.631 30.034 128.11 28.5299C129.589 27.0258 130.42 25.0024 130.425 22.893C130.431 20.7836 129.61 18.7559 128.139 17.2441C126.668 15.7323 124.664 14.8566 122.555 14.8044V14.8064ZM121.903 27.2344C121.259 27.2431 120.622 27.0956 120.047 26.8046C119.473 26.5136 118.977 26.0877 118.603 25.5634V20.1034C119 19.6032 119.5 19.1948 120.07 18.9063C120.639 18.6179 121.265 18.4562 121.903 18.4324C123.07 18.4324 124.189 18.896 125.014 19.7212C125.839 20.5463 126.303 21.6655 126.303 22.8324C126.303 23.9994 125.839 25.1185 125.014 25.9437C124.189 26.7689 123.07 27.2324 121.903 27.2324V27.2344ZM112.654 21.4494V30.5764H108.742V21.8974C108.742 19.3714 107.927 18.3524 105.728 18.3524C105.122 18.3703 104.527 18.5135 103.98 18.7731C103.433 19.0327 102.946 19.4029 102.549 19.8604V30.5354H98.6388V15.2144H101.739C101.889 15.2175 102.033 15.2786 102.139 15.3851C102.246 15.4915 102.307 15.635 102.31 15.7854V16.4374C102.854 15.8958 103.504 15.4716 104.218 15.1911C104.933 14.9105 105.697 14.7796 106.465 14.8064C108.023 14.7531 109.546 15.2753 110.744 16.2734C112.129 17.4144 112.659 18.8804 112.659 21.4484L112.654 21.4494ZM89.1428 14.8074C88.4052 14.7764 87.6697 14.9063 86.9873 15.1879C86.3048 15.4695 85.6919 15.8963 85.1908 16.4384V7.83844H81.2798V30.5334H84.5798C84.7303 30.5304 84.8738 30.4692 84.9802 30.3628C85.0866 30.2564 85.1477 30.1129 85.1508 29.9624V29.2704C85.6463 29.8223 86.2573 30.2581 86.9404 30.5469C87.6234 30.8357 88.3617 30.9704 89.1028 30.9414C91.2118 30.9001 93.2208 30.0347 94.6996 28.5305C96.1784 27.0263 97.0095 25.0029 97.0148 22.8935C97.0202 20.7841 96.1994 18.7565 94.7283 17.2448C93.2571 15.733 91.2526 14.8575 89.1438 14.8055L89.1428 14.8074ZM88.4908 27.2354C87.8467 27.2441 87.2101 27.0967 86.6354 26.8057C86.0607 26.5147 85.565 26.0888 85.1908 25.5644V20.1044C85.5876 19.6042 86.088 19.1958 86.6577 18.9073C87.2274 18.6189 87.8527 18.4572 88.4908 18.4334C89.0863 18.405 89.6813 18.4978 90.2399 18.7061C90.7984 18.9144 91.3089 19.234 91.7403 19.6453C92.1718 20.0567 92.5153 20.5514 92.75 21.0994C92.9846 21.6474 93.1056 22.2373 93.1056 22.8334C93.1056 23.4296 92.9846 24.0195 92.75 24.5675C92.5153 25.1155 92.1718 25.6102 91.7403 26.0216C91.3089 26.4329 90.7984 26.7524 90.2399 26.9608C89.6813 27.1691 89.0863 27.2618 88.4908 27.2334V27.2354ZM77.8978 14.8074C78.502 14.7866 79.106 14.854 79.6908 15.0074V18.6334C79.6908 18.6334 76.4308 17.5334 74.3908 19.8564V30.5724H70.4788V15.2134H73.7788C73.9292 15.2165 74.0726 15.2777 74.1788 15.3841C74.2851 15.4906 74.346 15.634 74.3488 15.7844V16.4364C75.2844 15.4657 76.5518 14.8836 77.8978 14.8064V14.8074ZM37.2758 29.1504C37.0758 28.6614 36.8688 28.1324 36.6648 27.6834C36.3388 26.9504 36.0128 26.2574 35.7278 25.6054L35.6868 25.5644C32.8748 19.4524 29.8608 13.2644 26.6868 7.14844L26.5648 6.90344C26.2315 6.26944 25.9058 5.6311 25.5878 4.98843C25.186 4.18786 24.6938 3.43596 24.1208 2.74744C23.5057 1.96115 22.7197 1.32512 21.8225 0.887482C20.9252 0.449848 19.9401 0.222087 18.9418 0.221436C17.947 0.225109 16.965 0.445785 16.0643 0.868073C15.1636 1.29036 14.3659 1.9041 13.7268 2.66644C13.1672 3.36474 12.6759 4.11518 12.2598 4.90744C11.9418 5.54944 11.6162 6.18778 11.2828 6.82245L11.1598 7.06744C8.02281 13.1784 4.96681 19.3674 2.15981 25.4834L2.11882 25.5644C1.83382 26.2174 1.50781 26.9094 1.18181 27.6424C0.978477 28.0911 0.774818 28.5801 0.570818 29.1094C0.0497934 30.5139 -0.118144 32.0249 0.0818041 33.5094C0.3002 35.0006 0.904011 36.409 1.83354 37.5953C2.76308 38.7816 3.98616 39.7047 5.38182 40.2734C6.42631 40.712 7.549 40.9339 8.68181 40.9254C9.03643 40.9186 9.39035 40.8912 9.74181 40.8434C11.1795 40.6609 12.5656 40.1898 13.8168 39.4584C15.7142 38.3253 17.4172 36.8948 18.8608 35.2214C20.3159 36.8862 22.0202 38.3154 23.9128 39.4584C25.1638 40.1896 26.5494 40.6607 27.9868 40.8434C28.3382 40.8914 28.6922 40.9188 29.0468 40.9254C30.18 40.938 31.3035 40.716 32.3468 40.2734C33.7433 39.706 34.9672 38.7832 35.8969 37.5967C36.8266 36.4102 37.4298 35.0011 37.6468 33.5094C37.9467 32.0512 37.8185 30.5375 37.2778 29.1504H37.2758ZM18.9008 31.2694C16.9969 29.071 15.5929 26.4855 14.7858 23.6914C14.5871 22.8781 14.5457 22.0343 14.6638 21.2054C14.7438 20.5915 14.9672 20.0051 15.3158 19.4934C15.7246 18.9275 16.2642 18.4688 16.8886 18.1566C17.5131 17.8443 18.2038 17.6878 18.9018 17.7004C19.602 17.6742 20.2975 17.8247 20.9242 18.1381C21.551 18.4514 22.0887 18.9175 22.4878 19.4934C22.8358 20.0054 23.0591 20.5917 23.1398 21.2054C23.2582 22.0343 23.2168 22.8782 23.0178 23.6914C22.1912 26.4772 20.7885 29.0583 18.9008 31.2674V31.2694ZM35.1568 33.1844C35.0103 34.2341 34.5908 35.2269 33.9402 36.0636C33.2897 36.9003 32.431 37.5516 31.4498 37.9524C30.4686 38.352 29.4009 38.4922 28.3498 38.3594C27.2546 38.2234 26.1993 37.8629 25.2498 37.3004C23.4991 36.241 21.9306 34.9062 20.6048 33.3474C22.9054 30.7573 24.5907 27.6806 25.5348 24.3474C25.7989 23.2127 25.8666 22.041 25.7348 20.8834C25.5841 19.888 25.2078 18.9402 24.6348 18.1124C23.9862 17.1978 23.1235 16.4559 22.1221 15.9516C21.1206 15.4473 20.0108 15.1959 18.8898 15.2194C17.7703 15.2048 16.6637 15.4601 15.6637 15.9637C14.6637 16.4673 13.7997 17.2043 13.1448 18.1124C12.572 18.9403 12.1957 19.8881 12.0448 20.8834C11.8716 22.0395 11.9397 23.219 12.2448 24.3474C12.8558 27.0364 14.5258 30.0924 17.1748 33.3924C15.8585 34.9607 14.2884 36.2969 12.5298 37.3454C11.5806 37.9085 10.5251 38.2691 9.42983 38.4044C8.37878 38.5223 7.31484 38.3826 6.32982 37.9974C5.35155 37.593 4.49638 36.9392 3.84963 36.1012C3.20287 35.2632 2.78712 34.2703 2.64382 33.2214C2.50933 32.148 2.63521 31.058 3.01082 30.0434C3.13282 29.6354 3.33682 29.2284 3.54082 28.7434C3.82582 28.0914 4.1518 27.3984 4.4778 26.7054L4.51882 26.6245C7.32982 20.5535 10.3448 14.3604 13.4818 8.33044L13.6038 8.08545C13.9298 7.47445 14.2558 6.82243 14.5818 6.21143C14.8895 5.57054 15.2726 4.96862 15.7228 4.41843C16.1244 3.94597 16.6239 3.56647 17.1868 3.30621C17.7496 3.04595 18.3622 2.91116 18.9823 2.91116C19.6024 2.91116 20.2151 3.04595 20.7779 3.30621C21.3407 3.56647 21.8402 3.94597 22.2418 4.41843C22.6915 4.96903 23.0745 5.57087 23.3828 6.21143C23.7088 6.82243 24.0348 7.47445 24.3608 8.08545L24.4838 8.33044C27.5731 14.3851 30.5475 20.4968 33.4068 26.6654V26.7064C33.7328 27.3594 34.0178 28.0924 34.3438 28.7444C34.5438 29.2324 34.7508 29.6444 34.8738 30.0444C35.2096 31.0541 35.3068 32.1279 35.1578 33.1814L35.1568 33.1844Z" fill="#8989A2"/>
</svg>
