<svg width="64" height="57" viewBox="0 0 64 57" fill="none" xmlns="http://www.w3.org/2000/svg">
<path d="M52.6428 18.2936C51.9675 18.0622 51.2868 17.8479 50.6008 17.6506C50.7148 17.1886 50.8202 16.7242 50.9168 16.2576C52.4628 8.75756 51.4518 2.70856 48.0008 0.718565C44.6918 -1.19044 39.2798 0.799564 33.8138 5.55656C33.2751 6.02323 32.7488 6.50623 32.2348 7.00557C31.8902 6.67223 31.5398 6.34856 31.1838 6.03456C25.4548 0.947565 19.7128 -1.19544 16.2648 0.800565C12.9588 2.71456 11.9798 8.40057 13.3708 15.5086C13.5095 16.2126 13.6658 16.9126 13.8398 17.6086C13.0278 17.8396 12.2398 18.0856 11.4918 18.3466C4.77582 20.6876 0.486816 24.3576 0.486816 28.1646C0.486816 32.0966 5.08682 36.0396 12.0868 38.4306C12.6541 38.6232 13.2258 38.8019 13.8018 38.9666C13.6145 39.7166 13.4478 40.4716 13.3018 41.2316C11.9748 48.2196 13.0108 53.7676 16.3088 55.6696C19.7148 57.6336 25.4308 55.6146 30.9968 50.7496C31.4368 50.3649 31.8781 49.9582 32.3208 49.5296C32.8775 50.0669 33.4491 50.5886 34.0358 51.0946C39.4268 55.7336 44.7518 57.6076 48.0468 55.7006C51.4468 53.7306 52.5548 47.7706 51.1188 40.5186C51.0095 39.9646 50.8828 39.3979 50.7388 38.8186C51.1388 38.6999 51.5322 38.5772 51.9188 38.4506C59.1908 36.0416 63.9188 32.1506 63.9188 28.1616C63.9188 24.3416 59.4918 20.6466 52.6398 18.2886L52.6428 18.2936Z" fill="#8989A2"/>
<path d="M51.0647 35.8826C50.7177 35.9976 50.3647 36.1086 49.9997 36.2156C49.1127 33.4671 48.0396 30.7822 46.7877 28.1796C47.9923 25.6111 49.0236 22.9648 49.8747 20.2586C50.5237 20.4466 51.1537 20.6446 51.7607 20.8586C57.6307 22.8796 61.2117 25.8676 61.2117 28.1696C61.2117 30.6216 57.3447 33.8056 51.0657 35.8866L51.0647 35.8826ZM48.4597 41.0456C49.0726 43.7942 49.1743 46.6321 48.7597 49.4176C48.3817 51.4546 47.6217 52.8116 46.6827 53.3556C44.6827 54.5126 40.4077 53.0086 35.7977 49.0416C35.269 48.5869 34.7357 48.1022 34.1977 47.5876C36.1201 45.4592 37.8964 43.2034 39.5147 40.8356C42.4057 40.5918 45.2765 40.1494 48.1067 39.5116C48.236 40.0336 48.3504 40.5452 48.4497 41.0466L48.4597 41.0456ZM22.1117 53.1586C20.1587 53.8486 18.6027 53.8676 17.6627 53.3256C15.6627 52.1716 14.8297 47.7166 15.9627 41.7406C16.096 41.0346 16.2504 40.3326 16.4257 39.6346C19.2441 40.2401 22.1003 40.6537 24.9747 40.8726C26.6404 43.232 28.4593 45.4796 30.4197 47.6006C30.0257 47.9812 29.6227 48.3522 29.2107 48.7136C27.1368 50.6186 24.7301 52.1257 22.1107 53.1596L22.1117 53.1586ZM12.9617 35.8706C10.2748 35.0256 7.7664 33.6934 5.56171 31.9406C3.98971 30.5896 3.19971 29.2516 3.19971 28.1656C3.19971 25.8556 6.64371 22.9096 12.3877 20.9066C13.1084 20.6566 13.836 20.4276 14.5707 20.2196C15.4236 22.9555 16.4565 25.632 17.6627 28.2316C16.4416 30.8684 15.396 33.5829 14.5327 36.3576C14.0034 36.2069 13.4797 36.0436 12.9617 35.8676V35.8706ZM16.0287 14.9886C14.8367 8.89556 15.6287 4.29956 17.6207 3.14656C19.7427 1.91756 24.4357 3.66956 29.3817 8.06156C29.6977 8.34256 30.0157 8.63656 30.3337 8.94056C28.388 11.0479 26.5841 13.2818 24.9337 15.6276C22.0866 15.8831 19.259 16.3226 16.4687 16.9436C16.3067 16.2956 16.1614 15.6439 16.0327 14.9886H16.0287ZM43.3917 21.7456C42.7717 20.6742 42.1287 19.6169 41.4627 18.5736C43.4867 18.8286 45.4257 19.1736 47.2467 19.5846C46.6623 21.4382 45.9848 23.2612 45.2167 25.0466C44.6307 23.9339 44.0224 22.8339 43.3917 21.7466V21.7456ZM32.2337 10.8766C33.5531 12.3151 34.7991 13.8193 35.9667 15.3836C33.4687 15.2656 30.9687 15.2656 28.4667 15.3836C29.6987 13.7586 30.9617 12.2486 32.2317 10.8836L32.2337 10.8766ZM20.9997 21.7636C20.3777 22.8429 19.7807 23.9362 19.2087 25.0436C18.4227 23.1726 17.7477 21.3326 17.1997 19.5586C19.0097 19.1536 20.9397 18.8226 22.9507 18.5716C22.2774 19.6216 21.629 20.6882 21.0057 21.7716L20.9997 21.7636ZM22.9997 37.9576C21.0362 37.7445 19.085 37.4307 17.1537 37.0176C17.7137 35.2086 18.4037 33.3296 19.2097 31.4176C19.7837 32.5256 20.3837 33.6196 21.0097 34.6996C21.6477 35.8009 22.3117 36.8869 23.0017 37.9576H22.9997ZM32.2997 45.6466C31.0157 44.2606 29.7347 42.7276 28.4827 41.0786C29.6974 41.1266 30.9344 41.1506 32.1937 41.1506C33.487 41.1506 34.7634 41.1222 36.0227 41.0656C34.8637 42.6553 33.6241 44.1846 32.3087 45.6476L32.2997 45.6466ZM45.2427 31.3206C46.0488 33.1424 46.7598 35.005 47.3727 36.9006C45.4189 37.3397 43.4436 37.6765 41.4547 37.9096C42.1254 36.8469 42.7747 35.7709 43.4027 34.6816C44.0407 33.5749 44.654 32.4546 45.2427 31.3206ZM41.0557 33.3276C40.095 34.9942 39.0807 36.6309 38.0127 38.2376C36.1307 38.3716 34.1857 38.4376 32.2037 38.4376C30.2217 38.4376 28.3097 38.3766 26.4607 38.2566C25.3654 36.6566 24.332 35.0172 23.3607 33.3386C22.394 31.6719 21.492 29.9682 20.6547 28.2276C21.4894 26.4896 22.3894 24.7849 23.3547 23.1136C24.3174 21.4429 25.3427 19.8096 26.4307 18.2136C28.3177 18.0706 30.2517 17.9966 32.2067 17.9966C34.1617 17.9966 36.1067 18.0716 37.9937 18.2156C39.0697 19.8056 40.0884 21.4322 41.0497 23.0956C42.011 24.7589 42.9227 26.4556 43.7847 28.1856C42.9374 29.9289 42.0287 31.6406 41.0587 33.3206L41.0557 33.3276ZM46.6457 3.06556C48.7697 4.29056 49.5957 9.23056 48.2617 15.7096C48.1744 16.1316 48.0794 16.5519 47.9767 16.9706C45.182 16.3372 42.3485 15.8895 39.4947 15.6306C37.8598 13.2819 36.0684 11.0462 34.1327 8.93856C34.608 8.48056 35.0944 8.03456 35.5917 7.60056C40.2747 3.52456 44.6517 1.91556 46.6467 3.06556H46.6457Z" fill="white"/>
<path d="M32.2038 22.5015C33.3243 22.5015 34.4195 22.8337 35.3511 23.4562C36.2827 24.0787 37.0088 24.9634 37.4376 25.9986C37.8664 27.0337 37.9786 28.1727 37.76 29.2717C37.5414 30.3706 37.0018 31.38 36.2096 32.1722C35.4173 32.9645 34.4079 33.504 33.309 33.7226C32.2101 33.9412 31.0711 33.829 30.0359 33.4002C29.0008 32.9715 28.116 32.2454 27.4935 31.3138C26.8711 30.3822 26.5388 29.2869 26.5388 28.1665C26.5388 26.664 27.1357 25.2231 28.1981 24.1607C29.2605 23.0983 30.7014 22.5015 32.2038 22.5015" fill="#8989A2"/>
</svg>
