<svg width="55" height="34" viewBox="0 0 55 34" fill="none" xmlns="http://www.w3.org/2000/svg">
<path d="M23.904 1.50853C23.9119 1.40847 23.8974 1.30791 23.8616 1.21414C23.8258 1.12038 23.7696 1.03576 23.697 0.966433C23.6244 0.897108 23.5373 0.844815 23.442 0.813351C23.3467 0.781886 23.2456 0.77204 23.146 0.784527H20.476C20.2299 0.755733 19.9806 0.78319 19.7467 0.864827C19.5128 0.946463 19.3005 1.08015 19.1258 1.2558C18.9511 1.43144 18.8186 1.64447 18.7383 1.8788C18.6579 2.11313 18.6318 2.36264 18.662 2.60853V25.4775C18.6549 25.578 18.6701 25.6788 18.7066 25.7727C18.743 25.8666 18.7998 25.9513 18.8728 26.0207C18.9458 26.09 19.0333 26.1424 19.1289 26.174C19.2245 26.2057 19.326 26.2157 19.426 26.2035H22.09C22.3362 26.2324 22.5858 26.2049 22.8198 26.1231C23.0539 26.0414 23.2663 25.9075 23.441 25.7317C23.6157 25.5558 23.7482 25.3425 23.8284 25.1079C23.9086 24.8733 23.9344 24.6236 23.904 24.3775V1.50853ZM54.418 9.22253C54.418 8.79353 54.101 8.58153 53.669 8.58153H50.429C50.1759 8.55274 49.9206 8.61212 49.7062 8.74966C49.4918 8.8872 49.3313 9.09447 49.252 9.33653L44.684 19.4745L38.318 9.44253C38.1468 9.13813 37.887 8.89302 37.5732 8.73977C37.2593 8.58652 36.9063 8.53237 36.561 8.58453H32.711C32.3907 8.56145 32.0694 8.61489 31.7739 8.74042C31.4783 8.86596 31.2168 9.06 31.011 9.30653L24.227 16.5845L30.306 25.4505C30.4135 25.6719 30.5804 25.859 30.788 25.9911C30.9957 26.1231 31.2359 26.1949 31.482 26.1985H35.108C35.651 26.1985 35.967 25.9805 35.967 25.5245C35.9449 25.2575 35.8336 25.0056 35.651 24.8095L30.307 16.8975L34.36 12.5315L42.371 24.3735L38.835 31.8545C38.7215 32.0541 38.6482 32.2739 38.619 32.5015C38.619 32.9345 38.937 33.1425 39.37 33.1425H42.585C42.8377 33.1726 43.0931 33.1141 43.3075 32.977C43.522 32.8398 43.6822 32.6326 43.761 32.3905L54.206 9.87053C54.3214 9.67183 54.3936 9.45102 54.418 9.22253V9.22253ZM6.94097 14.6775C5.87597 14.4375 5.54097 14.1365 5.54097 13.5995C5.54097 13.1815 5.87197 12.8485 6.83197 12.8485H14.605C14.8505 12.8786 15.0997 12.8525 15.3337 12.7721C15.5677 12.6917 15.7803 12.5592 15.9555 12.3845C16.1307 12.2099 16.264 11.9977 16.3451 11.764C16.4263 11.5303 16.4532 11.2812 16.424 11.0355V9.34253C16.4365 9.24287 16.4268 9.14166 16.3955 9.04622C16.3642 8.95078 16.312 8.86349 16.2428 8.79067C16.1736 8.71784 16.0891 8.6613 15.9954 8.62513C15.9017 8.58896 15.8011 8.57407 15.701 8.58153H6.60097C2.54397 8.58453 0.417969 10.9335 0.417969 13.9245C0.417969 16.5885 2.05397 18.2105 5.32797 18.9385L10.552 20.1075C11.614 20.3425 11.944 20.6475 11.944 21.1915C11.944 21.6035 11.615 21.9365 10.658 21.9365H2.55797C2.31194 21.9052 2.06202 21.9304 1.82722 22.0103C1.59242 22.0902 1.37894 22.2226 1.20304 22.3974C1.02714 22.5723 0.89346 22.7849 0.812173 23.0192C0.730886 23.2535 0.704139 23.5033 0.733969 23.7495V25.4395C0.721185 25.539 0.730607 25.6401 0.761557 25.7355C0.792507 25.831 0.844216 25.9183 0.912966 25.9914C0.981716 26.0645 1.0658 26.1214 1.15917 26.158C1.25254 26.1947 1.35288 26.2103 1.45297 26.2035H10.342C15.142 26.2035 17.073 23.8535 17.073 21.0705C17.073 18.1945 15.416 16.5705 12.165 15.8475L6.94097 14.6775Z" fill="#8989A2"/>
</svg>
