<svg width="96" height="15" viewBox="0 0 96 15" fill="none" xmlns="http://www.w3.org/2000/svg">
<path fill-rule="evenodd" clip-rule="evenodd" d="M88 11.5679L83.5916 13.5676L84.1312 8.75704L80.8671 5.18237L85.609 4.20902L88 0L90.391 4.20902L95.1329 5.18237L91.8688 8.75704L92.4084 13.5676L88 11.5679Z" fill="#FFD36F"/>
<path fill-rule="evenodd" clip-rule="evenodd" d="M68 11.5679L63.5916 13.5676L64.1312 8.75704L60.8671 5.18237L65.609 4.20902L68 0L70.391 4.20902L75.1329 5.18237L71.8688 8.75704L72.4084 13.5676L68 11.5679Z" fill="#FFD36F"/>
<path fill-rule="evenodd" clip-rule="evenodd" d="M48 11.5679L43.5916 13.5676L44.1312 8.75704L40.8671 5.18237L45.609 4.20902L48 0L50.391 4.20902L55.1329 5.18237L51.8688 8.75704L52.4084 13.5676L48 11.5679Z" fill="#FFD36F"/>
<path fill-rule="evenodd" clip-rule="evenodd" d="M28 11.5679L23.5916 13.5676L24.1312 8.75704L20.8671 5.18237L25.609 4.20902L28 0L30.391 4.20902L35.1329 5.18237L31.8688 8.75704L32.4084 13.5676L28 11.5679Z" fill="#FFD36F"/>
<path fill-rule="evenodd" clip-rule="evenodd" d="M8 11.5679L3.59161 13.5676L4.13122 8.75704L0.867076 5.18237L5.60896 4.20902L8 0L10.391 4.20902L15.1329 5.18237L11.8688 8.75704L12.4084 13.5676L8 11.5679Z" fill="#FFD36F"/>
</svg>
